<?xml version="1.0" encoding="utf-8"?>
<!-- Generator: Adobe Illustrator 18.1.1, SVG Export Plug-In . SVG Version: 6.00 Build 0)  -->
<!DOCTYPE svg PUBLIC "-//W3C//DTD SVG 1.1//EN" "http://www.w3.org/Graphics/SVG/1.1/DTD/svg11.dtd">
<svg version="1.1" id="Layer_1" xmlns="http://www.w3.org/2000/svg" xmlns:xlink="http://www.w3.org/1999/xlink" x="0px" y="0px"
	 viewBox="0 0 90 64.4" enable-background="new 0 0 90 64.4" xml:space="preserve">
<g id="time-clock">
	<path fill="#404045" d="M32.2,1.3C15,1.3,1,15.3,1,32.5s14,31.2,31.2,31.2c17.2,0,31.2-14,31.2-31.2S49.4,1.3,32.2,1.3z M32.2,61.5
		c-16,0-29-13-29-29s13-29,29-29c16,0,29,13,29,29S48.2,61.5,32.2,61.5z"/>
	<path fill="#404045" d="M47.5,16.7l-13.9,14c-0.4-0.2-0.9-0.3-1.4-0.3c-0.5,0-1,0.1-1.4,0.3l-8.9-8.9c-0.4-0.4-1.1-0.4-1.5,0
		c-0.4,0.4-0.4,1.1,0,1.5l9,9c-0.2,0.4-0.3,0.9-0.3,1.4c0,1.8,1.5,3.3,3.3,3.3c1.8,0,3.3-1.5,3.3-3.3c0-0.5-0.1-1-0.3-1.4l13.9-14
		c0.4-0.4,0.4-1.1,0-1.5C48.6,16.2,47.9,16.2,47.5,16.7z"/>
	<circle fill="#404045" cx="32.2" cy="55.5" r="3.3"/>
	<circle fill="#404045" cx="32.2" cy="10.6" r="3.3"/>
	<circle fill="#404045" cx="55.2" cy="33.6" r="3.3"/>
	<circle fill="#404045" cx="10.3" cy="33.6" r="3.3"/>
</g>
</svg>
