<?xml version="1.0" encoding="utf-8"?>
<!-- Generator: Adobe Illustrator 18.1.1, SVG Export Plug-In . SVG Version: 6.00 Build 0)  -->
<!DOCTYPE svg PUBLIC "-//W3C//DTD SVG 1.1//EN" "http://www.w3.org/Graphics/SVG/1.1/DTD/svg11.dtd">
<svg version="1.1" id="_x2014_ÎÓÈ_1" xmlns="http://www.w3.org/2000/svg" xmlns:xlink="http://www.w3.org/1999/xlink" x="0px"
	 y="0px" viewBox="0 0 212.6 180" enable-background="new 0 0 212.6 180" xml:space="preserve">
<g>
	<path fill="#29292F" d="M146.2,98.8C146.2,98.8,146.2,98.8,146.2,98.8C146.2,98.8,146.2,98.8,146.2,98.8
		C146.2,98.8,146.2,98.8,146.2,98.8C146.2,98.8,146.2,98.8,146.2,98.8z"/>
	<path fill="#29292F" d="M167.3,13.8c-0.9-1.2-2-2.2-3.5-2.4c-0.1,0-1.2-0.4-1.8-0.4c-5-0.3-8.2,2.5-9.9,3.8
		c-1.5,1.1-2.5,2.5-3.7,3.8c-0.1,0.1,0,0.2,0,0.4c0.5,0.2,0.7-0.1,0.9-0.4c0.2-0.3,0.4-0.7,0.6-0.8c0.6-0.1,0.9-0.4,1.1-1
		c0.1-0.3,0.4-0.5,0.6-0.7c0.5-0.3,1-0.3,1.4-0.6c0.4-0.3,0.7-0.7,1.1-1.1c0.1-0.1,0.3-0.2,0.5-0.2c0.8-0.3,1.6-0.6,2.3-0.9
		c0.7-1.2,1.5,0,2.3-0.1c0.1,0,0.3,0,0.4-0.1c0.5-0.1,1,0,1.4,0.2c0.7,0.3,0.7,0.2,1.4-0.3c0.2,0.1,0.4,0.2,0.5,0.3
		c0.2,0.2,0.4,0.4,0.6,0.5c0,0,0,0,0,0c0,0,0,0,0,0c0.5,0.5,0.5,0.5,0.1,1.4c-0.3-0.2-0.6-0.4-0.3-0.9c0.1-0.2,0.2-0.4,0.2-0.5
		c0,0,0,0,0,0c0,0,0,0,0,0c-2.1,0.6-4.1,1.9-4.6,3.3c0.2-0.2,0.4-0.3,0.5-0.4c0.8-0.6,1.7-1.2,2.5-1.7c0.5-0.3,0.8-0.1,1.1,0.3
		c0.4,0.5,0.4,1.1-0.1,1.6c-0.4,0.4-0.9,0.7-1.4,1c0.1,0.9-0.7,1.3-1.3,1.9c-0.4-0.1-0.8-0.1-1.4-0.2c0.7,0.7,1.2,1.3,1.7,1.7
		c-0.1,0.5-0.1,0.8-0.2,1.1c0,0,0,0,0,0c0,0,0,0,0,0c0.2,0,0.4,0,0.7-0.1c0.1,0.4,0.2,0.7,0.4,1.2c-0.9-0.1-1.1-0.6-1.1-1.2
		c0,0,0,0,0,0c0,0,0,0,0,0c-0.7-0.7-1.5-1.4-2.4-2.2c0,0.5,0,0.8,0,1.1c-0.4,0.2-0.7,0.5-1,0.7c-0.3,0.2-0.7,0.2-1.1,0.3
		c0.1,0.3,0.2,0.7,0.3,1.1c-0.4,0.2-0.7,0.4-1,0.6c-0.5-0.3-1-0.5-1.4-0.8c-0.8,0.6-1.5,1.1-2.2,1.6c-0.3-1.8,0.6-4.1,1.8-5.1
		c-0.2,0.5-0.3,0.9-0.4,1.4c-0.1,0.5-0.3,1,0.1,1.4c0.5,0.4,1,0,1.5-0.3c0,0,0.1,0,0.1-0.1c1.2-0.9,2.2-2,3-3.2
		c0.1-0.2,0.2-0.5,0.2-0.7c-0.7-0.3-1,0-1.2,0.5c-0.2,0.7-0.6,1.2-1.1,1.7c-0.6,0.6-1.2,1.1-2.1,1.3c-0.1-1.5,1.1-2.5,1.3-3.9
		c-0.6,0.4-0.8-0.1-1.3-0.2c-0.9,1.5-2.1,2.8-2.5,4.5c-0.3,1.7-1.1,3.2-1.3,5c-0.4,0.1-0.8,0.6-1.5,0.3c0.8-1.8,1.9-3.4,2-5.4
		c-0.3,0.5-0.5,1.1-0.8,1.6c-0.6,1.3-1.3,2.5-2,3.8c-0.3,0.5-0.6,1-0.3,1.5c0.8,0.3,1.5,0.5,2.2,0.8c0.1,0,0.1,0.2,0.2,0.4
		c-0.3,0.2-0.6,0.4-0.9,0.7c-0.5-0.4-0.9-0.8-1.4-1.1c-0.1-0.1-0.3,0-0.6-0.1c0.3,0.8,1.1,0.9,1.3,1.7c-0.5,0.4-1,0.8-1.5,1.3
		c-0.4-0.4-0.7-0.7-1.1-1c-0.1,0.3-0.1,0.6,0,0.8c0.1,0.3,0.3,0.5,0.4,0.8c-0.8,0.7-1.2,1.7-2.5,1.4c0,0.7-0.1,1.3-0.9,1.5
		c-0.2,0.1-0.3,0.4-0.5,0.6c-0.1,0.2-0.3,0.5-0.4,0.5c-0.6,0.1-0.8,0.6-1.1,1c-0.2,0.3-0.5,0.4-0.9,0.7c-0.2-0.3-0.3-0.5-0.4-0.8
		c0.5-0.7,1-1.4,1.5-2c0.5-0.6,1.2-1.1,1.5-1.9c-0.7,0.6-1.3,1.2-1.9,1.8c-0.6,0.6-1,1.2-1.1,2c-0.6,0.6-0.7,1.4-0.9,2.1
		c-0.2,0-0.3-0.1-0.5-0.1c0,1.1-0.2,1.2-1,1c0.3-1.1,1.2-1.9,1.4-3.2c-1,0.3-1.2,1.1-1.6,1.7c-0.7,0.9-0.9,2-0.6,3.1c0,0,0,0,0,0
		c0,0,0,0,0.1,0c0.4,0,0.7,0.1,1.2,0.1c-0.6,0.6-0.9,0.1-1.2-0.1c0,0-0.1,0-0.1,0c0,0,0,0,0,0c-0.1,0-0.2,0-0.3,0
		c-0.1,0.6,0.8,0.8,0.5,1.5c-0.5,0.1-0.9-0.1-1.1-0.5c-0.2-0.7-0.7-0.8-1.3-1c-0.2,0-0.3-0.2-0.7-0.3c0.4-0.3,0.7-0.5,1.1-0.7
		c-0.2-0.3-0.3-0.4-0.4-0.6c-0.2-0.4-0.2-0.8,0.1-1.1c0.2-0.2,0.6-0.2,1-0.2c0.3,0,0.5,0.1,1,0.3c-0.2-0.4-0.3-0.7-0.5-0.9
		c-0.2-0.2-0.4-0.4-0.6-0.6c0.4-1.1,1.2-0.2,1.8-0.6c-0.3-0.4-0.6-0.7-0.8-1c0.2-0.9,0.9-1.1,1.6-1.1c-0.1-0.9,0-1.5,0.5-1.8
		c0.2-0.1,0.5-0.1,0.8-0.2c0.1,0,0.1-0.2,0.3-0.4c-0.3-0.2-0.5-0.4-0.8-0.5c0-0.3,0-0.6,0-0.9c-0.4,0.5-0.9,1-1.3,1.6
		c-1.5,2.3-2.9,4.6-4.4,6.9c-0.5,0.7-0.9,1.5-1.5,2.4c-0.9,0.1-1.7,0.8-2.4,1.5c-1,1-1.9,2.1-2.9,3.2c-0.7,0.8-1.3,1.6-1.8,2.6
		c-0.2,0.5-5.3,4.9-6,5.7c-0.8,1-2,1.3-3.1,1.7c-1,0.4-1.9,0-2.9,0.1c-1.6,0.3-3.2,0.6-4.8,0.9c-0.2,0-0.4,0.1-0.5,0.2
		c-0.3,0.2-0.7,0.3-0.8,0.7c0.8-0.1,6.2-0.7,6.8-0.6c1.4,0.2,11,0,16.3,6.7c1.1,1.4,2.1,2.9,2.8,4.5c1,2.2,1.4,4.5,0.5,6.8
		c-0.2,0.5,0,3.4-8.7,13.1c-0.5,0.6-10.6,9.9-11.7,10.3c-0.3,0.9-11.3,10.2-20.6,16.5c-1,0.7-7.3,3.7-9.4,4.6
		c-1.6,0.7-9.7,4-12.3,4.5c-1.3,0.2-8.3,1.8-9.9,1.5c-0.6-0.1-4.6-1.3-4.9-1.5c-0.8-0.5-1.5-1.1-2.3-1.6c-0.3-0.2-0.5-0.5-0.9-0.6
		c-0.7-0.2-1.1-0.7-1.4-1.4c-0.7,0.2-1.1-0.1-1.3-0.7c-0.2-0.8-0.1-1.5,0.3-2.4c0.4,0.7-0.3,1.7,0.9,2.1c0-0.3,0-0.5-0.1-0.7
		c-0.2-1.4,0-2.7,0.7-3.9c0.3-0.5,0.5-0.9,0.8-1.4c0.1-0.3,0.1-0.6,0.2-1c-0.7,0.3-0.8,1-1.2,1.5c-1.2,1.5-1.9,3.2-2.3,5.1
		c0,0.2-0.2,0.5-0.3,0.7c-0.7,0.8-1.4,1.6-2.1,2.4c-0.2,0.2-0.3,0.5-0.6,1c0.6-0.4,0.9-0.7,1.3-1c0.1,0.1,0.1,0.2,0.1,0.2
		c-0.4,1.2-1.5,1.7-2.2,2.6c0,0-0.1-0.1-0.4-0.2c0.4-0.9,0.7-1.8,1.1-2.7c0.4-0.9,1.2-1.5,1.4-2.7c-0.9,0.7-1.1,1.8-2,2.1
		c0.3-0.7,0.8-1.2,1.1-1.9c0.4-0.7,0.9-1.3,0.8-2.4c-0.3,0.5-0.5,0.7-0.6,0.9c-0.4,0.6-0.7,1.3-1,1.9c-0.1,0.1-0.4,0.1-0.6,0.2
		c0-0.8,0.7-1.2,0.5-2c-0.7,0.6-0.7,1.6-1.6,2.1c0.3-0.8,0.6-1.5,0.9-2.4c-0.8,0-1.5,0.1-1.9,0.1c-0.7-0.6-1.1-1.1-1.6-1.3
		c-1.1-0.5-2.2-0.7-3.4-0.4c-1.1,0.3-2.1,0.7-3.2,1c0,0-0.2,0-0.3-0.1c-0.7-0.7-1.5-0.7-2.4-0.6c-1.4,0.2-2.8,0.3-4.2,0.4
		c-0.2,0-0.4,0-0.7,0.1c-2.6,0.5-3.8,3.9-2.2,5.9c0.3,0.3,0.7,0.6,1,0.8c0.3,0.2,0.6,0.4,1,0.6c-0.5,0.4-0.5,1-1.1,1.1
		c-1.8-1.3-4.4-1.2-5.8,0.4c-1.2,1.4-2.2,2.9-2,4.8c0,0.1-0.1,0.1-0.2,0.2c-0.4,0.1-0.8,0-1.2,0.2c-1,0.3-1.9,0.7-2,2
		c-0.1,0.8-0.4,1.5-1.1,2.2c-1.3,1.2-1.7,2.8-1.5,4.5c0.1,1.2,0.6,1.6,1.9,1.7c1.4,0.1,2.9,0.1,4.2-0.5c0.7-0.3,1.4-0.3,2.1-0.2
		c0,1-1.2,0.9-1.3,1.7c-0.2,0.9-1.2,1-1.5,1.7c-0.4-0.1-0.7-0.1-1-0.2c-0.1,0.4-0.1,0.7-0.2,1.2c-1.2-1.1,0.2-1.6,0.4-2.4
		c-0.2-0.1-0.4-0.2-0.6-0.3c0.1-0.3,0.2-0.6,0.3-0.8c-0.9,0.4-1.4,1-1.9,1.7c-0.2,0.4-0.2,0.8-0.1,1.3c0.3,0.8,0.9,1.2,1.7,1.3
		c1.8,0.2,3.6-0.2,5.1-1.1c1-0.6,1.9-0.7,2.9-0.5c0.2,0,0.4,0.1,0.7,0.1c1,0,2.1,0.1,3-0.2c1.7-0.4,3.2-1.3,4.7-2.1
		c0.2-0.1,0.5-0.1,0.8-0.2c-0.4,1.1-0.3,2,0.5,2.7c0.2,0.2,0.3,0.5,0.5,0.9c-0.5-0.1-0.9-0.2-1.2-0.3c0.3,0.4,0.7,0.7,1.1,0.8
		c1.1,0.5,2.4,0.7,3.6,1.1c1.1,0.3,2.1,0.3,3.2,0c1-0.3,1.6-0.6,1.8-1.7c0.1-0.7,0.5-1.3,0.7-2c0.1-0.3,0.2-0.6,0.2-0.9
		c0-0.3,0-0.6-0.5-0.6c-0.2,1.2-0.3,2.3-1.2,3.6c0.3-1.3,0.5-2.3,0.7-3.2c-0.4-0.3-0.8-0.4-0.9-0.6c-1-1.4-2.4-1.9-4-2
		c-0.1,0-0.2-0.1-0.5-0.1c0.3-0.6,0.5-1.2,0.8-1.8c-1.3,0.1-1.3,0.1-1.4,1.3c0,0.6-0.2,0.8-1.1,0.7c0-0.9,1.2-1.6,0.6-2.7
		c-1.2,0-0.6,1.5-1.6,1.9c-0.1-0.8-0.2-1.5-0.3-2.3c-0.7,0.2-1.1,1.1-2.1,0.9c0.4-0.5,0.8-0.9,1.2-1.4c-0.3-0.2-0.6-0.4-0.9-0.5
		c-1.3,0.4-1.7,1.9-2.9,2.4c0.5-0.7,1.3-1.3,1.6-2.1c0.3-0.8,1-1.1,1.6-1.4c0.4-0.2,0.9-0.4,1.2-0.7c0.5-0.4,1.1-0.8,1.5-1.3
		c0.6-0.6,1.4-0.8,2.3-1.2c0,0.3,0,0.5,0,0.6c-0.2,0.8,0.1,1.3,0.8,1.8c2.2,1.7,4.7,1.7,7.3,1.2c2.9-0.6,5.4-2.3,7.8-3.9
		c0.2-0.1,0.3-0.3,0.6-0.5c-0.4-0.4-0.7-0.6-0.9-0.8c-0.5,0.4-0.6,1.1-1.3,1.4c-0.1-0.8,0.7-1.2,0.4-2c-0.8,0.8-1,1.9-1.8,2.6
		c0-0.4,0.2-0.8,0.3-1.2c0.2-0.5,0.3-0.9-0.1-1.2c-0.7,0.2-0.2,1.2-1,1.2c-0.1-0.3-0.3-0.6-0.4-0.9c0-0.1-0.2-0.1-0.4-0.2
		c-0.1,0.3-0.2,0.5-0.3,0.8c-0.4,0.1-0.8,0.2-1.2,0.2c-0.6-0.6-1.2-1.1-1.8-1.7c0.3-0.1,0.4-0.2,0.6-0.3c1.1-0.3,2.1-0.6,3-1.4
		c0.6-0.5,1.4-0.8,2.2-0.4c0.5-1,1.3-1.2,2.2-1.4c1.3-0.2,2.6,0,4,0.1c0.3,0,0.5,0.1,0.8,0.2c0.5,0.2,1,0.6,1.6,0.7
		c1.7,0.3,3.3,0.5,5,0.7c0.9,0.1,1.9,0.4,2.8,0c0.1-0.1,0.3,0,0.5,0.1c1.2,0.2,2.4,0.5,3.6-0.2c0.1-0.1,0.3-0.1,0.4,0
		c1.1,0.5,2.1,0.2,3.2-0.2c1.4-0.5,24.9-7.7,26.7-8.3c3.1-1.1,6.3-2.3,9.5-3.3c2.5-0.8,5-1.8,7.8-1.7c0.3,0,0.6-0.1,0.9-0.2
		c0.9-0.4,1.9-0.7,2.6-1.5c0.4-0.4,1-0.8,1.5-1c1.8-0.6,3.6-1.2,5.5-1.7c0.4-0.1,0.8,0,1.1,0c1-1.4,2.6-1.1,4-1.4
		c0.3-0.3,0.8-0.6,1.1-1c0.3-0.5,0.5-0.9,1-1.1c0.1,0.5-0.9,0.9,0.1,1.4c0.8-0.7,0.9-2.2,2.5-2.3c-0.3,0.5-0.6,0.8-0.8,1.1
		c-0.1,0.2,0,0.4,0.1,0.9c0.5-0.6,1-1,1.3-1.6c0.2-0.5,0.5-1,1.4-0.9c-0.4,0.6-0.8,1-1.1,1.4c0.2,0.4,0.5,0.6,0.8,0.2
		c0.3-0.3,0.5-0.7,0.7-1.1c0.3-0.6,0.8-1.2,1.4-1.5c0.7-0.4,1.4-0.7,1.9-1.2c0.3-0.3,0.8-0.6,1.4-0.3c-0.6,0.3-1.1,0.6-1.5,0.8
		c-0.6,0.4-0.6,0.7-0.4,1.5c0.5-0.2,1-0.5,1.3-1.1c0.2-0.4,0.5-0.7,0.8-1c0.1-0.1,0.2-0.1,0.3-0.1c0.3,0.2,0.7,0.4,0.9,0.6
		c0.7-0.5,0.1-1,0.2-1.5c0.3-0.2,0.7-0.5,1-0.8c0.3-0.3,0.7-0.7,1-1.1c-0.2-0.9,0.5-2.5,1.4-3.3c0,0.3,0,0.7,0,1
		c-0.5,0.6-0.5,0.7-0.1,1.1c0.1-0.4,0.1-0.7,0.2-1.1c0.5-1,1.1-2.1,1.6-3.1c0.6-1.3,1.2-2.5,2.6-3c0.4-0.2,0.9-0.4,1.2-1.1
		c-0.8,0.4-1.4,0.7-2,1.1c-0.1-0.2-0.2-0.4-0.3-0.5c-0.6,0.8-1.2,1.4-1.8,2.1c0,0.1,0.2,0.2,0.2,0.3c-0.3,0.6-0.6,1.2-0.8,1.8
		c-0.2-0.1-0.4-0.1-0.6-0.2c-0.5,0.6-0.8,1.5-1.9,1.7c0-0.4,0.1-0.7,0.1-0.9c-0.3,0.4-0.6,0.7-0.9,1.1c0,0,0,0,0,0c0,0,0,0-0.1,0
		c-0.1,0.3-0.3,0.7-0.4,1c-0.1,0-0.2-0.1-0.3-0.1c0.1-0.4,0.3-0.7,0.6-0.9c0,0,0,0,0-0.1c0,0,0,0,0,0c-0.1-0.1-0.2-0.3-0.2-0.4
		c-1.1,0.5-1,2-2.2,2.6c0-0.4,0.1-0.7,0.1-1c-0.5,0.7-1.2,2.2-1.3,3c-0.1,0.4-0.2,0.8-0.4,1.1c-0.2,0.4-0.2,0.4-1,0.2
		c-0.2-1.8,0.4-3.4,1.9-4.5c-0.1-0.1-0.3-0.2-0.3-0.3c0.1-0.4,0.2-0.7,0.4-1.1c-0.9,0.6-1.1,1.8-2.1,2.5c0.1-0.4,0.1-0.7,0.1-1
		c-0.6,0.9-1.2,1.8-1.5,2.9c-0.1,0.5-0.3,0.9-0.6,1.3c-0.1,0.2-0.5,0.3-0.8,0.5c0-0.3-0.1-0.6,0-0.7c0.6-0.8,0.7-1.8,1.2-2.6
		c0.4-0.9,0.9-1.7,1.3-2.6c0.1-0.2,0.2-0.5,0.3-0.7c0.1,0.1,0.2,0.1,0.4,0.2c-0.1,0.5-0.2,1-0.2,1.4c0.6-1.2,1.4-2.3,1.5-3.7
		c0,0,0,0,0,0c0,0,0,0,0,0c0,0,0,0,0,0c-0.2,0.2-0.4,0.5-0.5,0.7c-0.3,0.5-0.5,1-1.2,1c-0.2,0-0.4,0.2-0.6,0.4
		c-0.1-0.3-0.3-0.7-0.3-0.9c0.2-0.7,0.6-1.3,0.9-1.9c0.1-0.2,0.5-0.4,0.7-0.6c-0.1,0-0.3,0-0.5,0c0-0.6,0.1-1.1,0.5-1.4
		c0.7-0.5,1.4-0.9,2.3-1.2c-0.1,0.6-0.3,1-0.7,1.3c-0.3,0.2-0.5,0.5-0.8,0.7c0.2,0,0.3,0,0.6-0.1c-0.2,0.6-0.3,1.2-0.5,1.8
		c0,0,0,0,0,0c0.4-0.6,0.8-1.3,1.1-1.9c0.3-0.5,0.6-0.9,1.2-1.1c0.3-0.1,0.6-0.3,0.9-0.5c0.2-0.1,0.5-0.1,0.8-0.1
		c-0.5,1.2-0.8,2.2-1.7,3c0.2,0.2,0.3,0.3,0.5,0.6c0.9-1.8,1.8-3.6,2.6-5.3c0-0.1,0-0.1-0.1-0.3c-0.8,1.3-2,1.9-3.5,2.2
		c0.3-1.4,1.4-2.5,1.5-3.9c-0.5,0.6-0.9,1.3-1.2,2c-0.5,1-1.4,1.4-2.4,1.8c-0.2,0.1-0.5-0.1-0.5-0.1c-0.6,0.5-1.1,0.9-1.6,1.3
		c-0.2,0.1-0.3,0.3-0.5,0.5c0.2-0.1,0.5-0.1,0.8-0.2c-0.1,0.9-0.4,1.5-1,2c-0.2,0.2-0.4,0.4-0.6,0.6c0,0,0,0,0,0
		c0.2,0,0.4-0.1,0.7-0.2c-0.3,1-0.5,1.9-1.5,2.5c0.2-0.9,1-1.5,0.8-2.4c0,0,0,0,0,0c0,0,0,0,0,0c0,0,0,0,0,0
		c-0.2,0.1-0.5,0.2-0.8,0.3c-0.1-1.3,0.5-2.1,1.4-2.7c-0.2,0-0.3,0-0.7,0c0.7-1.7,1.3-3.2,2-4.7c-0.3,0.1-0.5,0.3-0.6,0.5
		c-0.5,1.3-1.1,2.5-1.6,3.8c-0.3,0.8-0.7,1.4-1.6,1.5c0-0.3,0-0.5,0-0.7c0,0,0,0,0,0c-0.2,0.3-0.4,0.7-0.6,1
		c-0.1,0.2-0.3,0.3-0.6,0.4c0.1-0.9,0.6-1.7,1.1-2.5c0,0.4,0,0.7,0.1,1.1c0,0,0,0,0,0c0,0,0,0,0,0c0,0,0,0,0,0
		c0.6-0.7,0.7-1.6,1.1-2.5c0.4-1,0.9-2,1.4-3c0.1-0.2,0.1-0.3,0.1-0.7c-0.3,0.4-0.5,0.6-0.7,0.8c0,0-0.1-0.1-0.1-0.1
		c0.5-1.4,2.9-3.3,1.7-10.7c-1.1-7-3.8-10.5-4.4-11.9c-0.6-1.2-1.4-2.4-2.2-3.5c-0.4-0.6-3.4-4.5-2-9.2c0.2-0.7,3.6-4.5,3.8-4.7
		c1.1-1.2,2.3-2.2,3.7-3c0.4-0.2,0.8-0.3,1.2-0.6c1.4-0.9,2.8-1.9,4.2-2.8c0.7-0.5,1.4-0.9,2.1-1.4c2-1.2,4.1-2.3,6.1-3.6
		c1-0.6,1.9-1.3,2.8-2.1c1.7-1.6,3.4-3.4,5.1-5.1c1.4-1.5,2.7-3.1,3.7-4.9c0.1-0.2,0.3-0.6,0.2-0.7c-0.4-0.7,0.1-1.1,0.5-1.4
		c0.6-0.4,0.7-0.9,0.9-1.5c0.2-0.8,0.1-1.6,0.2-2.4C169.4,16.6,168.4,15.2,167.3,13.8z M34.9,144.2c0.2-0.2,0.4-0.4,0.6-0.5
		c0,0,0,0,0,0c0-0.1,0-0.1,0-0.2c-0.1-0.4-0.1-0.8-0.2-1.1c0,0,0.1,0,0.1,0c0,0.4,0,0.8,0,1.2c0,0.1,0,0.1,0,0.2c0,0,0,0,0,0
		c0,0.4-0.1,0.7-0.1,1.2c0.2-0.1,0.4-0.1,0.7-0.2c-0.1,0.5-0.1,1-0.2,1.5c0.8-0.6,0.8-0.6,1.1-3.6c0.7,1.5-0.2,2.8-0.4,4.3
		c0.4-0.3,0.5-0.4,0.7-0.5c-0.1,1.5-0.9,1.6-2,1.2c-1.6-0.6-2.3-2.5-1.4-4.1C34.2,143.6,34.5,143.9,34.9,144.2z M32.6,139.4
		c0.1,0,0.2,0.1,0.3,0.1c-0.1,0.2-0.3,0.5-0.4,0.7c-0.1,0-0.1-0.1-0.2-0.1C32.4,139.9,32.5,139.7,32.6,139.4z M30.2,140.6
		c0.1-0.3,0.2-0.5,0.4-0.8c0.1,0,0.2,0.1,0.3,0.1c-0.1,0.3-0.3,0.6-0.5,1C30.3,140.8,30.2,140.7,30.2,140.6z M29.8,142.2
		c0.1,0,0.1,0,0.2,0.1c-0.1,0.2-0.2,0.5-0.3,0.7c-0.1,0-0.1,0-0.2-0.1C29.7,142.7,29.8,142.4,29.8,142.2z M41.3,124.4
		c0.1,0,0.1,0.1,0.2,0.1c-0.1,0.2-0.2,0.4-0.3,0.6c-0.1,0-0.1-0.1-0.2-0.1C41.1,124.8,41.2,124.6,41.3,124.4z M41.8,126
		c-0.1,0.2-0.2,0.5-0.3,0.7c-0.1,0-0.1,0-0.2-0.1c0.1-0.2,0.2-0.5,0.3-0.7C41.7,125.9,41.7,125.9,41.8,126z M35.8,119
		c1.2-0.3,2.3-0.6,3.5-0.2c0.4,0.1,0.9,0.2,1,0.8c-0.2,0-0.4,0-0.7,0c-0.2,0.9,0.1,2.1-0.9,2.8c-0.2-0.2-0.3-0.4-0.5-0.6l0,0
		c0,0,0,0,0,0c0,0,0,0,0,0c-0.4-0.6-0.7-1.2-1.1-1.8c-0.1,0.2-0.4,1-0.4,1.2c-0.9,0.3-1.7-0.2-2.6-0.2C34.2,120,34.7,119.3,35.8,119
		z M40.7,129.8c-0.2-0.9,0.2-1.3,0.6-1.7C41.4,128.6,41.4,128.6,40.7,129.8z M41.7,133.2c-0.8-0.4-0.6-1-0.8-1.4
		C41.6,131.9,41.5,132.5,41.7,133.2z M39.2,131.8c0.5,0,0.7,0.3,0.7,0.8c-0.4-0.1-0.8-0.2-1.3-0.3C38.9,132.1,39,131.8,39.2,131.8z
		 M38.2,129.4c0,0-0.1,0-0.1-0.1c0.1-0.2,0.2-0.3,0.3-0.5c0.1,0,0.1,0.1,0.2,0.1C38.4,129.1,38.3,129.2,38.2,129.4z M25.4,123.1
		c0.4-1,0.8-1.9,1.8-2.1c0.4-0.1,0.9-0.1,1.3-0.1c1,0,2-0.1,2.8-0.6c0.3-0.2,0.5-0.5,0.3-0.9c-0.1,0-0.2-0.1-0.3-0.1
		c-1,0.7-2,0.9-3.2,0.6c-1-0.2-1.9-0.1-2.8,0.5c-0.1,0.1-0.2,0.1-0.5,0.1c0.4-0.5,0.8-0.8,1.3-0.9c1.8-0.2,3.6-0.4,5.4-0.7
		c0.7-0.1,1.2,0.2,1.5,0.8C31.3,121.7,28.5,123.4,25.4,123.1z M29.4,128c0.1,0.6,0.2,1.2,0.1,1.8c-0.1,0.5,0.1,1.2-0.5,1.5
		c-0.2-0.7-0.3-2.3-0.2-3.6C29,127.8,29.4,127.9,29.4,128z M26,127.8c0.6-0.3,1.3-0.4,2-0.6c0.4,1.8,0.4,2.7,0,3.9
		c-1,0.6-1.5-0.4-2.3-0.6c-0.4-0.1-0.5-0.6-0.6-1C24.9,128.6,25.1,128.2,26,127.8z M19.3,128.1c1-1.1,2.8-1.5,4.3-0.9
		c0,0.2-0.1,0.4-0.1,0.6c-0.1,0.2-0.2,0.4-0.3,0.6c-0.2-0.1-0.4-0.2-0.7-0.4c-0.1,0.6-0.3,1.2-0.4,1.8c0,0-0.1,0-0.1,0
		c0-0.5,0-1.1,0-1.8c-0.6,0.5-0.5,1.2-0.6,1.7c-0.1,0.5-0.3,1-0.5,1.8c-0.1-1,0.2-1.8-0.3-2.7c-0.1,0.4-0.3,0.6-0.3,0.8
		c0,1-0.1,2-0.3,3.3c-0.5-1,0-2-0.7-3c-0.1,0.7-0.1,1.1-0.1,1.5c-0.2,0-0.5,0-0.7,0.1c-0.2,0.1-0.3,0.4-0.4,0.7
		C17.5,131.2,18,129.6,19.3,128.1z M25.6,137.6c0.2,0.9-0.4,1.1-0.7,1.6c-0.3,0.4-0.5,1-1.3,1.4C24.2,139.3,24.9,138.6,25.6,137.6z
		 M18.8,138.7c-0.9,0.2-0.8,1-1.1,1.6c-0.1,0.3-0.2,0.6-0.4,0.9c-0.3-0.1-0.5-0.2-0.8-0.3c-0.1,0.3-0.3,0.6-0.5,1.1
		c-0.1-0.3-0.1-0.5-0.2-0.7c-0.1,0-0.1-0.1-0.2-0.1c-0.1,0.3-0.2,0.7-0.3,1c-0.4-0.2-0.6-0.4-0.8-0.5c-0.2,0.3-0.4,0.7-0.5,1
		c-0.7,0-0.8-0.6-1.1-0.8c0.7-1.4,1.1-1.6,2.4-1.3c0.6,0.2,1,0.1,1.4-0.4c0.3-0.4,0.7-0.7,0.9-1.1c0.1-0.2,0.1-0.5,0.2-0.8
		c-1.1-0.3-1.7,0.8-2.6,0.9c-0.9,0.1-1.8,0.4-2.7,0.7c0.2-1,1.1-1,1.7-1.2c0.6-0.2,1.1-0.4,1.7-0.6c1-0.4,2.1-0.5,3.3,0
		C19,138.3,19,138.7,18.8,138.7z M18.9,136.1c0.1-0.9,0.1-1.4,0.2-2c0,0,0,0,0,0c-0.2,0.3-0.4,0.6-0.6,1c-0.2,0.4-0.4,0.9-0.8,1.3
		c0-0.3,0-0.7,0-1.2c-0.4,0.3-0.6,0.5-0.8,0.7c-0.1-0.2-0.3-0.3-0.5-0.6c-0.2,0.3-0.4,0.6-0.7,0.9c-0.4-0.5-0.7-0.9-1-1.3
		c0.2-0.9,0.5-1.3,1.4-1.4c1.1-0.1,2.1-0.1,3,0.7c0,0,0,0,0,0c0,0,0,0,0,0c0,0,0,0,0,0c0.2,0,0.5,0.1,0.8,0.2
		C19.6,134.9,19.3,135.4,18.9,136.1z M20.3,142.9c0.7-0.3,0.7-0.3,1.1,0.6C20.9,143.2,20.6,143.1,20.3,142.9z M19.7,135.8
		c0.2-0.4,0.5-0.8,0.7-1.2C20.5,135.2,20.2,135.6,19.7,135.8z M25.6,142.8c-0.8,0.5-1.5,0.9-2.3,1.4c0,0.2-0.1,0.6-0.2,0.9
		c-0.5,0-0.7-0.1-0.8-0.6c-0.1-0.9,0.5-1.9,1.3-2.3c0.8-0.3,1.5-0.7,2.3-1c0.3-0.1,0.6-0.1,0.9-0.1c0.3,0,0.7,0.1,1.1,0.3
		C27.3,142.4,26.3,142.4,25.6,142.8z M27.4,139.9c0-0.5,0.1-0.8,0.9-0.6C27.8,139.6,27.6,139.8,27.4,139.9z M27.6,136.5
		c-0.3-0.2-0.6-0.5-0.8-0.7c-0.2,0.2-0.3,0.4-0.4,0.6c-0.9-0.3-0.9-1.2-1.6-1.7c0.7-0.4,1.1,0.3,1.7,0.3c0.7-0.4,1.5-0.6,2.5,0
		c0,0.2-0.1,0.6-0.1,1c-0.2-0.1-0.4-0.2-0.6-0.4C28,135.9,27.9,136.2,27.6,136.5z M28.7,138.5c-0.1-0.9-0.1-0.8,0.9-1
		C29.4,137.9,29.2,138.3,28.7,138.5z M31.5,134.7c-0.4,0.2-0.7,0.5-1.2,0c-0.2,0.2-0.3,0.4-0.5,0.6c-0.1-0.1-0.2-0.2-0.2-0.3
		c0.1-0.4,0.2-0.7,0.3-1.1c-0.3-0.7-0.9-0.6-1.4-0.6c-0.6,0-1.3-0.2-1.9-0.3c-0.1,0-0.3-0.2-0.5-0.4c0.9-0.4,1.6-0.7,2.5-0.3
		c0.5,0.2,1,0.4,1.5,0.5C31,133.1,31.5,133.7,31.5,134.7z M30,131.2c0-0.2-0.1-0.4,0-0.6c0.1-0.8,0.1-1.6,0.2-2.4
		c0-0.3,0-0.3,0.8-0.4C30.8,129,30.6,130.1,30,131.2z M31.5,128.8c0,0-0.1,0-0.1,0c0-0.3,0-0.5,0.1-0.8c0,0,0.1,0,0.1,0
		C31.6,128.3,31.5,128.5,31.5,128.8z M32.5,125.2c0,0-0.2-0.1-0.2-0.1c0.1-0.2,0.2-0.4,0.3-0.5c0.1,0.1,0.2,0.1,0.3,0.2
		C32.8,124.9,32.7,125,32.5,125.2z M31.5,123.6c0.4-1.4,1.6-1.3,2.5-1.6c0.7-0.2,1.5-0.1,2.2,0.5C34.5,122.9,33,123.3,31.5,123.6z
		 M37,123.2c0.5,0.7,0.5,1-0.2,1.5C36.9,124.1,36.9,123.8,37,123.2z M41.2,136.2c-0.9-0.2-1.9-0.4-2.7-1.1c-0.3-0.3-0.5-0.6-0.4-1
		c1.3-0.5,1.3-0.5,3.4,0.6c0.1,0.3,0.1,0.6,0.3,1.1c0.2-0.6,0.3-0.9,0.5-1.3C42.7,135.5,42.1,136.4,41.2,136.2z M42.3,133.1
		c-0.1-0.3-0.2-0.4-0.2-0.5c0-0.1,0-0.3,0-0.6C42.5,132.5,42.5,132.5,42.3,133.1z M41.7,130.1c0.4-0.7,0.7-1.3,1-2
		C43,129.1,42.7,129.9,41.7,130.1z M43.9,132.8c-0.1,0-0.1,0-0.2,0c0.1-0.4,0.1-0.7,0.2-1.1c0.1,0,0.1,0,0.2,0
		C44.1,132.1,44,132.4,43.9,132.8z M42.9,124.6c-0.1-0.1-0.3-0.2-0.4-0.3c0.2-0.1,0.4-0.2,0.8-0.4C43.1,124.2,43,124.4,42.9,124.6z
		 M45.2,132.7c0.1,0,0.1,0,0.2,0c0,0.2-0.1,0.4-0.1,0.6c-0.1,0-0.1,0-0.2,0C45.1,133,45.2,132.9,45.2,132.7z M45,127.9
		c0-0.6,0.2-0.9,0.7-0.7C45.6,127.4,45.4,127.6,45,127.9z M46.9,127.9C46.9,128,46.9,128,46.9,127.9c0.2,0,0.4,0,0.7,0
		c-0.2,0.6-0.5,0.7-1.1,0.8C46.7,128.4,46.8,128.2,46.9,127.9C46.9,128,46.9,128,46.9,127.9C46.9,128,46.9,128,46.9,127.9
		c-0.1-0.1-0.2-0.3-0.2-0.3c0.3-0.5,0.6-0.9,1-1.3c0.1,0.1,0.1,0.1,0.2,0.2C47.6,127,47.3,127.4,46.9,127.9
		C46.9,127.9,46.9,127.9,46.9,127.9z M47.7,125.1c-0.4,0.5-0.7,1.1-1.9,1.1c1-1.2,2-2.2,3-3.2C48.8,124,48.1,124.5,47.7,125.1z
		 M48.5,127.2c0.4-0.6,0.9-1.1,1.3-1.8C49.9,126.2,49.6,126.6,48.5,127.2z M48.4,125.8c0-0.8,0.3-1.3,1.2-1.6
		C49.6,125.1,49,125.4,48.4,125.8z M70.1,127.8c0.5-0.8,1.3-1.2,2.2-1.6C71.6,126.8,71,127.6,70.1,127.8z M75.5,126.5
		c0.6-0.9,1.3-1.4,2.1-1.7C77.1,125.6,76.8,126.5,75.5,126.5z M77.7,125.7c0.7-0.6,1.3-1.2,2-1.9C79.4,124.9,78.7,125.6,77.7,125.7z
		 M79.4,125.4c1.1-1.1,1.9-2.2,3.3-2.5c-0.5,0.5-0.9,0.9-1.4,1.4C80.9,124.7,80.6,125.5,79.4,125.4z M81.6,124.8
		c0.5-0.5,0.8-0.9,1.2-1.2c0.9-0.5,1.9-1,2.9-1.5C84.9,123.5,83.1,124.7,81.6,124.8z M87.7,123.1c-1.2-0.7-1.2-1.1-0.2-2.7
		c0.4,0.6-0.4,1-0.3,1.5c0.2,0,0.4,0.1,0.6,0.1C88,122.4,88.1,122.8,87.7,123.1z M89.1,122.2c-0.1-0.1-0.2-0.1-0.3-0.2
		c0-0.1,0.1-0.2,0.1-0.3c0.1,0.1,0.2,0.1,0.3,0.2C89.2,122,89.2,122.1,89.1,122.2z M90.6,122c-0.7-0.7-0.7-0.7-0.2-1.4
		C90.7,121,90.6,121.4,90.6,122z M92.6,121.4c-0.8-0.5-1.1-1.2-1.4-1.9c0-0.1,0.2-0.4,0.3-0.7C92,119.7,92.7,120.2,92.6,121.4z
		 M93.8,120.9c-0.2,0-0.5-0.2-0.5-0.4c-0.1-0.3-0.1-0.7,0.4-0.8c0.1,0.2,0.3,0.4,0.4,0.6C94.2,120.5,94.2,120.8,93.8,120.9z
		 M95.1,120.3c-0.4-0.6-0.5-1,0-1.5C95.7,119.7,95.7,119.7,95.1,120.3z M96.6,119.4c-0.1-0.2-0.1-0.5-0.3-0.8
		C96.8,118.9,96.8,118.9,96.6,119.4z M98.3,118.6c-0.1,0-0.3,0-0.3-0.1c-0.3-0.4-0.3-0.7,0.2-1c0.1,0.1,0.2,0.1,0.2,0.1
		C98.6,117.9,98.7,118.3,98.3,118.6z M98,114.3c-0.1,0-0.1-0.1-0.2-0.1c0.1-0.2,0.3-0.3,0.4-0.5c0.1,0,0.1,0.1,0.2,0.1
		C98.3,113.9,98.1,114.1,98,114.3z M99.9,118.5c-0.8-0.6-0.8-1.4-0.5-2.2C99.7,117,100.6,117.5,99.9,118.5z M100,114.6
		c-0.1,0-0.1,0-0.2,0c0-0.2,0-0.3,0.1-0.5c0,0,0.1,0,0.2,0C100,114.3,100,114.4,100,114.6z M101,118c0.4-0.5,0.7-0.8,1-1.2
		C102.4,117.7,102.4,117.7,101,118z M101.9,114.2c-0.4-0.4-0.6-0.7,0-1.1C101.9,113.6,101.9,113.9,101.9,114.2z M106.8,107.4
		c0.1,0,0.1,0,0.2,0c0,0.2-0.1,0.4-0.1,0.7c-0.1,0-0.1,0-0.2,0C106.7,107.8,106.7,107.6,106.8,107.4z M104.2,112.1
		c0.5,0.8,0,1-0.4,1.4C103.5,112.9,103.8,112.6,104.2,112.1z M103,116.9c-0.5-0.6-0.7-0.9-0.2-1.3C102.9,116,102.9,116.3,103,116.9z
		 M104.3,115.1c-0.7-0.7-0.7-0.8,0.2-1.5C104.8,114.3,104.7,114.7,104.3,115.1z M105.6,116.6c-0.4-0.5-0.3-1-0.2-1.5
		C105.8,115.5,106.2,115.9,105.6,116.6z M105.2,111.5c0.1-0.3,0.2-0.5,0.4-0.9c0.5,0.6,0.2,0.8-0.1,1
		C105.4,111.6,105.3,111.6,105.2,111.5z M106.6,116c0-0.3,0-0.6-0.1-0.8c0,0,0,0,0,0c0,0,0,0,0-0.1c-0.7-1-0.7-1-0.1-1.8
		c0,0,0.1,0,0.3,0c0,0.6-0.1,1.1-0.1,1.7c0,0,0,0,0,0c0,0,0,0,0,0c0.4-0.3,0.7-0.9,1.3-0.3C107.4,115.3,107,115.6,106.6,116z
		 M108.1,114.7c-0.2-0.5-0.4-1-0.7-1.7c0.7,0.1,1.2,0.2,1.8,0.3C109.1,114,109,114.6,108.1,114.7z M109.1,106.5
		c0,0.7,0.3,1.2-0.5,1.4C108.8,107.5,108.9,107.1,109.1,106.5z M110.3,113.6c-0.5-0.3-0.3-0.7-0.3-1.1c0,0,0,0,0,0c0,0,0,0,0,0
		c-0.2-0.1-0.4-0.1-0.4-0.2c-0.1-0.5,0-0.9,0.5-1.5c0,0.7,0,1.2-0.1,1.7c0,0,0,0,0,0c0,0,0,0,0,0c0.2,0.1,0.4,0.2,0.6,0.3
		C110.5,113.1,110.4,113.4,110.3,113.6z M110.9,112.3c-0.3-0.4-0.3-0.4,0.1-1.2C110.9,111.6,110.9,111.9,110.9,112.3z M110.8,105.7
		c0-0.2,0-0.4,0-0.5c0.1,0,0.1,0,0.2,0c0,0.2,0,0.4,0,0.5C110.9,105.7,110.8,105.7,110.8,105.7z M112.3,112.3
		c-0.7-0.9-0.7-1.1,0-2.1C112.5,111,112.6,111.6,112.3,112.3z M126.4,90.6c0.1,0,0.1,0,0.2,0c0.1,0.3,0.2,0.5,0.2,0.8
		c0,0-0.1,0.1-0.1,0.1c-0.1-0.1-0.3-0.2-0.3-0.4C126.3,91,126.4,90.8,126.4,90.6z M126,92.1c1.2,0.9,1.2,1.2,0.6,2.7
		C125.8,94,125.5,93.1,126,92.1z M124.3,92.9c0.6,0.7,0.1,1.1-0.1,1.7C123.7,94,124,93.5,124.3,92.9z M124,97.6
		c0.5,0.3,0.4,0.6,0.1,0.9C124.1,98.2,124.1,98,124,97.6z M122.4,95.6c0.6,0.6,0.6,0.6,0.2,1.5C122.3,96.6,122.3,96.6,122.4,95.6z
		 M122.8,99.8c0.5,0.7,0.5,1.2,0.1,1.9C122.7,101,122.6,100.5,122.8,99.8z M121.9,98.7c0,0.4,0,0.8,0,1.2
		C121.5,99.4,121.5,99.4,121.9,98.7z M121.4,103.6c0.3,0.6,0.3,0.9-0.2,1.2C120.7,104.2,121.1,104,121.4,103.6z M120.6,100.1
		c0.2,1.2,0.2,2.1-0.2,3.2C119.4,102,120,101.2,120.6,100.1z M119.4,103.2c1.2,1,0.3,1.8,0.1,2.7C119.3,105,119,104.2,119.4,103.2z
		 M118.4,101c-0.1,0.4-0.1,0.7-0.1,1c0,0,0,0,0,0c0,0,0,0.1,0,0.1c0.4,0.5,0.5,1.1,0,1.8c-0.6-0.7,0.2-1.2,0-1.8c0,0,0-0.1-0.1-0.1
		c0,0,0,0,0,0c-0.2,0.2-0.3,0.4-0.6,0.6C117.6,101.9,117.7,101.4,118.4,101z M119.4,107c0,0.2,0,0.4,0,0.6c-0.1,0-0.1,0-0.2,0
		c-0.1-0.2-0.1-0.4-0.2-0.6C119.2,107.1,119.3,107,119.4,107z M118.4,105.3c0.1,1.1-0.1,1.9-0.5,2.7
		C117.7,107.1,117.7,106.2,118.4,105.3z M117,98.5c0.1,0,0.1,0,0.2,0.1c-0.1,0.3-0.2,0.7-0.3,1c-0.1,0-0.2-0.1-0.3-0.1
		C116.8,99.2,116.9,98.9,117,98.5z M117.6,104c0.5,0.7,0.5,1.1-0.4,2.2C117,105.1,117,105.1,117.6,104z M116,103.1
		c0.1,0,0.2,0,0.3,0c-0.1,0.3-0.1,0.6-0.2,1c-0.1,0-0.1,0-0.2,0C115.9,103.7,115.9,103.4,116,103.1z M115.4,102.5
		c0.1,0,0.2,0.1,0.2,0.1c-0.1,0.2-0.2,0.5-0.3,0.7c-0.1,0-0.1-0.1-0.2-0.1C115.2,103,115.3,102.8,115.4,102.5z M115.7,108.7
		c-0.3-0.8-0.1-1.6,0.3-2.4C116.1,107.1,116,107.9,115.7,108.7z M115.1,105.1c0.1,0,0.2,0.1,0.3,0.1c-0.1,0.5-0.2,1-0.3,1.4
		C114.8,106.1,114.8,105.6,115.1,105.1z M113.3,101.4c0.1,0,0.2,0,0.3,0c0,0.3-0.1,0.5-0.1,0.8c-0.1,0-0.1,0-0.2,0
		C113.3,102,113.3,101.7,113.3,101.4z M112.3,105c-0.3-0.4-0.2-0.8,0.1-1.2C112.7,104.3,112.7,104.6,112.3,105z M122,111.7
		c-0.5,0.7-1,1.5-2.1,1c-0.1,0-0.3,0.2-0.5,0.4c-0.1-0.2-0.3-0.4-0.5-0.7c-0.2,0.4-0.4,0.7-0.6,1.1c-0.3-0.3-0.6-0.6-0.9-1.1
		c0.7-0.4,1.4-0.8,2.1-1.2c0.6-0.4,1.5-0.2,1.9-1.2c-0.9-0.2-1.7-0.5-2.5,0.1c-0.5,0.3-1,0.6-1.5,0.9c-0.9,0.5-1.6,1.2-1.8,2.2
		c-0.1,0.4-0.3,0.6-0.7,0.5c-0.2-0.5-0.5-1-0.7-1.5c-0.2-0.5-0.1-0.8,0.6-1.1c0.1,0.1,0.1,0.2,0.2,0.3c0,0.1,0,0.2,0.1,0.4
		c0.6-0.4,1.1-0.8,1.6-1.2c0.2-0.1,0.2-0.3,0.3-0.5c0.2-0.4,0.5-0.7,1-0.8c0.2,0,0.4-0.2,0.6-0.4c1.2-0.8,2.5-1.1,3.9-0.4
		c0.1,0.1,0.2,0.2,0.4,0.4C122.4,109.9,122.6,110.9,122,111.7z M122.8,105.7c-0.3-0.2-0.5-0.5-0.9-0.8c0.2-0.3,0.3-0.6,0.6-1.1
		C123.2,104.8,123.2,104.8,122.8,105.7z M123.3,103.6c-0.5-0.5-0.4-0.8-0.1-1.3C123.6,102.7,123.5,103.1,123.3,103.6z M124.3,105.1
		c-0.4-1-0.4-1,0.2-1.5C125.2,104.6,125.2,104.7,124.3,105.1z M124.9,99.2c0.4,0.7-0.1,1.1-0.4,1.7
		C124.3,100.2,124.5,99.7,124.9,99.2z M125.8,101.2c-0.1,1-0.2,1.6-0.3,2.3C124.7,102.7,124.7,102.6,125.8,101.2z M126,104.2
		c-0.3-0.8,0.1-1,0.5-1.1C126.4,103.4,126.3,103.7,126,104.2z M126.6,100.5c0,0.2,0.1,0.5,0.2,0.8C126.4,101,126.4,101,126.6,100.5z
		 M127.6,108.3c-0.2-0.8,0.2-1.1,0.6-1.4C128.6,107.6,128.2,107.9,127.6,108.3z M127.3,100.1c-0.7-0.2-0.7-0.2-0.4-1.1
		C127.4,99.3,127.5,99.7,127.3,100.1z M128.9,108.6c-0.1,0-0.1-0.1-0.2-0.1c0.1-0.2,0.2-0.4,0.2-0.6c0.1,0,0.2,0.1,0.3,0.1
		C129.1,108.2,129,108.4,128.9,108.6z M127.9,98.7c-0.4-0.5-0.6-0.9,0-1.5C128.3,97.7,128.1,98.2,127.9,98.7z M149.8,98
		c-0.4,1-0.9,2-1.3,3c-0.3,0-0.5-0.1-0.8-0.1C148,99.6,148.4,98.4,149.8,98z M147.6,99.3c0,1.1-0.8,1.9-1.2,2.8
		C146.4,101,146.9,100.1,147.6,99.3z M142.2,98.4c-0.2,0.5-0.4,0.9-0.8,1.5C141.4,98.9,141.4,98.9,142.2,98.4z M132.8,41.1
		c0,0.6,0.1,0.9,0,1.1c-0.2,0.5-0.5,0.4-0.9-0.1C132.1,41.8,132.3,41.5,132.8,41.1z M125.7,57.9c-0.1-0.1-0.1-0.1-0.1-0.2
		c0-0.1,0.1-0.1,0.1-0.2c0.1,0.1,0.1,0.2,0.2,0.3C125.8,57.8,125.7,57.8,125.7,57.9z M126.6,56.3c0-0.4,0-0.6-0.1-0.9
		C127,55.7,126.8,55.9,126.6,56.3z M127.6,52.3c-0.6-0.3-1-0.6-1.6-0.9c-0.1,1,0.8,1,1.1,1.7c-0.2,0.2-0.4,0.5-0.7,0.8
		c-0.6-0.3-1-0.6-1.5-0.9c-0.1,0.1-0.1,0.1-0.2,0.2c0.3,0.4,0.6,0.8,1,1.3c-0.1,0.3-0.3,0.7-0.4,1c-0.7,0.2-1.1-0.9-1.8-0.1
		c0.2,0.2,0.4,0.3,0.6,0.5c0.2,0.1,0.3,0.2,0.7,0.5c-0.3,0.1-0.5,0.3-0.6,0.3c-0.3-0.1-0.5-0.2-0.9-0.4c-0.3,0.7,1,0.9,0.3,1.6
		c-0.2-0.1-0.5-0.3-0.8-0.3c-0.2-0.1-0.5-0.1-0.8,0c-0.8,0.3-0.8,0.4-1.7,0.3c0.1-0.2,0.1-0.4,0.2-0.7c-0.2-0.2-0.5-0.3-0.9-0.6
		c0.6,0.1,0.9,0.1,1.4,0.2c-0.2-0.4-0.3-0.7-0.4-1.1c0.3-0.1,0.5-0.1,0.9-0.2c0-0.2,0-0.5,0-0.8c0.9-0.1,0.9-1.4,2-1.3
		c0-0.4,0-0.7-0.1-1c0.4,0,0.7,0,1,0c0.1-0.3,0.1-0.6,0.2-1.1c0.9-0.3,1.5-1.5,2.7-1.3c0.4,0.5,0.7,1,1.2,1.5
		C128.2,51.6,127.9,51.9,127.6,52.3z M133.1,81.9c0.5,0.9,1,1.8,1.5,2.7c0,0,0,0,0.1,0c0,0,0,0,0,0c0.4,0.3,0.7,0.7,0.6,1.2
		c-0.6-0.3-0.5-0.8-0.6-1.2c0,0,0,0,0,0c0,0,0,0,0-0.1c-0.7-0.4-1.3-0.9-1.7-1.6C132.8,82.7,132.9,82.3,133.1,81.9z M134.8,67.1
		c0.1-0.1,0.2-0.2,0.4-0.3c0.7,0.5,0.4,1.3,0.5,2.1c-1.6-1.2-2-2.9-2.9-4.4C134.2,65.1,134.5,65.5,134.8,67.1z M131.7,55.4
		c0-0.4-0.1-0.7-0.2-1.3C132,54.5,132,54.9,131.7,55.4z M133.7,63.4c0.5,0.4,0.8,0.7,0.8,1.3C134.2,64.3,133.6,64.1,133.7,63.4z
		 M133.8,68.7c0.3,0.3,0.4,0.4,0.6,0.6c0.3,0.5,0.4,1.2,1.1,1.4c0.1,0,0.2,0.2,0.2,0.3c0.1,0.7,0.3,1.4,0.4,2
		C135.3,72.5,133.9,69.5,133.8,68.7z M136,75.1c0,0.3,0.1,0.6,0.1,0.9c-0.1,0-0.1,0-0.2,0c-0.1-0.3-0.2-0.6-0.3-0.8
		C135.8,75.1,135.9,75.1,136,75.1z M134.3,73c1.1,0.6,0.7,1.5,0.6,2.4C133.8,74.7,134.7,73.8,134.3,73z M134.5,76.7
		c0.6,0.6,0.8,1.3,0.9,2.2C134.4,78.4,134.1,77.8,134.5,76.7z M134.8,81.3c-0.9-0.3-0.9-0.6-0.4-2C135,79.9,135.4,80.5,134.8,81.3z
		 M136.8,93C136.8,93,136.8,93,136.8,93c0.2-0.1,0.4-0.3,0.6-0.5C137.2,93.4,137.2,93.4,136.8,93C136.8,93,136.8,93.1,136.8,93
		C136.8,93.1,136.8,93,136.8,93c-0.1-0.1-0.3-0.3-0.4-0.3c-1,0-1,0-0.9-0.8c0-0.1,0-0.2,0.1-0.4c0,0,0,0,0,0c0,0,0,0,0,0
		c-0.2,0.1-0.3,0.2-0.5,0.4c-0.6-0.8-0.6-1.6-0.5-2.5c1.2,0.5,1.3,0.7,1,2.1c0,0,0,0,0,0c0,0,0,0,0,0c0.2-0.2,0.4-0.4,0.7-0.6
		c0.3,0.4,0.5,0.7,0.7,0.9C136.9,92.3,136.8,92.7,136.8,93C136.8,93,136.8,93,136.8,93z M134.3,87.4c0-0.3,0.2-0.6,0.3-1.2
		c0.6,0.8,0.6,0.8,0,1.8C134.5,87.8,134.3,87.6,134.3,87.4z M136.1,89.8c-1.4-1-1.5-1.3-0.5-2.3C136.1,88.2,136.5,88.9,136.1,89.8z
		 M133.8,85.3c0.1,0.4-0.1,0.7-0.5,1c-0.1-0.7-0.2-1.2-0.3-1.8C133.6,84.5,133.7,84.9,133.8,85.3z M133.1,88
		c0.6,0.5,0.4,1.2,0.6,1.8C132.6,89.1,132.6,89.1,133.1,88z M132.5,86.6c0.5,0.3,0.4,0.5,0.1,0.9C132.6,87.2,132.6,87,132.5,86.6z
		 M133,90.6c0.1,0,0.1,0,0.2,0c0,0.2,0,0.5,0,0.7c-0.1,0-0.2,0-0.3-0.1C132.9,91.1,133,90.8,133,90.6z M133.8,91.5
		c0.1,0,0.2,0,0.2,0.1c0.2,0.4,0.6,0.9,0.5,1.3c-0.1,0.6,0.5,0.7,0.6,1c0.1,0.5,0.2,0.9,0.4,1.6c-1.2-0.5-1.7-1.2-2.2-2
		C132.9,92.8,133,92.7,133.8,91.5z M131.6,83.2c0,0.3,0.1,0.6,0.1,0.9C131.2,83.9,131.1,83.6,131.6,83.2z M132.6,90.5
		c-0.1,0-0.1,0.1-0.2,0.1c-0.1-0.2-0.2-0.4-0.3-0.6c0.1,0,0.1-0.1,0.2-0.1C132.5,90.1,132.6,90.3,132.6,90.5z M132.8,94
		c0,0.8,0.8,1.4,0.3,2.2C132,95.2,132,95.2,132.8,94z M133.6,97.6c-0.3,0.3-0.3,0.9-0.8,0.2c-0.8-0.3-0.9-0.9-0.9-1.7
		c1,0.3,1,0.4,1,1.6C133,97.6,133.1,97.2,133.6,97.6z M131.8,90.7c0.2,0.5,0.3,0.9,0.4,1.4C131.4,91.4,131.4,91.4,131.8,90.7z
		 M132.3,93.3c-0.2,0.3-0.4,0.6-0.6,0.9c-0.6,0-0.9-0.3-0.8-0.7c0.1-0.4,0.3-0.7,0.5-1.1C131.8,92.6,132,92.9,132.3,93.3z
		 M130.8,95.4c-0.1,0.2-0.1,0.4-0.2,0.6c-0.1,0-0.1,0-0.2-0.1c0-0.2,0.1-0.4,0.1-0.6C130.7,95.4,130.8,95.4,130.8,95.4z M130.1,90.8
		c0.4,0.3,1,0.5,0.5,1.4C130.3,91.6,130.2,91.2,130.1,90.8z M131.9,99.2c-0.2,0.3-0.3,0.5-0.5,0.7c-0.7-0.2-1-0.7-1.5-1.2
		c0.2-0.3,0.3-0.6,0.5-1C131,98.2,131.4,98.6,131.9,99.2z M131.2,97.5c0.1-0.1,0.1-0.1,0.2-0.2c0.2,0.3,0.4,0.5,0.5,0.8
		c-0.1,0-0.1,0.1-0.2,0.1C131.6,98,131.4,97.8,131.2,97.5z M130.5,87.6c0.4,1,0.2,1.9,0.5,3.1C129.7,89.2,129.7,89.2,130.5,87.6z
		 M129.2,86.1c0.8,0.6,0.5,1.2,0.3,1.8C129.3,87.4,128.7,86.9,129.2,86.1z M129.6,92.4c-0.1-0.2-0.2-0.5-0.3-0.9
		C129.9,91.7,129.8,92,129.6,92.4z M129.4,93.1c0.9,0.5,0.5,1.1,0.2,1.8C129.3,94.2,129.2,93.7,129.4,93.1z M128.4,89
		c0.5,0.7,0.2,1.1,0.1,1.7C127.8,90.2,128.1,89.7,128.4,89z M129.7,99.6c0.1,0.4,0.2,0.8,0.3,1.2C129,100.4,129,100.4,129.7,99.6z
		 M128.2,92.7c0-0.2,0.1-0.4,0.3-0.8c0.6,0.7,0.4,1.3,0.2,2C128.1,93.6,128.2,93.1,128.2,92.7z M127.5,88.1c0.1,0,0.2,0,0.3,0
		c-0.1,0.3-0.1,0.6-0.2,0.9c-0.1,0-0.1,0-0.2,0C127.4,88.7,127.4,88.4,127.5,88.1z M129.1,98.7c0,0.1,0.1,0.3,0,0.4
		c-0.1,0.2-0.3,0.4-0.4,0.6C128.6,99,128.6,99,129.1,98.7z M129.9,107.1c0-0.1,0-0.3,0.1-0.4c0.1-0.1,0.2-0.1,0.5-0.3
		c-0.2,0.4-0.3,0.6-0.4,0.8C130,107.2,129.9,107.2,129.9,107.1z M130.4,108.2c0.3-0.4,0.3-0.4,0.9-0.3c-0.2,0.1-0.3,0.2-0.5,0.3
		C130.6,108.2,130.5,108.2,130.4,108.2z M131.4,109.4c0.3-0.4,0.3-0.4,0.9-0.6C132.2,109.3,131.8,109.4,131.4,109.4z M131.8,106.6
		c-0.1-0.1-0.1-0.1-0.2-0.2c0.3-0.3,0.6-0.7,1-1.1C132.4,106.2,132.4,106.2,131.8,106.6z M132.7,107.4c0.2-0.4,0.4-0.6,0.5-0.9
		C133.3,107,133.3,107,132.7,107.4z M133.6,108.8c0-0.6,0.3-0.9,0.9-0.9C134.2,108.3,133.9,108.6,133.6,108.8z M134.4,107.1
		c0.4-0.4,0.8-0.9,1.1-1.3C135.6,106.6,135.3,107.1,134.4,107.1z M134.4,102.8c-0.1-1,0.7-1.3,1-2.1
		C135.4,102.1,135.2,102.5,134.4,102.8z M134.4,96.6c-0.3-0.3-0.5-0.7-0.4-1.2C135,96,135,96,134.4,96.6z M135.2,98.4
		c0-0.2,0-0.3,0-0.4c0-0.1,0.2-0.2,0.5-0.5c-0.2,0.5-0.3,0.8-0.4,1C135.3,98.4,135.2,98.4,135.2,98.4z M136,102.4
		c0.3-0.4,0.6-0.8,0.9-1.2C136.9,101.8,136.8,102.4,136,102.4z M135.8,94.6c-0.2-0.4-0.3-0.8-0.5-1.3
		C135.9,93.6,136.1,93.9,135.8,94.6z M137.7,93.8c0.3,0.9,0,1.4-1.4,2C136.8,95.2,137.3,94.5,137.7,93.8z M138.4,95.9
		c-0.2,0.4-0.4,0.8-0.7,1.2C137.7,96.2,137.7,96.2,138.4,95.9z M137.6,101.1c0-1,0.6-1.4,1.1-1.9
		C138.8,100.2,138.7,100.4,137.6,101.1z M140.7,100.2c-0.3,0.9-0.6,1.7-1,2.6c-0.1,0.3-0.4,0.6-0.7,1.1c-0.1-2.7,0.3-3.6,1.9-4.7
		C141.1,99.5,140.8,99.9,140.7,100.2z M140.6,94.3c-0.2,1.8-0.5,2.3-1.6,2.2C139.1,95.5,139.5,94.7,140.6,94.3z M139.2,97.3
		c-0.1,0.6-0.3,1-0.7,1.4c-0.4,0.3-0.8,0.7-1.3,1.1C137.6,98.5,138.6,98,139.2,97.3z M138.2,91.7c-1.2-0.8-1.4-1.2-1-2.4
		c0.3,0.3,0.5,0.6,0.7,0.8c0.1,0.1,0.1,0.3,0.2,0.4C138.8,91,138.8,91,138.2,91.7z M136.5,86.3c0.1,0,0.2-0.1,0.3-0.1
		c0.1,0.3,0.2,0.6,0.4,1C136.4,87.1,136.5,86.7,136.5,86.3z M138.2,88.8c-0.2-0.3-0.8-0.3-0.4-1.1c0.3,0.4,0.5,0.7,0.7,1
		C138.4,88.8,138.3,88.8,138.2,88.8z M139.2,90.2c-0.7-0.6-0.7-0.6,0.1-1.2C139.7,89.4,139.6,89.8,139.2,90.2z M139.3,87
		c-0.1,0.3-0.2,0.5-0.3,0.8c-0.1,0-0.2,0-0.3-0.1c-0.5-0.6-1.2-1.1-1.2-2c-0.7,0.1-0.8-0.4-1.1-0.8c-0.3-0.4-0.5-0.9-0.9-1.3
		c-0.7-0.7-0.5-1.5-0.1-2.6c0.2,0.7,0.3,1.1,0.5,1.5c0.5,0,1,0.1,1.1,0.8c0.1,0.7,0.3,1.4,0.5,2c0.2-0.3,0.5-0.6,0.7-0.9
		c0.7,0.9,1.8,1.7,2.2,3.3C140,87.4,139.6,87.2,139.3,87z M140.6,85.6c-1.1-0.4-1.5-1.4-2.1-2.1c-0.3-0.4-0.2-1.1-0.2-1.7
		c0,0,0,0,0,0c0,0,0,0,0,0c-0.2,0.2-0.4,0.5-0.7,0.8c-0.8-0.6-1.2-1.3-1.5-2.1c-0.1-0.1-0.1-0.4-0.1-0.5c0.5-0.5,0-1,0.1-1.7
		c1.2,1.1,2.1,2,2.2,3.5c0,0,0,0,0,0c0,0,0,0,0,0.1c0.9,0.8,1.3,1.8,1.9,2.8c0.4-0.8-0.4-1.7,0.2-2.5
		C141.5,83.2,140.9,84.3,140.6,85.6z M136.9,77.2c0.4,0.5,0.7,0.8,0.6,1.3C137,78.3,136.8,77.9,136.9,77.2z M137.8,77.5
		c0-0.3-0.1-0.5-0.1-0.8C138,77.1,138,77.1,137.8,77.5z M138.6,72.2c-0.9-0.8-0.7-1.5-0.4-2.3C138.6,70.4,138.6,70.4,138.6,72.2z
		 M139.2,73.8c0.6,0.3,0.6,0.3,0.9,0.9c-0.3,0.3-0.5,0.5-1,0.9C139.1,74.9,139.1,74.4,139.2,73.8z M141.1,81.4
		c-0.1-0.1-0.2-0.2-0.3-0.4c0,0,0.2-0.3,0.2-0.3c0.1,0,0.2,0.2,0.4,0.3C141.3,81.2,141.2,81.3,141.1,81.4z M141.2,77.7
		c0,0.2,0.1,0.4,0.1,0.6c0.1,0.3,0.1,0.7,0.1,1.1c-1.4-0.8-1.6-1.3-1.1-2.6c0.1-0.2,0-0.4,0-0.6c0-0.3,0-0.6,0-1
		C141.3,76.2,141.3,76.5,141.2,77.7z M139.5,70.7C139.5,70.7,139.5,70.7,139.5,70.7c0.1-0.2,0.1-0.4,0.1-0.7c0.6,0.1,0.5,0.6,0.7,1
		C139.9,70.9,139.7,70.8,139.5,70.7C139.5,70.7,139.5,70.7,139.5,70.7C139.5,70.8,139.5,70.8,139.5,70.7c0.2,0.4,0.3,0.7,0.6,1
		c0.6,0.8,0.9,1.6,1,2.7c-0.3-0.2-0.5-0.3-0.7-0.4c-0.5-0.7-1.1-1.3-1.3-2.2C139,71.4,138.9,70.9,139.5,70.7
		C139.5,70.7,139.5,70.7,139.5,70.7z M138,67.9C138,67.9,138,67.9,138,67.9c0.1-0.2,0.2-0.4,0.3-0.8c0.2,0.3,0.3,0.5,0.4,0.9
		C138.3,68,138.2,67.9,138,67.9C138,67.9,138,67.9,138,67.9C138,67.9,138,67.9,138,67.9c0.2,0.4,0.3,0.7,0.4,1.1
		C137.7,68.8,138,68.4,138,67.9C138,67.9,138,67.9,138,67.9z M136.5,63.3c0.7,0.5,0.6,1.1,0.8,1.7C136.7,64.6,136.5,64.1,136.5,63.3
		z M136.2,65.1c0.8,0.8,1.3,1.7,1.3,2.9C136.3,67.3,136,66.6,136.2,65.1z M137.5,71c-0.1,0.3,0,0.6,0.1,0.9c0.1,0.4,0.4,0.7,0.5,1.1
		c0.1,0.6,0.2,1.2,0.3,1.8c0,0-0.1,0-0.1,0c-0.1-0.3-0.2-0.7-0.3-1.2c-0.6,0.7,0.1,1.4-0.3,2.1c-0.7-0.3-0.8-1.1-1.1-1.7
		c-0.4-0.7,0.4-1.3,0.4-2.1c-0.2-0.3-0.3-0.7-0.5-1.1c0.3-0.1,0.5-0.2,0.8-0.2c-0.4-0.5-0.8-0.8-0.9-1.3c-0.1-0.5,0-1,0-1.7
		C137.1,68.7,137.8,69.6,137.5,71z M135.6,65.7c-0.1,0-0.2,0-0.3,0c-0.1-0.8-0.2-1.6-0.4-2.7C135.9,64.1,135.7,64.9,135.6,65.7z
		 M132.1,44.9c-0.1,0.1-0.3,0.3-0.5,0.5c-0.3-0.1-0.5-0.2-0.9-0.3c-0.1,0.3-0.1,0.5-0.2,0.8c0,0,0,0,0,0c0,0,0,0,0,0
		c0.5,0.1,0.8,0.5,1,1c-0.4-0.2-0.9-0.4-1-1c0,0,0,0,0,0c0,0,0,0,0,0c-0.2,0.1-0.4,0.2-0.7,0.3c0.3,0.5,0.5,0.9,0.7,1.4
		c-0.5-0.3-0.9-0.5-1.4-0.8c0,0.4,0,0.7,0.1,1c-0.2-0.1-0.5-0.2-0.7-0.3c-0.1,0.1-0.2,0.2-0.3,0.3c-0.3,0.9-0.3,0.9-1.4,0.6
		c0.1-0.3,0.1-0.7,0.3-1c0.6-0.7,1-1.6,1.9-2.2c0.4-0.3,0.6-0.9,0.9-1.3c0.8-0.2,1.7-0.4,2.6-0.6c0.1,0.5,0.3,0.9,0.5,1.4
		c0.2,0.5,0.8,0.7,0.9,1.4C133,45.8,132.8,45,132.1,44.9z M137.7,46.4c-0.1,0-0.2,0-0.3,0c0-0.3,0-0.6,0-1c0.1,0,0.2,0,0.3,0
		C137.7,45.7,137.7,46.1,137.7,46.4z M138.1,46.6c0.2-0.6,0.3-1.2,0.5-1.9C139.6,45.7,139.5,46.2,138.1,46.6z M140.3,43.9
		c0.3,0.4,0.4,0.6,0.5,0.8C140.2,44.9,140.3,44.6,140.3,43.9z M141.5,44.1c-0.6-0.7-1.3-1-0.9-2c0.2,0.3,0.4,0.5,0.5,0.8
		c0.2-0.1,0.4-0.2,0.8-0.3C141.7,43.1,141.6,43.5,141.5,44.1z M142.3,43.8c-0.4-0.5,0.2-0.6,0.3-1c0.1-0.3,0-0.7,0-1.3
		C143.1,42.9,143.1,43,142.3,43.8z M142.4,38.5c-0.1-0.2-0.2-0.3-0.2-0.4c0-0.1,0.2-0.2,0.3-0.3c0.1,0.1,0.2,0.2,0.2,0.3
		C142.6,38.3,142.5,38.4,142.4,38.5z M145.6,34.8c0.6,0.6,0.3,1,0.2,1.7C145.4,35.9,145.2,35.5,145.6,34.8z M144.3,36.4
		c0,0.4,0,0.6,0.1,1C143.5,36.8,143.5,36.8,144.3,36.4z M143.7,42.8c-0.2-0.6,0.3-0.8,0.5-1.2c0.1-0.3,0-0.8,0-1.2
		c0.2,0,0.4,0,0.4,0c0.3,0.4,0.6,0.8,0.7,1.2C145.4,42.1,144.8,42.5,143.7,42.8z M145.9,41.5c0.3-0.8,0.5-1.4,0.7-2
		c0.4,0.1,0.7,0.2,0.9,0.2C147.4,40.7,146.9,41.1,145.9,41.5z M147.3,37.1c0.4,0.3,0.7,0.4,1,0.7c-0.2,0.4-0.4,0.8-0.6,1.4
		C147.1,38.5,147.3,37.9,147.3,37.1z M148.2,40.2c0.2-0.8,0.4-1.3,0.5-1.8c0.1,0,0.1,0,0.2,0c0.1,0.4,0.2,0.8,0.3,1.2
		C148.9,39.8,148.7,39.9,148.2,40.2z M148.5,33.3c0.1,0.4,0.2,0.8,0.3,1.1c0,0.1,0,0.2-0.1,0.5c-0.6-0.9-0.9-1.7-1.1-2.6
		c0.3-0.2,0.6-0.5,0.9-0.7C148.2,32.4,148.2,32.4,148.5,33.3z M154,24.1c-0.2,0.5-0.7,0.6-1.1,0.8C153.1,24.3,153.4,24,154,24.1z
		 M153.4,27.8c-0.4,0.1-0.8,0.3-1.3,0.5c-0.3-0.4-0.6-0.9-1-1.4c0.5-0.3,0.9-0.6,1.3-0.9C153.3,26.4,153.4,27,153.4,27.8z
		 M154.3,29.9c0,0.3-0.1,0.5-0.2,0.9c-0.8-0.6-0.7-1.2-0.6-1.9C154.3,29.1,154.3,29.5,154.3,29.9z M152.6,31.8
		c-0.4-0.6-0.5-1.2-0.4-1.9C153,30.6,153,30.8,152.6,31.8z M151.9,25.4c-0.3,0.5-0.6,0.6-1.2,0.8C151,25.7,151.3,25.4,151.9,25.4z
		 M149.7,38.1c-0.2-1.4-0.2-1.4,0.8-1.8C150.2,36.9,150,37.4,149.7,38.1z M149.9,31c0.2,0.7,0.5,1.3,0.7,2
		C149.9,32.5,149.7,31.8,149.9,31z M152,36.8c-0.3,0.5-0.3,1.3-1,1.5c-0.3-1.1,0-1.8,1.2-3.1C152.5,35.8,152.6,35.9,152,36.8z
		 M150.2,29.6c-0.5-0.4-0.9-0.7-1.4-1.1c0.5-0.6,1.1-0.9,1.8-1.1c0.3,0.5,0.6,0.9,0.9,1.3C151.3,29.1,150.8,29.3,150.2,29.6z
		 M152.8,37c-0.2-1,0.4-1.7,0.8-2.4c0.3-0.6,0.5-1.3,1.4-1.4c0.2,1.3-0.8,2-1.1,3C153.7,36.8,153.3,37,152.8,37z M155.1,35.4
		c0.1-0.4,0.2-0.7,0.4-1.1C156.1,34.8,156.1,34.8,155.1,35.4z M156.5,33.9c-0.7-0.5-0.7-0.5-0.1-1.5c0.1,0,0.3,0,0.4,0.1
		c0.1,0.1,0.2,0.2,0.3,0.3C156.9,33.1,156.7,33.5,156.5,33.9z M156.2,28.7c-0.1,0-0.1-0.1-0.2-0.1c0.1-0.2,0.2-0.3,0.3-0.5
		c0,0,0.2,0.1,0.3,0.1C156.5,28.4,156.4,28.5,156.2,28.7z M155.7,27.6c-0.2-0.4-0.4-0.8-0.7-1.4c-0.2,0.5-0.3,0.8-0.4,1.2
		c-0.5-0.7-0.9-1.3-1.4-2c0.6-0.3,1-0.6,1.6-0.9c0.6,0.9,1.2,1.7,1.8,2.6C156.3,27.4,156.1,27.5,155.7,27.6z M155.3,24.4
		c0.5-0.3,0.9-0.4,1.2-0.6c1.5,1.2,1.7,1.6,1.7,3c-0.2-1-0.9-1.3-1.6-1.6C156.2,25,155.8,24.7,155.3,24.4z M159.1,31.2
		c-0.4,1.6-0.5,1.7-1.3,2.2c0.2-1.1,0.2-2.2,0.9-3.1C159.2,30.5,159.2,30.8,159.1,31.2z M159.7,32c0-0.7,0.3-0.7,0.8-0.7
		C160.2,31.4,160,31.6,159.7,32z M160.1,30.8c-0.4-0.6-0.1-0.9,0.4-1.1C160.3,30,160.2,30.3,160.1,30.8z M160.1,24.9
		c-0.5-0.2-0.5-0.9-1.2-0.6c0.1,0.4,0.2,0.7,0.4,1c0,0-0.1,0.1-0.1,0.1c-0.4-0.5-0.7-1-1.1-1.4c-0.5-0.4-0.9-0.7-1.1-1.3
		c0.5-0.3,1.1-0.7,1.6-1c0.9,0.7,1.2,1.7,1.6,2.6C160.2,24.5,160.1,24.7,160.1,24.9z M161.1,30.2C161.1,30.2,161,30.2,161.1,30.2
		c-0.1-0.2-0.1-0.4,0-0.6c0,0,0-0.1,0.1-0.1c0,0.1,0.1,0.1,0.1,0.2C161.2,29.9,161.2,30.1,161.1,30.2z M161.7,28.4
		c-0.1,0-0.1-0.1-0.2-0.1c0.1-0.2,0.2-0.5,0.3-0.7c0.1,0,0.2,0.1,0.3,0.1C161.9,28,161.8,28.2,161.7,28.4z M164.5,15.7
		c0,0,0.1,0,0.2,0c-0.1,0.2-0.1,0.4-0.2,0.6c-0.1,0-0.1-0.1-0.2-0.1C164.4,16,164.4,15.8,164.5,15.7z M164.5,17.6
		c0,0.3,0.1,0.5,0,0.7c0,0.1-0.2,0.3-0.4,0.6C163.8,18.2,163.9,17.9,164.5,17.6z M162,18.8c0,1-0.3,1.4-1,1.7
		C161.1,19.7,161.6,19.4,162,18.8z M162.1,20.6c0.4,0.6,0.4,0.6-0.5,0.9C161.8,21.2,162,20.9,162.1,20.6z M163.2,27.7
		c-0.6-0.7,0.1-1.3,0.2-1.9C164,27.1,164,27.1,163.2,27.7z M166.6,23.7c-0.5,0.7-0.9,1.5-1.4,2.2l0,0c0,0,0,0,0,0c0,0,0,0,0,0
		c0.1,0,0.2-0.1,0.4-0.2c0,1.4-1.2,1.9-1.8,2.8c0-1.1,0.6-1.9,1.4-2.6c0,0,0,0,0,0c-0.1,0-0.4-0.1-0.4-0.1c0-0.2,0-0.3,0.1-0.5
		c0.4-1,0.8-2,1.2-2.9c0.1-0.3,0.3-0.5,0.5-0.9C167.1,22.4,167.1,23,166.6,23.7z M167.3,21.1c-0.4-0.6-0.1-1.1,0.2-1.6
		C168.1,20.1,168.1,20.1,167.3,21.1z"/>
	<path fill="#29292F" d="M143.1,116.7c-1.1,0.5-2.4,0.7-3.5,1.4c-0.1,0-0.2,0-0.3,0c0.1-0.5,0.8-0.7,0.6-1.6c-0.6,0.7-1,1.3-1.5,1.8
		c-0.7,0.7-1.1,0.9-1.8,0.8c0.4-0.5,0.8-0.9,1.2-1.3c0.4-0.4,0.8-0.7,1.1-1.4c-1.4,0.5-1.8,1.9-3,2.3c0.1-0.3,0.2-0.6,0.4-0.8
		c0.4-0.4,0.8-0.8,1.2-1.3c0.1-0.1,0.1-0.4,0.1-0.5c-0.8,0.5-1.3,1.1-1.9,1.7c-0.2,0.1-0.4,0.2-0.7,0.4c0.3-0.9,1.1-1.2,1.1-2
		c-0.6-0.2-0.7,0.3-1,0.5c0,0-0.2,0-0.3,0c0-0.3,0.1-0.7,0.1-1.1c-0.5,0-0.9-0.1-1.3-0.1c-0.3,0.3-0.6,0.5-0.8,0.8
		c-0.4-0.3-0.7-0.5-1.1-0.7c-1.4-0.8-3-1.4-4.6-0.8c-1.7,0.7-3.3,1.6-4.3,3.2c-0.4,0.7-0.7,1.4-1.1,2.1c0.4,0.7,0.8,1.4,1.2,2.1
		c-0.9,0.6-1.6,0.6-2.3-0.1c-0.8,0.4-1.5,0.2-2.2-0.2c-0.4-0.2-0.8-0.3-1.2-0.5c-0.9-0.4-1.8-0.3-2.6,0.3c-0.8,0.5-1.6,1.1-2.4,1.7
		c-0.8,0.7-1.1,2.2-0.8,3.2c0.4,1.4,1.4,2.2,2.5,3c0.7,0.5,1.5,0.3,2.2,0.3c0.5,0,1-0.2,1.4-0.2c0.3-0.1,0.6-0.2,0.9-0.2
		c1.4,0.4,2.6-0.2,3.9-0.7c1.2-0.4,2.3-1.3,3.6-1.2c0.1,0,0.2-0.1,0.2-0.1c1.9-0.9,3.9-1.8,5.8-2.7c0.1-0.1,0.2-0.2,0.1-0.1
		c0.3-1.1,0.6-1.9,0.9-3.1c0.7-0.3,1.6-0.7,2.4-1c1-0.4,2-0.8,3-1.2c1.1-0.4,2-1.1,3.3-1c0.1,0,0.3,0,0.4-0.1c0.5-0.3,1-0.7,1.7-0.5
		c0.1,0,0.4-0.2,0.4-0.4c0-0.2-0.1-0.6-0.3-0.7C143.7,116.6,143.3,116.6,143.1,116.7z M119.7,123.7c0,0.9,0,1.5,0,2.1
		C119.3,124.8,119.3,124.8,119.7,123.7z M118.8,123.3c0.1,0,0.1,0,0.2,0.1c0,0.3-0.1,0.5-0.1,0.8c-0.1,0-0.2-0.1-0.3-0.1
		C118.6,123.7,118.7,123.5,118.8,123.3z M117.6,123.2c0-0.2,0.1-0.3,0.2-0.4c0.1,0,0.2,0.1,0.2,0.1c-0.1,0.3-0.1,0.6-0.2,0.8
		c-0.1,0-0.1,0-0.2,0C117.6,123.5,117.6,123.3,117.6,123.2z M121.1,126.2c-0.2,0.5-0.6,1-1,1.2c-0.7,0.3-1.4,0.7-2.1,1.2
		c-0.2,0.2-0.6,0.2-0.9,0.2c-1.4,0.2-2.7-0.3-3.8-1c-0.9-0.6-1.3-1.6-1.1-2.8c0.9-0.1,1.8-0.2,2.8-0.4c1.4,0.9,3,1.8,4.6,2.8
		c0.4-0.9,0.7-1.6,1-2.5C121.3,125.4,121.3,125.9,121.1,126.2z M125.5,122.1c0-0.3-0.1-0.5-0.1-0.8c0.1,0,0.1,0,0.2,0
		c0,0.2,0.1,0.5,0.1,0.7C125.7,122,125.6,122,125.5,122.1z M126.7,125.6c0-0.1-0.1-0.1-0.1-0.2c0.2-0.2,0.4-0.3,0.7-0.5
		c0,0.1,0.1,0.1,0.1,0.2C127.1,125.3,126.9,125.5,126.7,125.6z M131.7,120.3c-0.1-0.3-0.3-0.5-0.5-0.9c-0.3,0.6-0.5,1-0.7,1.5
		c-0.2-0.2-0.4-0.3-0.6-0.6c-0.5,0.6-1.2,0.5-1.8,0.4c-0.7-0.1-1.4-0.1-2-0.6c-0.9-0.6-1.1-0.5-1.7,0.7c-0.1-0.3-0.2-0.5-0.4-0.8
		c-0.2,0.3-0.5,0.5-0.7,0.8c-0.5-0.5-0.5-0.9-0.1-1.4c0,0,0,0,0,0c0,0,0,0,0,0c-0.7-0.7,0-1.1,0.4-1.5c-0.1,0.5-0.3,1-0.4,1.5
		c0,0,0,0,0,0c0,0,0,0,0,0c0.5,0.1,0.9-0.1,1.3-0.5c0.7-0.8,1-0.8,2-0.4c1.4,0.7,2.8,0.6,4.3,0.1c0.3-0.1,0.6-0.4,0.4-0.7
		c-0.1-0.2-0.4-0.3-0.6-0.3c-1.3,0.1-2.6,0.2-3.8-0.8c-0.2-0.2-0.6-0.1-0.9-0.1c-0.4,0-0.8,0.1-1.3,0.2c0.8-0.9,1.6-1.4,2.7-1.6
		c0.1,0.5,0.1,0.9,0.2,1.6c0.5-0.7,0.9-1.2,1.3-1.8c0.1,0.6,0.2,1.1,0.4,1.9c0.4-0.6,0.6-1,0.8-1.4c0.1,0,0.1,0,0.2,0.1
		c0,0.4-0.1,0.8-0.1,1.3c1.1,0,2.1,0.2,2.7,1.2C132.5,118.8,132.1,119.5,131.7,120.3z"/>
	<path fill="#29292F" d="M81.8,135.9c0.4-0.6,1.1-1,0.9-1.9c-0.8,1-1.4,2-2.3,2.9c0.8-2,0.8-2,0.3-2.5c-0.4,1.7-1.3,2.9-2.4,4.1
		c0.1-0.4,0.2-0.8,0.4-1.2c0.4-0.8,0.6-1.7,0.6-2.6c0-0.1-0.2-0.3-0.4-0.6c-0.2,1.2-0.2,2.2-0.8,3.1c-0.4-0.5-0.6-0.9-0.9-1.3
		c-0.4,0-0.6-0.1-0.9-0.4c-0.3-0.3-0.7-0.6-1-0.8c-1.4-0.4-2.8-0.8-4.3-0.7c-1.9,0.2-3.8,0.6-5.3,1.9c-0.2-0.1-0.4-0.2-0.5-0.3
		c-0.9-0.7-2-0.7-3.1-0.4c-1.3,0.3-2.4,1-3.4,2c-1.3,1.2-1.8,2.7-1.7,4.5c0.9,0.7,2,0.8,3,0.5c0.9-0.2,1.7-0.4,2.6-0.2
		c0.3,0.1,0.7,0,1-0.1c0.9-0.3,1.8-0.8,2.8-0.3c0.1,0.1,0.3,0,0.4,0c1.5,0,3-0.1,4.5-0.5c0.8-0.2,1.5-0.4,2.4-0.2
		c0.4,0.1,0.8,0,1.2-0.1c0.7-0.3,1.5-0.6,2.3-0.6c0.2,0,0.4-0.1,0.6-0.2c1.2-0.4,2.2-1.3,3.5-1.6c0.3-0.1,0.5-0.4,0.7-0.6
		c0.6-0.8,1.1-1.6,1.6-2.5c0.1-0.2,0.1-0.4,0.2-0.7c-1.1,1-1.6,2.4-3,3C81,137,81.4,136.5,81.8,135.9z M64.6,137.2
		c-0.2-0.1-0.5-0.2-0.8-0.4c0,0.6,0,1.1,0,1.6c-0.1,0-0.1,0-0.2,0c-0.1-0.4-0.2-0.8-0.4-1.4c-0.6,0.9,0,1.9-0.8,2.6
		c-0.1-0.6-0.2-1.1-0.3-1.8c-0.7,0.9-0.1,1.9-0.8,2.7c-0.2-0.5-0.4-0.9-0.6-1.5c-0.6,0.7,0,1.4-0.5,2.1c-0.2-0.4-0.4-0.7-0.6-1.3
		c-0.2,0.6-0.3,0.9-0.4,1.5c-0.5-0.1-1-0.1-1.5-0.2c0-3.4,4.4-6.4,7.2-5C64.6,136.6,64.6,136.9,64.6,137.2z M65.5,139.9
		c-0.3-0.4-0.3-0.4,0.1-0.8C65.5,139.4,65.5,139.6,65.5,139.9z M70.8,138.9c-0.7,0.3-1.4,0.6-2,0.9c0,0.1,0.1,0.2,0.1,0.3
		c0.5-0.1,0.9-0.2,1.6-0.4c-0.2,0.4-0.3,0.8-0.5,0.8c-1,0.5-2.1,0.6-3.3,0.4c-0.4-0.1-0.5-0.3-0.6-1.1c0.5,0.1,1,0.2,1.5,0.3
		c1-0.5,1.7-1.4,2.1-2.4c0.4-0.9,1.1-1.1,1.9-1C72.1,138.1,72,138.4,70.8,138.9z M72.9,137.6c-0.3-0.5-0.3-0.5,0-1.2
		C72.9,136.9,72.9,137.2,72.9,137.6z M74,135.6c-0.7-0.1-1.3-0.3-2-0.4c-0.4,0-0.8,0.1-1.2,0.2c-1.3,0.2-2.4,0.6-3.4,1.4
		c-0.4,0.3-0.8,0.6-1.3,0.3c0.1-1,0.9-1.4,1.7-1.7c1.7-0.8,3.4-0.9,5.2-0.6c0.5,0.1,1,0.2,1.5,0.6C74.3,135.5,74.1,135.6,74,135.6z"
		/>
	<path fill="#29292F" d="M66.6,94.6c1.9-2.1,3.8-4.2,5.6-6.3c1.4-1.6,2.7-3.3,4.1-4.9c0.5-0.5,1-1,1.5-1.5c2-2.2,4.1-4.5,6.1-6.7
		c1.1-1.2,2.2-2.5,3.3-3.8c1.5-1.8,3.3-3.2,5-4.8c2.1-2,4.7-3.2,7.1-4.7c1.4-0.8,2.8-1.5,4.2-2.3c0-0.1,0-0.1-0.1-0.2
		c-1.1,0.3-3.5,1.2-3.6,1.3c-0.5,0.3-1,0.6-1.5,1c-3.1,2-6.2,4.1-8.8,6.7c-1,1-1.9,2.1-2.9,3.1c-1.5,1.7-3.1,3.3-4.6,5
		c-1.3,1.4-2.5,2.8-3.7,4.2c-1.4,1.5-2.9,3-4.4,4.5c-1.1,1.1-2.2,2.2-3.2,3.4c-1.9,2.5-3.9,5-6,7.3c-1,1.1-1.9,2.1-2.8,3.2
		c-0.3,0.4-0.4,0.7,0,1.2C63.5,98.3,65.1,96.4,66.6,94.6z"/>
	<path fill="#29292F" d="M155,15.6c0.2,0.1,0.4,0.2,0.5,0.3c0.6-0.3,1.1-0.5,1.6-0.8c0.6-0.3,0.8-0.7,0.6-1.4
		c-3.7,0.9-5.6,3.6-6.9,6.7C152,18.6,153.1,16.8,155,15.6z"/>
	<path fill="#29292F" d="M143.4,25c1-0.4,1.3-1.7,2.2-2.3c0.2-0.1,0.2-0.5,0.3-0.8c0.1-0.5,0.4-0.8,0.9-0.8c0.2,0,0.4-0.1,0.7-0.2
		c0-0.5,0-0.9,0-1.3c-1.9,1.8-3.6,3.8-5.2,5.7c-0.2,0.3-0.2,0.7-0.3,1.1C143.5,26.6,143.6,26.5,143.4,25z"/>
	<path fill="#29292F" d="M54.1,120.3c0-0.7-0.1-1.5-0.1-2.2c0-0.8,0-1.5,0-2.3c0-0.7,0.3-1.5-0.2-2.1c-0.5,0.3-0.3,0.7-0.3,1
		c0,0.4,0,1-0.1,1.1c-0.8,0.4-0.4,1.1-0.6,1.7c-0.2-0.2-0.5-0.4-0.7-0.7c-0.4,0.7-0.1,1.4,0,2c0,0.2,0.2,0.3,0.4,0.5
		c0.1-0.4,0.1-0.6,0.2-1c0.1,0.5,0.2,0.8,0.3,1.1c0.5-0.7,0.4-1.6,0.6-2.7C53.8,118.1,53.6,119.2,54.1,120.3z"/>
	<path fill="#29292F" d="M165.1,96.9c0.5-0.4,0.9-0.7,1.4-1.1c-0.6,0-1.2,0.8-1.9,0.3c0,0-0.4,0.3-0.5,0.5c-0.1,0.2,0,0.4,0.1,0.7
		c-1.4,0.8-2.7,1.6-4,2.3c0.1,0.3,0.2,0.7,0.4,1.2c0.4-0.2,0.8-0.3,1.1-0.6c0.1-0.1,0.1-0.5,0.1-0.7c1.3-0.6,2.8-0.9,3.9-2
		c-0.7,0.2-1.3,0.5-2.3,0.9C164,97.5,164.6,97.3,165.1,96.9z"/>
	<path fill="#29292F" d="M142.1,31.5c-1,1.2-2,2.5-3,3.7c-0.4,0.5-0.5,0.9-0.1,1.5c1.5-1.9,3.2-3.6,4.2-5.9
		C142.5,30.8,142.3,31.3,142.1,31.5z"/>
	<path fill="#29292F" d="M156.9,91.7c-0.6,0.8-1.1,1.5-1.6,2.3c0.1,0.8-0.5,1.5-0.7,2.3c-0.2,0.8-1,1.3-0.7,2.3
		c0.6-0.7,0.9-1.5,1.1-2.1c0.6-1.5,1-3.2,2.7-4.1c0.2-0.1,0.3-0.3,0.4-0.4c-0.3,0.1-0.7,0.2-1,0.3C157.1,92.1,157,91.9,156.9,91.7z"
		/>
	<path fill="#29292F" d="M158.2,92.1C158.2,92.1,158.3,92,158.2,92.1c0.1-0.1,0.2-0.1,0.2-0.1C158.4,92,158.3,92,158.2,92.1
		C158.2,92,158.2,92,158.2,92.1z"/>
	<path fill="#29292F" d="M156.8,99.5C156.8,99.5,156.8,99.5,156.8,99.5C156.9,99.5,156.9,99.5,156.8,99.5
		C156.9,99.5,156.8,99.5,156.8,99.5C156.8,99.5,156.8,99.5,156.8,99.5z"/>
	<path fill="#29292F" d="M154.2,100.6c-0.7-0.1-1,0.3-1.3,0.7c0,0,0,0.2,0,0.3c0.3,0,0.7-0.1,1.1-0.2c-0.2,0.5-0.3,0.8-0.4,1.3
		c0.3,0.1,0.4,0.1,0.6,0.1c0.3-1.3,0.4-1.4,1.9-2.1c0.6-0.3,0.8-0.6,0.8-1.2c-0.5,0.3-1.1,0.6-1.6,0.8
		C154.9,100.5,154.5,100.7,154.2,100.6z"/>
	<path fill="#29292F" d="M162.3,92.7c0.3-0.3,0.7-0.4,1-0.7c0.3-0.2,0.7-0.4,0.6-1c-1.3,0.9-2.5,1.8-3.9,2.8c0.5,0,0.8,0,1.1,0
		c0.1,0.4,0.1,0.7,0.2,1.2c0.5-0.4,1-0.8,1.4-1.1C162,93.6,161.9,93.1,162.3,92.7z"/>
	<path fill="#29292F" d="M173.2,93.8c-0.3,0.1-0.6,0.2-0.8,0.3c-1.7,1.1-3.4,2.3-5,3.4c-0.3,0.2-0.4,0.5-0.6,0.8
		c0.1,0.1,0.1,0.2,0.2,0.3c0.2-0.1,0.5-0.2,0.5-0.3c0.1-0.6,0.6-1,1.1-1.3c1.3-0.8,2.6-1.8,4.1-2.5
		C172.9,94.5,173.3,94.4,173.2,93.8z"/>
	<path fill="#29292F" d="M173.6,95.2c-0.2,0.1-0.2,0.4-0.4,0.7c1.1,0,1.9-0.1,2.7-0.7c-0.2-0.4-0.4-0.6-0.7-1
		C174.6,94.5,174.1,94.8,173.6,95.2z"/>
	<path fill="#29292F" d="M157.4,96.6c0.2-0.2,0.5-0.3,0.5-0.5c0.2-0.7,0.6-1.2,1.2-1.5c0-0.3,0-0.5,0-0.7c0-0.2,0-0.4,0-0.6
		c-0.7,0.9-1.3,1.8-2,2.9C157.1,96.1,157.2,96.3,157.4,96.6z"/>
	<path fill="#29292F" d="M55,115.1c0-0.6,0.1-1.2,0.2-1.8c0.3,1.7-0.1,3.5,0.6,5.3c0-2.3,0.1-4.6,0.1-6.9c0.3,0.8,0.3,1.6,0.4,2.5
		c0.1,1.6,0.1,3.2,0.2,4.8c0,0,0.1,0.1,0.3,0.1c0-0.4,0-0.7,0.1-1.2c0.3,0.2,0.5,0.3,0.7,0.4c-0.8,2.2-0.6,4.1,0.6,4.9
		c0.6,0.4,1.4,0.5,2.2,0.6c1,0.1,1.7-0.6,2.2-1.1c0.9,0.1,1.5,0.3,2.2,0.2c0.6-0.1,1.4,0.2,2-0.7c-0.7,0.1-1.2,0.1-1.6,0.2
		c-1.1,0.2-2-0.3-2.7-1.1c-0.2-0.2-0.3-0.5-0.3-0.7c0.2-0.8,0.4-1.6,1.1-2.2c0.5-0.5,1-0.8,1.8-0.7c0.2,0,0.5-0.1,0.8-0.2
		c-0.4,1.3-1.5,2.3-1.7,3.8c1.1-0.2,1.7-1,2.1-1.7c0.5-0.8,0.9-1.6,1.4-2.5c0.6,0.5,1.1,0.9,1.5,1.2c0,0.9,0.1,1.7,0.1,2.4
		c1,1,2,1.2,3.2,0.6c0.2-0.1,0.5-0.1,0.8-0.2c0,0,0,0,0,0c0,0,0,0,0,0c0.2-0.5,0.5-0.8,1-0.9c-0.1,0.7-0.6,0.7-1,0.9c0,0,0,0,0,0
		c0,0,0,0,0,0c0.1,0.7,0.7,0.7,1.1,0.7c1.1-0.1,2.1-0.3,3.1-0.6c0.2-0.1,0.5-0.2,0.7-0.4c0.5-0.7,1.2-1,2.1-1c0.8-0.1,1-0.4,1.2-1.4
		c-0.3,0.1-0.5,0.2-0.7,0.2c-0.7,0.2-1.4,0.5-2.1,0.7c-0.2,0.1-0.6,0-0.8-0.1c-0.6-0.3-1.2-0.6-1.7-1.1c-0.4-0.3-0.6-0.8-0.8-1.3
		c-0.2-0.4,0-0.9,0.5-1.1c1.2-0.7,3.1-0.6,3.9,0.5c0.6,0.8,1.4,1.1,2.4,1.2c0-0.3,0.1-0.5,0-0.7c-0.5-1.4-1.5-2.2-2.9-2.4
		c-0.5-0.1-1.2,0-1.7-0.5c0.3-0.2,0.5-0.4,0.7-0.4c0.9-0.1,1.9-0.2,2.7,0.3c0.8,0.4,1.4,0.8,2,1.5c1.1,1.1,1.3,1.2,2.8,0.4
		c0.5-0.3,0.9-0.7,1.3-1.2c0.5-0.5,1.1-0.7,1.8-0.9c-0.2,0.5-0.3,0.9-0.5,1.3c0.3,0.2,0.5,0.4,0.8,0.7c-0.8,0.6-1.5,1-2.2,1.5
		c-0.7,0.5-1.6,0.7-2.2,1.7c1-0.2,1.6-0.7,2.2-1.1c1.8-1.2,3.6-2.5,5.3-3.8c1.5-1.1,3-2.1,4.4-3.2c2.9-2.3,5.8-4.7,8.7-7.1
		c1.3-1.1,12.2-11.4,13.6-12.9c1.4-1.6,2.9-3.1,4.4-4.7c2.7-2.8,3.4-3.7,5.3-6.7c0.1-0.2,1.5-3.8,1.7-4.8c0.5-2.2-0.4-3.6-0.8-4.3
		c-0.8-1.2-1.6-2.3-2.6-3.3c-1.4-1.4-3.3-2-4.7-3.4c-0.1-0.1-0.2-0.1-0.2-0.1c-4.2-1.8-8.5-2.3-13-1.7c-0.9,0.1-1.8,0.3-2.8,0.5
		c-2.3,0.3-4.4,1-6.3,2.1c-2.1,1.2-4.2,2.4-6.1,3.8c-0.4,0.3-0.7,0.6-1,1c-0.2,0.3-0.4,0.6-0.7,0.8c-2.7,2.2-4.9,4.7-7.1,7.3
		c-1.3,1.6-2.7,3-4.1,4.6c-1.4,1.5-2.9,3-4.3,4.6c-0.6,0.7-1.3,1.5-1,2.6c0.1,0.2-0.1,0.5-0.3,1c-0.1-0.7-0.2-1.2-0.2-1.7
		c-0.9,0.7-1.8,1.3-2.4,2.2c0,0.1,0,0.2,0,0.3c0,0,0,0,0,0c0,0,0,0,0,0c0.3,0.7-0.3,1.1-0.3,1.9c-0.4-0.9-0.1-1.4,0.3-1.9
		c0,0,0,0,0,0c0,0,0,0,0,0c-0.4,0.3-0.8,0.6-1.2,1c-0.6,0.7-1.2,1.4-1.9,2c-0.2,0.1-0.5,0.1-0.8,0.2c0,1-0.6,1.6-1.2,2.1
		c-1.3,1.1-2.3,2.5-3.4,3.7c-0.5,0.5-0.8,1.1-1.2,1.7c0,0,0,0,0,0c0,0,0,0,0,0c0.4,0.5,0.1,0.9-0.2,1.4c-0.3-0.6,0.1-1,0.2-1.4
		c0,0,0,0,0,0c0,0,0,0,0,0c-0.2,0.1-0.5,0.2-0.7,0.4c-1.3,1.6-2.6,3.2-3.7,4.6c-0.1,1.5-0.1,2.8-0.2,4c-0.1,1.3,0.2,2.6-0.2,4.2
		c-0.4-1-0.2-1.8-0.2-2.5c0-0.8,0.1-1.6,0.1-2.4c0-0.7,0.3-1.5-0.2-2.4c-0.1,0.5-0.3,0.7-0.3,0.9c0,2.1,0,4.3,0,6.4
		c0,0.2-0.1,0.4-0.2,0.6c-0.2-0.9-0.2-1.8-0.3-2.7c-0.1-0.8,0.1-1.7-0.4-2.7c-0.2,0.5-0.2,1.1-0.5,1.2c-0.5,0.3-0.5,0.6-0.6,1.1
		c0,0.4-0.1,0.9-0.1,1.3c-0.2-0.5-0.1-1.1-0.4-1.7c-0.6,1-0.2,1.9-0.2,2.7c0,0.9,0,1.8,0.5,2.6C55.1,116.4,55,115.7,55,115.1z
		 M62.4,115.4c-0.5-0.4-0.4-0.7-0.1-1.1C62.3,114.7,62.3,114.9,62.4,115.4z M63.1,115.1c-0.1-0.5-0.1-1-0.2-1.5c0.1,0,0.2,0,0.2,0.1
		c0.1,0.5,0.1,1,0.2,1.4C63.2,115.1,63.1,115.1,63.1,115.1z M64.1,115.3c-0.2-0.6-0.4-1.1-0.3-1.9C64.4,114.1,63.8,114.7,64.1,115.3
		z M67.3,114.7c0.2,0.3,0.3,0.5,0.4,0.8C67.2,115.3,67.2,115.3,67.3,114.7z M67.2,112.9c-1.5-0.1-2.1-1-1.5-2.7
		c0.2,0.4,0.2,0.7,0.3,0.9c0.7-0.2,0.7-0.2,0.7-1.3c0.5,0.3,1,0.5,1.4,0.7c0.3-0.2,0.7-0.4,1.1-0.7c0-0.3,0.1-0.6,0.1-1
		c0.2,0.4,0.4,0.8,0.6,1.2c0.2-0.1,0.3-0.2,0.3-0.2c0.1-0.3,0.1-0.7,0.2-1.1c0.4,0.8,0.2,1.5,0.6,2.3c0.4,0.7-0.3,1.7-1.1,1.9
		C69,112.9,68.1,112.9,67.2,112.9z M69.5,119.5c0.2-0.5,0.5-1,0.7-1.5c1.1,0.2,1.8,0.8,2.3,1.7C71.5,120.9,71.1,120.9,69.5,119.5z
		 M72.8,117.7c-0.4-0.3-0.8-0.6-1.2-0.9c1.2,0,1.8,0.9,2.5,2C73.4,118.5,73.2,118,72.8,117.7z M71.9,115.1c0.3,0.5,1.3,0.3,1.4,1.2
		c-0.7-0.2-1.3-0.4-1.9-0.5c-0.2-0.7,0.3-1.1,0.8-1.4c0.5-0.4,1.1-0.7,1.8-0.3C73.6,115.2,72.5,114.6,71.9,115.1z M71.7,110.8
		c0.1-0.7,0.2-1.4,0.3-2.3C72.4,109.3,72.3,109.5,71.7,110.8z M72.5,110.8c0.1,0,0.1,0,0.2,0c0,0.2-0.1,0.4-0.1,0.5
		c-0.1,0-0.1,0-0.2,0C72.5,111.2,72.5,111,72.5,110.8z M72.7,107.2c-0.3-0.8-0.1-1.2,0.3-1.7C73.4,106.1,73.1,106.5,72.7,107.2z
		 M74,106.8c0,0.1-0.1,0.2-0.2,0.4c-0.1-0.2-0.1-0.3-0.1-0.4c0-0.3,0.1-0.6,0.2-0.8c0.1,0,0.1,0,0.2,0C74,106.3,74,106.5,74,106.8z
		 M82.7,110c-0.1,0.1-0.3,0.2-0.4,0.3c-1.1,0.5-2,1.2-3.3,1.2c-0.7,0-1.4,0.3-2.1,0.4c-1.4,0.2-2-0.3-2.2-1.8c0.3,0,0.7,0,1.1,0
		c0,0.1,0.1,0.3,0.2,0.4c0.1,0.1,0.2,0.3,0.2,0.4c0.9-0.3-0.2-1.6,1.1-1.6c0,0.3,0.1,0.6,0.2,1.2c0.3-0.6,0.6-1,1-1.7
		c0,0.8,0,1.2,0,1.7c1,0,0.4-1,1.1-1.3c0,0.3,0,0.5,0,0.7c0,0.2,0,0.4,0.3,0.6c0.2-0.4,0.5-0.9,0.7-1.3c0.7-0.2,1.7,0.4,2-0.9
		c-0.2-0.1-0.4-0.1-0.6-0.2c-0.3,0-0.6,0.1-0.9,0c-1.7-0.5-3.3-0.2-4.9,0.4c-0.1,0-0.2,0-0.4,0c0.3-0.5,0.5-1,0.8-1.6
		c-0.5,0-0.7,0-1.1,0c0.3-2.7,1.5-4.2,3.7-4.4c-0.2,0.5-0.3,1-0.5,1.4c0,0.1-0.1,0.3-0.1,0.3c-1.2,0.6-1.3,1.8-1.6,2.8
		c0,0,0,0.1,0,0.2c0.3,0.1,0.7,0.1,1,0.2c1.3-1,3.6-0.9,4.9,0C83.3,108.2,83.4,109.4,82.7,110z M82.3,95.2c1.1-0.5,2-0.3,2.6,0.8
		c0.5,1,0.7,2.1,0.6,3.1c-0.1,1.3-0.7,2.2-2.4,2c-0.3-0.1-0.7-0.1-1.3-0.2c0.6-0.3,1-0.5,1.6-0.4c0.4,0.1,0.5-0.2,0.4-0.7
		c-0.5-0.1-1-0.2-1.5-0.3c0.2-0.9-0.2-1.9,0.7-2.6c0.1-0.2,0.2-0.4,0.3-0.7C82.9,95.9,82.6,95.6,82.3,95.2z M80.9,96.7
		c-0.1,0.9-0.1,1.7-0.2,2.5c-0.1,0.7-0.4,1.5-0.6,2.3c0.4,0.1,0.6,0.1,0.9,0.2c-0.3,0.2-0.5,0.4-0.7,0.6c-0.4-0.3-0.9-0.5-1.2-0.7
		c0-0.6-0.1-1.2-0.1-1.8c0-1.5,0.6-2.8,1.6-3.9c0.2-0.2,0.6-0.3,0.9-0.5c0.2,0.5,0.3,0.8,0.5,1.3C81.6,96.7,81.2,96.7,80.9,96.7z
		 M80.2,104.1c0.2-0.1,0.3-0.5,0.4-0.8c0.4-1.3,2.1-1.8,3.1-1c0.2,0.1,0.3,0.4,0.4,0.7c0.1,0.4,0.1,0.8,0.2,1.3
		c-0.2-0.2-0.5-0.4-0.7-0.6c-0.7,0.7-1.4,1.4-2,2.1c-0.2,0.2-0.1,0.5-0.2,0.8c-0.7-0.1-1.5-0.2-2.4-0.3
		C79.4,105.3,79.5,104.6,80.2,104.1z M87.8,111.3c-1.5,0.8-2.9,1.1-4.7,0.2c0.4-0.4,0.6-0.8,0.9-1c0.2-0.2,0.5-0.3,0.7-0.3
		c0.2,0,0.5,0.1,0.7,0.1c0.3,0,0.5-0.2,0.8-0.3c0.1,0.3,0.3,0.6,0.5,1.1c0.2-0.6,0.2-1,0.4-1.5c0.3,0.2,0.5,0.4,0.6,0.5
		C87.8,110.5,87.8,110.9,87.8,111.3z M87,107.7c0.1-0.1,0.2-0.2,0.3-0.2c0.2,0,0.3,0,0.5,0C87.6,108.1,87.6,108.1,87,107.7z
		 M91.1,88.3c0.2,0.8,0.5,1.5,0.6,2.3c0.1,0.3-0.1,0.7-0.3,1c-0.3,0.9-0.7,1.8-0.4,2.9c0,0.1,0,0.2,0,0.3c0.1,0.5,0.5,0.9,0.9,0.8
		c0.5-0.1,0.7-0.4,0.7-0.9c0-0.7,0-1.4-0.1-2.2c1-1,0.5-2.2-0.1-3.2c-0.4-0.6-0.4-1.1-0.2-1.7c1.1-0.3,1.3-0.2,1.8,0.5
		c0.4,0.6,0.7,1.2,0.7,2c-0.1,1,0.2,1.8,0.7,2.7c-0.2,0.5-0.7,0.6-1.1,0.9c-0.8,0.5-1.2,1.1-1.4,2c-0.1,0.6-0.4,1.2-0.7,2.1
		c-0.7-0.9-1.1-1.6-1.7-2.2c-0.5-0.6-1.2-1-1.9-1.6c0.1-1.1,0.3-2.3,0.3-3.5c0-1,0.7-1.7,1.2-2.4C90.4,87.7,90.9,87.8,91.1,88.3z
		 M89.9,85.3c0-0.2,0-0.4,0-0.7c0.1,0,0.1,0,0.2,0c0,0.2,0.1,0.5,0.1,0.7C90.1,85.3,90,85.3,89.9,85.3z M91.7,84.3
		c0,0.7,0.1,1.3-0.2,2C90.7,84.8,90.7,84.5,91.7,84.3z M94.4,94.4c0,0.5-0.3,0.7-0.8,0.7C93.9,94.9,94.2,94.7,94.4,94.4z M89.3,95.4
		c0.7,0.3,0.9,0.9,1.2,1.5c0.6,1,0.6,1,1.4,1.3c0,0.1,0,0.2-0.1,0.2c-0.9,0.4-1.8,0.8-2.7,1.3c-1.2-1.7-2-3.6-3.7-4.9
		C86.9,94.4,88.1,94.9,89.3,95.4z M88.4,111.2c-0.1-1.1-0.1-1.8,0.5-2.6C89.1,110.1,89.1,110.2,88.4,111.2z M88.8,107.8
		c-0.1,0-0.2-0.1-0.3-0.2c0.1-0.1,0.2-0.3,0.3-0.4c0.1,0.1,0.3,0.3,0.3,0.3C89,107.6,88.9,107.8,88.8,107.8z M89.4,110.4
		c0.1-1.3,0.2-2.4,0.3-3.7C90.3,107.8,90.1,109.3,89.4,110.4z M92.9,99.7c-0.4,0.8,0.5,1.4,0.2,2.1c-0.3-0.3-0.5-0.5-0.9-1
		c0.2,1,0.4,1.6,0.6,2.5c-0.3-0.2-0.5-0.3-0.9-0.5c0,0.4,0,0.7,0,1.1c-0.3-0.2-0.5-0.4-0.9-0.7c0.1,0.6,0.1,1,0.2,1.6
		c-0.4-0.5-0.6-0.7-0.8-1c-0.4,0.1-0.8,0.3-1.2,0.4c0.1,0.3,0.1,0.5,0.2,1.1c-0.3-0.5-0.6-0.8-0.8-1.1c-0.3,0-0.6,0-0.9,0
		c0-0.2-0.1-0.3-0.1-0.4c0.2-1,0.5-2,1.6-2.5c0.3-0.1,0.6-0.5,0.7-0.8c0.2-0.5,0.5-0.7,0.9-0.9c0.9-0.4,1.8-0.4,2.7-0.2
		c0.7,0.2,1.2,0.6,1.3,1.4C93.8,101,93.6,100,92.9,99.7z M99.5,102c-0.1,0-0.1,0-0.2-0.1c0.1-0.2,0.2-0.5,0.2-0.7
		c0.1,0,0.2,0.1,0.2,0.1C99.7,101.5,99.6,101.8,99.5,102z M99.7,95.6c0,0.4,0,0.8,0,1.2c0,0.3,0.1,0.7,0.1,1.1
		c-0.5,0.5-0.8,1.4-1.8,1.4c-0.1,0-0.3,0.2-0.4,0.3c-0.3,0.2-0.7,0.5-1.2,0.9c-0.1-2.4,1.5-3.6,2.6-5.2c-0.2-0.2-0.4-0.4-0.6-0.4
		c-0.4,0-0.8,0.1-1.1,0.4c-0.6,0.6-1.2,1.3-1.7,2c-0.4,0.5-0.8,1.1-1.2,1.6c-0.5-0.1-0.8-0.2-1.2-0.2c-0.3-0.7-0.1-1.2,0.4-1.5
		c0.8-0.5,1.3-1.3,2.3-1.6c0.2-0.1,0.4-0.4,0.6-0.5c0.4-0.3,0.8-0.6,1.2-0.8C98.8,93.8,99.7,94.4,99.7,95.6z M96.7,89.3
		c0.5-0.4,1-0.7,1.5-1.1c0.8-0.6,1.8-0.4,2.7-0.4c-0.3,0.6-0.5,1.2-0.8,1.8c-0.2-0.2-0.4-0.4-0.7-0.8c0.1,0.6,0.1,1,0.1,1.5
		c-0.5-0.4-0.6-1.2-1.4-1.4c0.1,0.3,0.1,0.5,0.1,0.7c0.2,0.4,0.4,0.7,0.5,1.1c0.2,0.6,0.1,0.9-0.6,1c-0.4,0-0.9,0.1-1.3,0.1
		c-0.3,0-0.6-0.1-0.9-0.1C95.5,90.5,95.9,89.8,96.7,89.3z M95.1,86.3c0.1,0,0.2-0.1,0.2-0.1c0.1,0.3,0.2,0.5,0.3,0.8
		c0,0-0.1,0-0.1,0.1C95.4,86.8,95.3,86.6,95.1,86.3z M100.3,86.2c-0.4,0.2-0.6,0.3-0.9,0.5c-0.1-0.5-0.2-0.8-0.3-1.2
		c0.1,0,0.1-0.1,0.2-0.1C99.6,85.6,99.9,85.9,100.3,86.2z M99.4,84.1c0.7,0.1,0.8,0.6,1,1C100,85,99.6,84.8,99.4,84.1z M101.1,95.9
		c-0.3-1.1-0.5-2.2,0.2-3.4C101.5,93.8,101.3,94.8,101.1,95.9z M100.8,100.6c0-0.7,0.4-1.3,0.8-1.9
		C101.6,99.7,101.6,99.7,100.8,100.6z M101.8,96.8c-0.3-1,0.1-1.8,0.2-2.5C102.2,95.1,102.2,95.9,101.8,96.8z M100.1,82.6
		c0.6,0.5,0.9,0.9,1.1,1.6C99.9,83.7,99.9,83.6,100.1,82.6z M100.2,81.8c-2,0.7-1.8,2.6-2.1,4.1c-0.6,0.2-0.8-0.2-0.9-0.7
		c-0.4-1.8,0.8-3.5,2.6-3.7c0.3,0,0.6,0,1-0.1c0.3,0.5,0.6,1.1,0.9,1.6c0,0-0.1,0.1-0.1,0.1C101,82.7,100.6,82.2,100.2,81.8z
		 M105.7,93.2c-0.2,0.7-0.5,1.3-0.7,2.1c-0.4,0.1-0.8,0.2-1.1,0.3c-0.9-0.4-1.2-1.8-0.8-3.3c0.4-1.5,1.8-2.7,3.4-2.1
		c-0.1,0.5-0.3,0.9-0.4,1.3C106,92,105.9,92.6,105.7,93.2z M101.8,81.3c0.1,0.2,0.1,0.5,0.2,0.7c-0.1,0-0.1,0-0.2,0.1
		c-0.1-0.2-0.2-0.5-0.3-0.7C101.6,81.4,101.7,81.3,101.8,81.3z M101.5,79.7c0-0.3,0-0.6-0.1-0.8c0.1,0,0.1,0,0.2,0
		c0,0.3,0,0.6,0.1,0.8C101.7,79.7,101.6,79.7,101.5,79.7z M106.9,95c0-0.6,0-0.6,0.9-0.9C107.5,94.4,107.2,94.8,106.9,95z M108,93.2
		c0-1.3,0-2.5,0-3.7C108.8,90.8,108.8,92,108,93.2z M107.6,86.4c-1.5,1.1-3.1,2.4-4.9,3.1c-0.3-0.6-0.1-1.1,0.1-1.5
		c0.5-1.1,1.2-2,2.1-2.7c0.9-0.7,1.9-1.1,3-1.4c0.4-0.1,0.9-0.2,1.3,0.2C109,85.1,108.3,85.9,107.6,86.4z M103.2,80.4
		c-0.1,0.5-0.1,0.8-0.2,1C102.5,81.1,102.5,81.1,103.2,80.4z M102.1,75c0.1-0.1,0.1-0.1,0.2-0.2c0.2,0.2,0.3,0.3,0.5,0.5
		c0,0.1-0.1,0.1-0.1,0.2C102.5,75.3,102.3,75.1,102.1,75z M104.3,78.1c-0.2-0.5-0.4-0.9-0.7-1.4c0.5,0,0.8,0.1,1.3,0.1
		c0.1-0.1,0.2-0.1,0.2-0.2c1.7-1.7,2-1.7,4.1-0.8c1.3,0.6,1.5,1.6,0.5,2.7c-0.9-0.4-1.8-0.8-2.7-1.1C106,77.1,105.2,77.9,104.3,78.1
		z M106.5,79c-0.2,0-0.4,0.1-0.6,0.1c0,0-0.1-0.2-0.1-0.2c0.2-0.1,0.4-0.1,0.5-0.2C106.5,78.8,106.5,78.9,106.5,79z M103.6,73.9
		c-0.1,0-0.1,0-0.2,0.1c-0.1-0.2-0.2-0.3-0.2-0.5c0-0.1,0.1-0.3,0.1-0.4c0.1,0,0.1,0,0.2,0C103.5,73.3,103.5,73.6,103.6,73.9z
		 M111.4,90.4c0,0.6,0,1.1,0,1.9c-0.3-0.7-0.4-1.1-0.6-1.5c-0.1,0-0.1,0-0.2,0c-0.1,0.5-0.2,1-0.2,1.4c-0.2-1.4-0.7-2.7,0-4.2
		c0.6-1.2,1-1.5,2.4-1.3c0.1,0,0.3,0.1,0.4,0.1c0.6,1.6-0.8,2.6-1.2,3.8C111.8,90.5,111.7,90.5,111.4,90.4z M112.6,83.7
		c0.4,0.4,0.6,0.8,0.4,1.5C112.5,84.7,112.4,84.4,112.6,83.7z M115.6,90c-1.1,0.7-1.6,1.9-2.6,2.7c-0.1,0.1-0.2,0.1-0.5,0.2
		c0.1-1.1,0.9-1.7,1.3-2.6c0.3-0.8,1-1.5,1.6-2.3C116,88.9,116.1,89.7,115.6,90z M115.8,83.3c-0.2-0.5-0.4-0.8-0.5-1.1
		c-0.5-0.1-0.8,0.5-1.3,0.3c-0.2-0.1-0.8,0.4-1.1,0c-0.5,0.3-1,0.6-1.5,0.9c0.2,0.7,0.4,1.5,0.7,2.5c-1.1-0.5-0.6-1.8-1.6-2
		c-0.3,0.9,0.9,2-0.4,2.7c-0.5-0.3-0.5-0.6-0.3-1.1c0.3-0.8,0.5-1.6-0.2-2.4c1.1-0.4,1.7-1.1,1.5-2.2c0.7-0.4,1.3-0.7,1.9-1.1
		c1-0.6,1.9-0.4,2.7,0.6C116.5,81.2,116.5,82.2,115.8,83.3z M117.8,84.7c0.1-1.2,0.7-2.2,1.6-3c0.1,0.1,0.2,0.1,0.3,0.2
		C119,82.8,118.4,83.8,117.8,84.7z M119.7,83.3c0.5-1.4,1.1-2,2.2-2.2c0,0.2,0,0.4-0.1,0.7C120.6,81.5,120.5,82.9,119.7,83.3z
		 M122.7,83.5c0,0.2-0.3,0.3-0.6,0.4c0.3-0.9-0.1-1.9,0.4-2.8c0.1,0,0.2,0,0.3,0C122.8,81.9,122.8,82.7,122.7,83.5z M122.8,80.1
		c-0.2-0.1-0.5-0.2-0.7-0.4c0.1-0.1,0.1-0.2,0.2-0.2c0.2,0.1,0.4,0.3,0.7,0.4C122.9,80,122.8,80.1,122.8,80.1z M126.2,77.9
		c0,0,0,0.1,0,0.1c0,0,0,0,0,0c0.1,0.9,0.3,1.8-0.6,2.7c-0.2-1.2,0.1-2,0.6-2.7c0,0,0,0,0-0.1C126.2,77.9,126.2,77.9,126.2,77.9
		c0-0.3,0-0.6,0-0.9c0.1,0,0.1,0,0.2,0C126.4,77.3,126.3,77.6,126.2,77.9z M108.7,62.1c0.2,0,0.4,0,0.6-0.1c0,0.1,0,0.1,0,0.2
		c-0.2,0-0.4,0-0.6,0.1C108.8,62.3,108.8,62.2,108.7,62.1z M110.6,63.1c-0.3,0.5-0.5,0.9-0.9,1.6c-0.1-0.7-0.1-1-0.2-1.4
		C109.8,63.2,110.1,63.1,110.6,63.1z M108.4,63.7c-0.2,0.3-0.4,0.6-0.6,1C107.6,63.8,107.6,63.8,108.4,63.7z M107.7,66
		c0-0.8,0.6-1.1,1.1-1.7c0,0.2,0.1,0.5,0.1,0.7c0.1,0.8-0.3,1.6,0.1,2.5c0.1,0.2-0.1,0.7-0.2,1c-0.1,0.4-0.3,0.8-0.5,1.3
		c1.3-0.6,1.1-1.9,1.6-2.8c-0.1-0.4-0.4-0.8-0.3-1.1c0.1-0.7,0.5-1.2,1.2-1.9c0,1.6,0.2,2.8,0,4.1c0,0,0,0,0,0c0,0,0,0,0,0l0,0
		c0.1,0.5,0.1,0.9-0.1,1.4c-0.2,0.4-0.4,0.9-0.3,1.4c1.2-1.5,0.9-3.1,0.9-4.7c0-0.9,0-1.9-0.1-2.8c0-0.4,0.2-0.8,0.6-0.7
		c0.2,0,0.5,0.3,0.6,0.6c0.3,0.7,0,1.4-0.3,1.8c0.2,0.4,0.4,0.7,0.5,1c0.1,1.2,0.1,2.4,0.3,3.6c0-0.2,0.1-0.3,0.1-0.5
		c0.1-1.5,0.1-3,0.2-4.5c0-1,0.1-1.1,1.1-1.8c0.5,2.4,0,4.8,0.5,7.1c0.1-2.3,0.2-4.6,0.3-6.9c0.5-0.2,1-0.1,1.5,0.3c0,2,0,4,0.1,6.1
		c0.1,0,0.2,0,0.3,0c0.2-2,0-3.9,0.3-6c0.5,0,0.9,0.1,1.2,0.1c0.6,0.9-0.2,1.8,0.3,2.8c0.4-0.4,0.3-0.9,0.4-1.3
		c0.1-0.4,0.1-0.8,0.2-1.3c0.3,0.2,0.5,0.2,0.6,0.4c0.1,0.2-0.1,0.5,0,0.6c0.1,0.2,0.3,0.4,0.5,0.5c0.1,0,0.3-0.2,0.4-0.4
		c0.1-0.2,0.2-0.4,0.2-0.5c0.6-0.1,0.8,0.1,1.1,0.4c0.7,0.5,1.5,1.1,2.3,1.6c-0.3,0.2-0.6,0.4-0.9,0.6c0.1,0.1,0.1,0.3,0.2,0.3
		c0.7,0,1.2,0.4,1.5,1.1c0.4,0.7,0.8,1.4,1.2,2.1c0.1,0.3,0.2,0.6,0.2,0.9c0,1.1-0.1,2.1-0.2,3.2c0,0.5-0.3,0.9-0.6,1.3
		c0-0.4,0-0.9-0.1-1.3c-0.6,1.5-0.4,3.2-1,4.7c-0.1-1.2,0.3-2.3,0-3.5c-0.4,0.4-0.4,0.4-0.5,1.9c0,0.6,0.2,1.3-0.4,2.2
		c-0.1-0.7-0.2-1.2-0.3-1.9c-0.3,0.5-0.4,0.8-0.6,1c-0.5-0.3-1.2-0.3-1.3-1.2c0-0.4-0.4-0.6-0.8-0.6c-0.7,0-1.3-0.1-2,0.2
		c-0.6,0.3-1.3,0.5-2,0.8c-0.2,0.1-0.3,0.3-0.4,0.7c0.3-0.1,0.6-0.1,0.9-0.2c0.5-0.2,1-0.5,1.4-0.7c0.6-0.2,1.1-0.2,1.6,0.2
		c-0.3,1.5-0.3,1.5-1.6,1.7c-0.2,0-0.4,0.1-0.6,0.2c-0.2,0-0.4,0.1-0.7,0.1c-0.2-0.3-0.4-0.6-0.5-0.6c-0.7-0.2-1.3-0.5-1.8-0.6
		c-0.5-0.1-1-0.2-1.6-0.2c-0.5,0-0.9,0.2-1.5,0.3c-0.1-0.2-0.3-0.4-0.4-0.6c-0.1-0.3-0.2-0.6-0.3-0.9c-0.5-1.5-1.6-2.4-3.1-2.8
		c-0.3-0.1-0.5-0.2-0.7-0.3c0,0-0.1-0.1-0.2-0.2c0.5-1.5,0.4-2.9-1-4c0.2-0.7,0.3-1.3,1-1.6C107.6,67.8,107.7,66.9,107.7,66z
		 M106.6,63.5c0.1,0.1,0.2,0.1,0.2,0.2c-0.2,0.3-0.4,0.5-0.5,0.8c-0.1-0.1-0.2-0.1-0.2-0.2C106.2,64,106.4,63.8,106.6,63.5z
		 M104.7,64.1c0-0.1,0.2-0.2,0.4-0.3c0.1,0.1,0.2,0.1,0.2,0.2c-0.1,0.2-0.3,0.5-0.5,1C104.7,64.5,104.7,64.3,104.7,64.1z
		 M105.3,65.3c0.2,0.7,0.2,0.7-0.5,1.4C104.5,66.1,104.9,65.7,105.3,65.3z M105.9,68.7c0.5-1.4-0.4-2.9,1-4c0.4,0.6,0.1,1.2-0.1,1.7
		c0.2,0.1,0.3,0.2,0.5,0.3c-0.4,1.1-0.7,2.2-1.1,3.3c-0.6,0-1.1-0.1-1.1-0.7C105,68.9,105.4,68.6,105.9,68.7z M104,65.2
		c0.3,0.5,0.1,0.8-0.2,1.2C103.6,65.8,103.6,65.8,104,65.2z M104.1,68.7c0.2,0.2,0.3,0.3,0.5,0.5c-0.1,0.1-0.1,0.2-0.2,0.2
		c-0.4-0.2-0.8-0.3-1.2-0.5c0.2-0.5,0.4-1,0.7-1.6C104.4,67.8,103.9,68.3,104.1,68.7z M102.9,66.7c0.3,0.8,0.3,0.8-0.2,1.4
		C102.4,67.3,102.4,67.3,102.9,66.7z M101.6,66.3c0.2,0.6,0.2,1-0.2,1.4C101.3,67.2,101.2,66.8,101.6,66.3z M100.5,68.1
		c0.4,0.6,0.4,0.6-0.1,1.1C100.4,68.8,100.4,68.5,100.5,68.1z M100.8,70.7c0.8-0.9,1.5-1.2,2.7-0.7c0.7,0.2,1.6,0.8,2.1,1.4
		c-1.9-0.4-3.8-0.6-5.2,0.8c-0.1,0.8,1.1,0.5,0.7,1.3c-0.5,0.1-0.8-0.1-0.9-0.6C99.8,72.1,100.2,71.4,100.8,70.7z M100.1,75.1
		c0.6,0.1,0.9,0.8,0.4,1.1c-0.7,0.5-0.7,1.4-1.4,1.8c-0.2,0.1-0.2,0.6-0.3,1c-0.9,0.4-1.7,0.9-2.7,0.4c0.6-1.4,1.5-2.6,2.4-3.8
		C98.9,75.2,99.5,75,100.1,75.1z M98.4,68.6c0.1,0,0.1,0.1,0.2,0.1c-0.1,0.2-0.2,0.5-0.3,0.7c-0.1,0-0.2-0.1-0.3-0.1
		C98.2,69,98.3,68.8,98.4,68.6z M98.7,71c0,0.8-0.5,1.1-0.6,1.6C97.9,71.9,98.3,71.6,98.7,71z M98.1,73.3c0.1,0.2,0.1,0.5,0.2,0.8
		c-0.3,0-0.4,0-0.7,0c0.1-0.3,0.2-0.6,0.3-0.8C98,73.3,98.1,73.3,98.1,73.3z M96.8,68.1c0.1,0,0.1,0,0.2,0c0,0.2-0.1,0.4-0.1,0.7
		c-0.1,0-0.1,0-0.2,0C96.7,68.6,96.7,68.3,96.8,68.1z M92.1,76c0.1-0.2,0.3-0.2,0.5-0.4c0.1-0.1,0.4-0.1,0.4-0.3
		c0.3-1.2,1.5-1,2.3-1.3c0.4-0.1,0.9,0.2,1.4,0.4c-0.2,1.1-0.8,1.8-1.6,2.1c-1.1,0.4-1.6,1.2-1.7,2.3c0,0.1-0.1,0.2-0.1,0.2
		c0,0-0.1,0.1-0.2,0.1c-0.1-0.4-0.1-0.8-0.2-1.3c-0.6,0.1-1.1,0.1-1.6,0.2C91.5,77.5,91.7,76.7,92.1,76z M94.3,78.6
		c0,0.4,0,0.7,0,1.1c-0.1,0-0.2,0-0.3,0c0-0.4,0.1-0.7,0.1-1.1C94.2,78.6,94.3,78.6,94.3,78.6z M88.1,82.8c1-0.4,2-0.8,3.1-0.9
		c1-0.1,2-0.4,3-0.7c0.6,0.4,0.6,0.4,0.9,1.2c-0.3,0.3-0.6,0.6-1,1c0.1,0.4,0.3,0.7,0.5,1.1c-0.4,0-0.6-0.1-0.8-0.1
		c-0.2,0-0.3,0.2-0.6,0.4c0.1-1,0-1.8-1.2-2.4c-0.6,0.1-1.4,0.2-2.2,0.3c-1.2,0.1-1.6,0.9-2.2,1.8c0.4,0.1,0.6,0.2,0.9,0.3
		c0.2,0.1,0.5,0.1,0.7,0.3c0.1,0.1,0.1,0.4,0.1,0.5c-0.1,0.1-0.3,0.2-0.4,0.2c-0.5-0.2-1-0.4-1.4-0.7c-0.4-0.2-0.5-0.6-0.3-1.1
		C87.2,83.5,87.5,83,88.1,82.8z M86.2,77.1c-0.1,0.6-0.1,1.3-0.8,2C85.5,78.2,85.6,77.6,86.2,77.1z M85.6,80.5c0,0,0.1,0,0.2-0.1
		c0.1,0.1,0.1,0.1,0.1,0.2c0,0.2-0.1,0.4-0.2,0.6c0,0-0.2,0-0.2,0C85.5,80.9,85.6,80.7,85.6,80.5z M85.5,84.2
		c0.1-0.3,0.2-0.6,0.4-1.1c0.1,0.7,0.1,0.7-0.4,1.4C85.5,84.4,85.5,84.3,85.5,84.2z M84.7,91.3c-0.3,0.9-0.3,1.8-0.4,2.9
		c-0.6,0-1.3,0-2.1,0c0.5-1.1,0.8-2,1.3-2.9c0.4-0.8,0.9-1.5,1.4-2.3c0.2-0.3,0.2-0.3,1-0.3C85.5,89.7,85,90.5,84.7,91.3z
		 M83.8,79.2c-0.1,0.6-0.2,1-0.2,1.3C83.3,80.1,83,79.7,83.8,79.2z M84.8,82.9c0,0.9,0,1.7,0,2.6c-0.4,0.2-0.5,0.6-0.5,1.3
		c0.3-0.3,0.4-0.5,0.6-0.6c0,0.6,0.1,1.1-0.6,1.6C84,86,84.1,84.4,84.8,82.9z M83.5,84c0,1.2,0.1,2.4,0.1,3.6c0,0.5,0.1,1-0.6,1.6
		c0.2-1.9-0.3-3.6,0.3-5.4C83.4,83.9,83.5,84,83.5,84z M81.8,84c0.1-0.4,0.2-0.8,0.3-1.2C82.5,83.4,82.2,83.7,81.8,84z M82.6,80.7
		c-0.2,0.6-0.5,1.1-0.7,1.7c-0.1,0-0.2-0.1-0.3-0.1C81.7,81.6,81.9,81,82.6,80.7z M82.8,89.3c0,0.8-0.2,1.5-0.6,2.3
		c-0.5-1.5-0.5-2.8-0.4-4.1C82.5,88,82.8,88.6,82.8,89.3z M80.8,83.9c0.1,0,0.2,0,0.3,0c0,0.4,0.1,0.9-0.6,1.4
		C80.6,84.7,80.7,84.3,80.8,83.9z M80.9,87.6C80.9,87.6,80.9,87.5,80.9,87.6c-0.3-0.4-0.3-0.8,0.1-1.3C81.2,86.8,81,87.2,80.9,87.6
		C80.9,87.5,80.9,87.5,80.9,87.6C80.9,87.6,80.9,87.6,80.9,87.6c0.1,0,0.2,0.1,0.2,0.1c0.3,1.5,0.7,3,0.4,4.6c0,0.1-0.1,0.1-0.1,0.2
		C80.8,91.6,80.7,90.2,80.9,87.6C80.9,87.6,80.9,87.6,80.9,87.6z M81.4,93.6c0.1,0,0.2,0,0.3,0c0.1,0.4,0.3,0.8-0.5,1.2
		C81.2,94.3,81.3,93.9,81.4,93.6z M79.7,84.1c0.2,1.2,0.2,1.3-0.4,2.5C79,85.6,79.3,84.9,79.7,84.1z M79.3,88.4c0.1,0,0.2,0,0.3,0
		c0,0.9,0.1,1.7,0.1,2.6c0,0,0,0,0,0c0,0,0,0,0,0c0.1-0.1,0.2-0.1,0.4-0.3c0.4,0.4,0.6,0.9,0.5,1.5c-0.1,0.6-0.2,1.1,0.1,1.7
		c0.2,0.4,0.1,0.8-0.4,1.1c-0.6-1.3-0.7-2.7-0.5-4.1c0,0,0,0,0,0c0,0,0,0,0-0.1C79.1,90.1,79.4,89.2,79.3,88.4z M78.4,85
		c0.1,0,0.1,0,0.2,0c0,0.2-0.1,0.4-0.1,0.6c-0.1,0-0.1,0-0.2,0C78.3,85.4,78.4,85.2,78.4,85z M76.2,90.5c0.1-0.5,0.3-1.1,0.4-1.6
		c0,0,0,0,0,0c0,0,0,0,0,0c-0.1,0-0.2,0.1-0.5,0.1c0-0.9,0-1.8,0.8-2.6c0.1,0.6-0.1,1.1-0.2,1.5c-0.1,0.3-0.1,0.7-0.1,1c0,0,0,0,0,0
		c0,0,0,0,0,0c0.1-0.1,0.2-0.1,0.4-0.2c0.5,1-0.2,1.8-0.2,2.8c0.2-0.1,0.4-0.2,0.6-0.3c0.3,1.3,0.4,2.6,1,3.8
		c-0.2-2.6-0.9-5.2,0.3-7.9c0.1,0.4,0.2,0.7,0.2,1.1c-0.2,1.7,0.4,3.2,0.4,4.9c0,0.8,0.1,1.7,0.1,2.5c0.1,0.7-0.3,1.1-1,1.2
		c0-0.3,0-0.5,0-0.9c-0.5,0.1-0.9,0.2-1.4,0.4c-0.5-1.2-0.7-2.4-0.3-3.7C76.1,92,76,91.3,76.2,90.5z M74.9,92.1
		c-0.1-0.5,0.2-1,0.5-1.5c0,0.7,0.1,1.4,0.1,2c0,0.6,0.1,0.6,0.6,1.7c0.3,0.7,0.4,1.6,0.4,2.3c0,0.4-0.4,0.8-0.9,0.9
		C75.4,95.7,75.1,93.9,74.9,92.1z M74.1,89.8c0,2.1-0.4,4-0.1,5.8c0.1-0.6,0.3-1.1,0.4-1.7c0.1,0.8,0.5,1.7-0.2,2.4
		c-0.1,0.4-0.1,0.8-0.2,1.3C73.1,95.6,73.1,91.9,74.1,89.8z M74.9,98.4c-0.5-0.4-0.4-0.9-0.1-1.6C75.2,97.4,75.1,97.9,74.9,98.4z
		 M72.4,92.8c0.2,0.8,0,1.3-0.4,2C71.7,94,71.8,93.5,72.4,92.8z M71.8,97.6c0.2-0.7,0.3-1.2,0.5-1.9c0.2,0.4,0.3,0.7,0.4,1
		c0.1-0.2,0.2-0.3,0.3-0.5c0.1,0.7,0.3,1.3,0.4,2c-0.8,0.1-1.5,0.3-2.2,0.4c-0.2-0.8-0.2-1.6,0.1-2.6C71.6,96.6,71.7,97,71.8,97.6z
		 M70.6,96.4c-0.3-0.6-0.2-0.9,0.3-1.3C70.8,95.5,70.7,95.8,70.6,96.4z M70.7,92.6c0.1,0.7-0.2,1.2-0.5,1.8
		C69.9,93.3,69.9,93.3,70.7,92.6z M70.8,96.9c0,0.6,0,1.1-0.1,1.6C70.5,97.7,70.5,97.7,70.8,96.9z M69.7,97.3
		c0.3,0.4,0.3,0.4-0.1,0.8C69.7,97.9,69.7,97.6,69.7,97.3z M68.9,94.5c0.1,0,0.2,0.1,0.3,0.1c-0.1,0.2-0.2,0.4-0.2,0.7
		c-0.1,0-0.1,0-0.2,0C68.8,95,68.9,94.7,68.9,94.5z M69,96.7c0.1,0,0.1,0,0.2,0c0,0.3,0,0.5,0,0.8c-0.1,0-0.1,0-0.2,0
		C69,97.2,69,96.9,69,96.7z M69.6,102C69.6,102,69.6,102,69.6,102C69.6,102,69.6,102,69.6,102c0-1.5,0.2-1.8,1.6-2.2
		c0.7-0.2,1.5-0.3,2.2-0.5c0.9-0.2,1.4,0.2,2,0.8c0.5,0.5,0.8,1.1,1.7,1.1c0.6,0,0.6,0.5,0.1,1c-0.2-0.2-0.3-0.4-0.5-0.6
		c-0.4,0-1.1,0.6-1.2,1.1c-0.1,0.3,0,0.6-0.1,0.9c0,0.1-0.2,0.2-0.4,0.4c-0.1-0.4-0.1-0.7-0.1-0.9c0-0.2,0-0.4,0-0.7
		c-1-0.3-0.7,0.7-1.1,1.1c-0.1-0.4-0.2-0.7-0.3-1.1c-0.1,0-0.2-0.1-0.2-0.1c-0.5,0.1-0.8,0.3-1.3-0.2c-0.4-0.5-0.8-0.3-1.4,0.8
		c0-0.3-0.1-0.4-0.1-0.6c0-0.2,0-0.3-0.1-0.6C70,101.9,69.8,101.9,69.6,102C69.7,102,69.7,102,69.6,102C69.6,102,69.6,102,69.6,102
		c0,0.4-0.2,0.5-0.8,0.4C69.2,102.2,69.4,102.1,69.6,102z M68.8,100.5c0,0.3-0.1,0.5-0.1,0.8c-0.1,0-0.1,0-0.2,0
		c0-0.3,0.1-0.5,0.1-0.8C68.7,100.5,68.8,100.5,68.8,100.5z M68.1,96.7c0,0.6,0.1,1,0.1,1.4c-0.1,0-0.2,0-0.3,0
		C67.7,97.7,67.6,97.3,68.1,96.7z M67.3,99.2c0.7,1,0.5,2,0.5,3.1C67.1,101.8,67.1,101.8,67.3,99.2z M66.1,100.1c0.1,0,0.1,0,0.2,0
		c0,0.3-0.1,0.6-0.1,0.9c-0.1,0-0.1,0-0.2,0C66.1,100.7,66.1,100.4,66.1,100.1z M67.2,103.1c1.3,0,1.1,1.5,2,1.8
		c-0.4,0.8-0.8,1.4-1.3,2.2c0.2,0.4,0.7,0.7,0.5,1.5c-0.2-0.2-0.4-0.3-0.6-0.5c-0.3,0.2-0.7,0.4-1.1,0.7c-0.7,0.5-1.3,0.6-2.1,0.1
		c0.2-0.8,0.5-1.6,0.9-2.3c0.1-0.2,0.3-0.4,0.4-0.7C66.6,105,67.2,104.2,67.2,103.1z M64.8,100.3c0.1,0,0.2,0,0.2,0
		c0.1,0.8,0.2,1.6,0.3,2.4c0,0.1-0.3,0.3-0.6,0.7C64.8,102.1,64.8,101.2,64.8,100.3z M63.9,100.5c0.5,0.6,0,1.2,0,1.8
		c0.1,0.5,0.5,1.1-0.1,1.6C63.8,102.7,63,101.6,63.9,100.5z M62.6,103.7c0.3,0.8,0.3,0.8-0.3,1.6C62.1,104.6,62.3,104.2,62.6,103.7z
		 M61.4,105.2c0.1,0,0.1,0,0.2,0c-0.1,0.2-0.1,0.5-0.2,0.7c0,0-0.1,0-0.1,0C61.3,105.7,61.4,105.4,61.4,105.2z M61,108.6
		c0.3-0.7,0.7-1.5,1.2-2.1c0.8-1,1.8-1.8,2.8-2.6c0.1-0.1,0.2-0.1,0.6-0.2c-0.1,0.4-0.1,0.7-0.2,0.9c-0.4,0.6-0.8,1.2-1.2,1.7
		c-0.5,0.6-0.8,1.2-0.9,2c0,0.7-0.7,1.3-1.4,1.3C61.2,109.7,60.8,109.1,61,108.6z M60.4,112.2c-0.1,0-0.1,0-0.2,0c0-0.2,0-0.4,0-0.6
		c0,0,0.1,0,0.1,0C60.3,111.8,60.3,112,60.4,112.2z M58.3,111.2c0-1.4,0.1-2.8,0.2-4.2c0-0.4,0.1-0.7,0.5-0.9
		c0.3,0.3,0.2,0.7,0.2,1.1c-0.1,1.3-0.1,2.6-0.2,3.8c0.2-0.8,0.4-1.5,0.5-2.3c0.1-0.3,0.1-0.7,0.2-1c0.3,0.9,0.1,1.9,0,2.8
		c-0.1,0.9,0.2,1.8-0.6,2.6c0-0.7-0.1-1.4-0.1-2.2c-0.2,0.7-0.3,1.3-0.5,2c0,0-0.1,0-0.1,0C58.3,112.4,58.3,111.8,58.3,111.2z
		 M59.6,117.7c-0.3,1.1-0.3,2.1-1.6,2.4c0.5,0.5,0.6,1.1,1.3,1.4c0.7-0.4,0.7-1.3,1.4-2c-0.1,0.8-0.2,1.5-0.2,2.2
		c0.1,0.1,0.3,0.3,0.6,0.5c-0.1,0.1-0.2,0.3-0.4,0.3c-0.8,0-1.7,0-2.4-0.6c-0.9-0.6-1-1.7-0.4-2.6C58.2,118.7,58.7,118.1,59.6,117.7
		z"/>
	<path fill="#29292F" d="M151.3,92.8c-0.5,0.8-1,1.6-1.5,2.3c-0.8-0.2-0.8-0.2-1.2,0.3c0.2,0.3,0.5,0.7,0.7,1
		C150.5,95.5,151.1,94.2,151.3,92.8z"/>
	<path fill="#29292F" d="M149.4,96.4C149.4,96.4,149.4,96.5,149.4,96.4C149.4,96.5,149.4,96.5,149.4,96.4
		C149.4,96.5,149.4,96.5,149.4,96.4C149.4,96.5,149.4,96.5,149.4,96.4z"/>
	<path fill="#29292F" d="M44.1,143.3c-0.2,0.5-0.3,1.1-0.5,1.6c-0.2,0.5-0.4,1.1-0.6,1.6c-0.2,0.5-0.7,0.9-0.7,1.6
		C43.5,147.1,44.4,144.7,44.1,143.3z"/>
	<path fill="#29292F" d="M154.4,89.9c0.1,0,0.2-0.1,0.2-0.1c0.1-0.1,0.2-0.3,0.3-0.5c-0.1-0.1-0.1-0.1-0.2-0.2
		c-1.2,0.8-2.4,1.6-3.5,2.4c0.1,0.5,0.1,0.8,0.1,1.1C152.1,91.4,153.1,90.6,154.4,89.9z"/>
	<path fill="#29292F" d="M151.4,92.7C151.3,92.7,151.3,92.7,151.4,92.7c0,0.1,0,0.1,0,0.1C151.3,92.7,151.3,92.7,151.4,92.7
		C151.4,92.7,151.4,92.7,151.4,92.7z"/>
	<path fill="#29292F" d="M143.6,30.3c0,0.1,0.1,0.2,0.1,0.3c0.8-0.5,2.3-2.5,2.5-3.3C145.1,28.1,144.4,29.2,143.6,30.3z"/>
	<path fill="#29292F" d="M159.1,97.6c-0.3,0.5-0.8,0.7-1.2,0.9c-0.4,0.2-0.7,0.6-1,0.9c0.8-0.4,1.6-0.8,2.5-1
		c0.6-0.2,0.8-0.5,0.9-1.3C159.8,97.3,159.3,97.4,159.1,97.6z"/>
	<path fill="#29292F" d="M45.5,143.3c-0.4,1.1-0.8,2.1-1.2,3.4c1.4-0.7,1.2-1.8,1.5-2.8C45.8,143.7,45.8,143.3,45.5,143.3z"/>
	<path fill="#29292F" d="M179.2,94.1c1.2,0.4,2.2,0.1,2.9-0.9C181.7,93.2,180.2,93.6,179.2,94.1z"/>
	<path fill="#29292F" d="M153.2,98.1c-0.4,0-0.6,0.1-0.8,0.3c-0.5,0.4-0.8,1-1.5,1.2c0.3,0.2,0.6,0.5,0.9,0.8
		C152.3,99.5,152.8,98.8,153.2,98.1z"/>
	<path fill="#29292F" d="M150.9,99.5C150.9,99.5,150.9,99.5,150.9,99.5C150.9,99.5,150.9,99.5,150.9,99.5
		C150.9,99.5,150.9,99.5,150.9,99.5C150.9,99.5,150.9,99.5,150.9,99.5z"/>
	<path fill="#29292F" d="M46.1,145.8c1-0.4,1.4-1.5,1-2.7C46.8,144,46.2,144.8,46.1,145.8z"/>
	<path fill="#29292F" d="M55.8,131c-0.6-0.5-1.2,0.2-1.9-0.1c0.1,0.4,0,0.6,0.1,0.8c0.1,0.1,0.4,0.3,0.6,0.2
		C55.1,131.9,55.6,131.7,55.8,131z"/>
	<path fill="#29292F" d="M145.5,98.6C145.4,98.6,145.4,98.6,145.5,98.6C145.4,98.6,145.4,98.6,145.5,98.6
		C145.4,98.6,145.4,98.6,145.5,98.6C145.4,98.6,145.4,98.6,145.5,98.6z"/>
	<path fill="#29292F" d="M146.2,98.8c0.7-0.9,1.2-1.9,1.2-3.2c-0.4,1.2-1.2,2.1-2,3C145.7,98.5,146.1,98.2,146.2,98.8z"/>
	<path fill="#29292F" d="M139.4,31.6c-0.5-0.6-0.2-1.1,0-1.6c-0.7,0.4-1.1,1-1.3,1.8c0.4,0.2,0.8,0.3,1.3,0.5
		C139.4,32,139.5,31.7,139.4,31.6z"/>
	<path fill="#29292F" d="M138.1,31.8C138.1,31.8,138.1,31.8,138.1,31.8C138.1,31.8,138.1,31.8,138.1,31.8
		C138.1,31.8,138.1,31.8,138.1,31.8C138.1,31.8,138.1,31.8,138.1,31.8z"/>
	<path fill="#29292F" d="M161.2,90.6c0.2-0.1,0.5-0.3,0.4-0.9c-1.1,0.8-2.1,1.5-3.1,2.2C159.4,91.5,160.3,91,161.2,90.6z"/>
	<path fill="#29292F" d="M166.7,95.7C166.7,95.7,166.6,95.8,166.7,95.7c-0.1,0-0.1,0.1-0.1,0.1C166.6,95.8,166.6,95.8,166.7,95.7
		C166.6,95.8,166.7,95.7,166.7,95.7z"/>
	<path fill="#29292F" d="M170,93.5c-1.3,0.7-2.4,1.2-3.3,2.2c0.6-0.3,1.1-0.5,1.7-0.8C168.9,94.6,169.7,94.6,170,93.5z"/>
	<path fill="#29292F" d="M38,139.8c0.3,0.4,0.5,0.8,0.8,1.3c0.3-0.3,0.6-0.6,0.8-0.9C38.7,139.3,38.7,139.3,38,139.8z"/>
	<path fill="#29292F" d="M51.6,114.1C51.6,114.1,51.5,114.1,51.6,114.1C51.5,114.1,51.5,114.1,51.6,114.1
		C51.5,114.1,51.5,114.1,51.6,114.1C51.6,114.1,51.6,114.1,51.6,114.1z"/>
	<path fill="#29292F" d="M53.6,110.6c-1,1.1-1.6,2.2-2,3.4C52.2,113.4,53.2,111.8,53.6,110.6z"/>
	<path fill="#29292F" d="M151.3,100.5c-0.6,0.2-0.5,0.5-0.1,1c0.6-0.3,1.4-0.2,1.6-1.2C152.4,100.4,151.8,100.4,151.3,100.5z"/>
	<path fill="#29292F" d="M140.8,30.1c0.1-0.1,0.2-0.3,0.3-0.5c-0.4-0.2-0.7-0.4-1-0.6c-0.2,0.2-0.4,0.4-0.5,0.5
		c-0.1,0.1-0.1,0.2-0.1,0.4C139.9,30.2,140.3,30.3,140.8,30.1z"/>
	<path fill="#29292F" d="M139.5,30C139.5,29.9,139.4,29.9,139.5,30C139.4,30,139.4,30,139.5,30C139.4,30,139.4,30,139.5,30
		C139.5,30,139.5,30,139.5,30z"/>
	<path fill="#29292F" d="M162.6,93.8c1.1-0.2,2-0.9,3.1-1.7C164.7,92.4,163.6,93,162.6,93.8z"/>
	<path fill="#29292F" d="M162.6,93.8C162.6,93.8,162.6,93.9,162.6,93.8C162.5,93.9,162.5,93.9,162.6,93.8
		C162.5,93.9,162.6,93.9,162.6,93.8C162.6,93.9,162.6,93.9,162.6,93.8z"/>
	<path fill="#29292F" d="M149,103.1c1.1,0.3,1.1,0.3,1.7-0.5c-0.2-0.1-0.3-0.3-0.5-0.5C149.9,102.4,149.5,102.7,149,103.1z"/>
	<path fill="#29292F" d="M154.9,98.6c0.8,0.1,0.8,0.1,1.2-0.9C155.3,97.7,155.3,97.7,154.9,98.6z"/>
	<path fill="#29292F" d="M142.8,27.1c-0.7,0.2-1.5-0.3-1.7,0.6C142.1,28.2,142.1,28.2,142.8,27.1z"/>
	<path fill="#29292F" d="M84.3,136.4c1-0.4,1-0.4,0.7-1.6C84.5,135.3,84,135.6,84.3,136.4z"/>
	<path fill="#29292F" d="M167.5,92.8c-0.9,0.5-1.7,0.9-2.3,1.5C166.3,94.1,166.7,93.8,167.5,92.8z"/>
	<path fill="#29292F" d="M172.9,89.4c-0.6-0.1-1.1-0.2-1.6,0.3C172,90.1,172,90.1,172.9,89.4z"/>
	<path fill="#29292F" d="M167.4,90.4c-0.7,0.1-1.1,0.3-1,1C167.1,91.5,167.4,91.2,167.4,90.4z"/>
	<path fill="#29292F" d="M49.5,144.4c0.6-0.2,0.8-0.6,0.8-1.4C49.7,143.4,49.2,143.7,49.5,144.4z"/>
	<path fill="#29292F" d="M86.2,135.1c-0.1,0.5,0.2,0.6,0.6,0.7c0.4-0.2,0.6-0.5,0.2-0.8C86.7,134.7,86.3,134.8,86.2,135.1z"/>
	<path fill="#29292F" d="M163.2,95.4C163.3,95.4,163.3,95.4,163.2,95.4c0.1,0,0.1,0,0.1-0.1C163.3,95.4,163.3,95.4,163.2,95.4
		C163.3,95.4,163.3,95.4,163.2,95.4z"/>
	<path fill="#29292F" d="M163.2,95.4c-0.7,0.2-1.3,0.6-1.7,1.2C162.1,96.3,162.7,95.9,163.2,95.4z"/>
	<path fill="#29292F" d="M57.4,105c-0.4,0.5-0.9,0.9-1.1,1.5C57.2,105.9,57.2,105.9,57.4,105z"/>
	<path fill="#29292F" d="M145.6,88.5c-0.2,0.5-0.5,1-0.7,1.5c0.1,0,0.2,0.1,0.2,0.1C145.4,89.6,145.7,89.1,145.6,88.5z"/>
	<path fill="#29292F" d="M77.8,134.7c-0.4,0.3-0.9,0.5-0.7,1.1C78,135.7,78,135.6,77.8,134.7z"/>
	<path fill="#29292F" d="M77.1,135.8C77.1,135.8,77.1,135.8,77.1,135.8C77.1,135.8,77.1,135.8,77.1,135.8
		C77.1,135.8,77.1,135.8,77.1,135.8C77.1,135.8,77.1,135.8,77.1,135.8z"/>
	<path fill="#29292F" d="M165.1,94.4C165.1,94.4,165.1,94.4,165.1,94.4C165.1,94.4,165.1,94.4,165.1,94.4
		C165.1,94.3,165.1,94.4,165.1,94.4C165.1,94.4,165.1,94.4,165.1,94.4z"/>
	<path fill="#29292F" d="M163.4,95.4c0.7-0.1,1.2-0.5,1.7-1C164.3,94.4,163.8,94.9,163.4,95.4z"/>
	<path fill="#29292F" d="M146.6,106.2c0.4-0.5,0.6-0.9,0.8-1.5C146.5,105.4,146.5,105.4,146.6,106.2z"/>
	<path fill="#29292F" d="M55,118.2c0,0-0.1,0-0.1,0c0.1,0.5,0.1,0.9,0.2,1.4c0,0,0.1,0,0.1,0C55.1,119.1,55.1,118.7,55,118.2z"/>
	<path fill="#29292F" d="M88.7,135c0.5,0.2,0.8,0,1-0.6C89.1,134.4,88.8,134.5,88.7,135z"/>
	<path fill="#29292F" d="M152.9,100.3c0.3-0.1,0.7-0.1,1.2-0.2C153.5,99.7,153.2,99.9,152.9,100.3z"/>
	<path fill="#29292F" d="M152.9,100.3C152.9,100.3,152.9,100.3,152.9,100.3C152.9,100.3,152.9,100.3,152.9,100.3
		C152.9,100.3,152.9,100.3,152.9,100.3C152.9,100.3,152.9,100.3,152.9,100.3z"/>
	<path fill="#29292F" d="M160.2,16.9c0,0.2,0,0.5,0,0.7c0.1,0,0.1,0,0.2,0c0-0.2,0.1-0.5,0.1-0.7C160.5,17,160.4,16.9,160.2,16.9z"
		/>
	<path fill="#29292F" d="M38.8,120.2c0-0.3-0.3-0.6-0.8-0.3c0.1,0.6,0.2,1.2,0.3,1.9c0.2-0.1,0.3-0.1,0.6-0.2
		C38.8,121.2,38.9,120.7,38.8,120.2z"/>
	<path fill="#29292F" d="M110.6,74.6c0.5-0.6,1.3-2.5,1.3-3.8c-0.5,1-1,1.9-1.6,2.9C110.2,74.1,110.2,74.4,110.6,74.6z"/>
	<path fill="#29292F" d="M122.1,66.1c0.3,0.3,0.6,0.6,1,0.2c-0.3-0.6-0.7-1.1-1-1.7C121.7,65.5,121.7,65.6,122.1,66.1z"/>
	<path fill="#29292F" d="M122.2,64.7C122.2,64.7,122.2,64.7,122.2,64.7C122.2,64.7,122.2,64.7,122.2,64.7
		C122.2,64.7,122.2,64.6,122.2,64.7C122.2,64.7,122.2,64.7,122.2,64.7z"/>
	<path fill="#29292F" d="M108.5,72.3c0.1,0,0.2,0.1,0.3,0.1c0.3-0.8,0.6-1.7,0.9-2.5C108.9,70.6,108.7,71.5,108.5,72.3z"/>
	<path fill="#29292F" d="M109.6,69.9C109.6,69.9,109.7,69.9,109.6,69.9c0-0.1,0-0.1,0-0.1C109.7,69.9,109.7,69.9,109.6,69.9
		C109.6,69.9,109.6,69.9,109.6,69.9z"/>
	<path fill="#29292F" d="M113.9,71.4c-0.3,0.5-0.7,0.9-0.3,1.8C114,72.5,114.1,72,113.9,71.4z"/>
	<path fill="#29292F" d="M110.3,68.1c-0.3,0.5-0.7,1.1-0.6,1.8c0.4-0.6,0.7-1.2,1.1-1.7C110.6,67.8,110.4,67.9,110.3,68.1z"/>
	<path fill="#29292F" d="M109.8,73.2c-0.1,0-0.1,0-0.2-0.1c-0.1,0.3-0.2,0.5-0.3,0.8c0.1,0,0.1,0.1,0.2,0.1
		C109.5,73.7,109.6,73.5,109.8,73.2z"/>
	<path fill="#29292F" d="M84,97c-0.4,0-0.7,0-1,0c0,0.6-0.1,1.2-0.1,1.9C84,98.5,83.7,97.7,84,97z"/>
	<path fill="#29292F" d="M83,97C83,97,83,96.9,83,97C83,96.9,83,96.9,83,97C83,97,83,97,83,97C83,97,83,97,83,97z"/>
</g>
</svg>
