<?xml version="1.0" encoding="utf-8"?>
<!-- Generator: Adobe Illustrator 18.1.1, SVG Export Plug-In . SVG Version: 6.00 Build 0)  -->
<!DOCTYPE svg PUBLIC "-//W3C//DTD SVG 1.1//EN" "http://www.w3.org/Graphics/SVG/1.1/DTD/svg11.dtd">
<svg version="1.1" id="_x2014_ÎÓÈ_1" xmlns="http://www.w3.org/2000/svg" xmlns:xlink="http://www.w3.org/1999/xlink" x="0px"
	 y="0px" viewBox="0 0 162 168" enable-background="new 0 0 162 168" xml:space="preserve">
<g>
	<path fill-rule="evenodd" clip-rule="evenodd" fill="#D5C9B0" d="M84.6,79c0.3,0.3,1,0.6,1.5,0.3c-0.5-1-2.4-1.2-3.8-1
		C82.5,79.2,83.9,78.8,84.6,79z"/>
	<path fill-rule="evenodd" clip-rule="evenodd" fill="#D5C9B0" d="M84.4,83.5c1.6-0.3,2.9-0.9,4.4-1.3c0.7,0,1.4,0.1,1.3-0.8
		C88,81.9,85.1,82.1,84.4,83.5z"/>
	<path fill-rule="evenodd" clip-rule="evenodd" fill="#D5C9B0" d="M73.6,83.1c-0.8-0.3-2.5-1.2-3-0.5C70.8,83.4,73.1,84,73.6,83.1z"
		/>
	<path fill-rule="evenodd" clip-rule="evenodd" fill="#D5C9B0" d="M81.9,83.7c-1-0.4-3.6-0.2-4.6,0C77.9,84.6,81,84.3,81.9,83.7z"/>
	<path fill-rule="evenodd" clip-rule="evenodd" fill="#D5C9B0" d="M93.3,92.5c-0.2-0.2-0.9-0.3-1,0.1C92.5,92.9,93.2,92.8,93.3,92.5
		z"/>
	<path fill-rule="evenodd" clip-rule="evenodd" fill="#D5C9B0" d="M63.7,93.3c-1.5-0.7-3.7-1.4-5.1-1.7C59.5,92.7,62,93.7,63.7,93.3
		z"/>
	<path fill-rule="evenodd" clip-rule="evenodd" fill="#D5C9B0" d="M77.5,92.2c-0.9,0.1-1.6-0.2-2,0.2C76.5,92.3,77.2,93,77.5,92.2z"
		/>
	<path fill-rule="evenodd" clip-rule="evenodd" fill="#D5C9B0" d="M80.7,92.5c-1.1,0.1-2.1-0.4-2.7,0C79,92.6,79.9,92.8,80.7,92.5z"
		/>
	<path fill-rule="evenodd" clip-rule="evenodd" fill="#D5C9B0" d="M88.7,93.7c0.2-0.4,0.1-0.2,0.7-0.1c-0.3-0.7,1.2,0.2,1.4-0.5
		c-0.9,0-1.2-0.5-2.2-0.4c-0.3,0.4,0.1,0.6-0.2,0.9C88.6,93.7,88.7,93.7,88.7,93.7z"/>
	<path fill-rule="evenodd" clip-rule="evenodd" fill="#D5C9B0" d="M84.2,93.1c-3.7-0.2-8.4-0.4-12.2-0.5c-0.2,0-0.4,0.1-0.4,0.3
		C75.1,93.6,80.7,93.3,84.2,93.1z"/>
	<path fill-rule="evenodd" clip-rule="evenodd" fill="#D5C9B0" d="M85.5,93.2c-0.4-0.2-1-0.3-1.2,0.1C84.6,93.4,85.4,93.7,85.5,93.2
		z"/>
	<path fill-rule="evenodd" clip-rule="evenodd" fill="#D5C9B0" d="M95.3,93.8c-0.7-0.1-1.3-0.9-2.2-0.4
		C93.6,93.7,94.6,94.2,95.3,93.8z"/>
	<path fill-rule="evenodd" clip-rule="evenodd" fill="#D5C9B0" d="M86.4,93.8c0.2,0,0.4,0,0.5,0c0-0.2,0-0.4,0-0.5
		c-0.2,0.1-0.7-0.2-0.7,0.1C86.6,93.4,86.6,93.6,86.4,93.8z"/>
	<path fill-rule="evenodd" clip-rule="evenodd" fill="#D5C9B0" d="M82.6,93.9c0.3-0.1,1,0.2,1.1-0.1C83.5,93.5,82.8,93.7,82.6,93.9z
		"/>
	<path fill-rule="evenodd" clip-rule="evenodd" fill="#D5C9B0" d="M81.4,94c0.4,0,0.8,0,1-0.2C82,93.8,81.4,93.6,81.4,94z"/>
	<path fill-rule="evenodd" clip-rule="evenodd" fill="#D5C9B0" d="M78.6,94.1c0.4,0,1.2,0.2,1.2-0.2C79.5,93.8,78.7,93.7,78.6,94.1z
		"/>
	<path fill-rule="evenodd" clip-rule="evenodd" fill="#D5C9B0" d="M78.3,94c-1.6,0-3.2,0-4.5,0.4C75.4,94.4,77.2,94.5,78.3,94z"/>
	<path fill-rule="evenodd" clip-rule="evenodd" fill="#D5C9B0" d="M59.3,94.1c1.3,0.6,3.4,1.8,4.8,1.4c-1.5-0.6-3.3-1.6-4.8-1.8
		C59.3,93.8,59.3,93.9,59.3,94.1z"/>
	<path fill-rule="evenodd" clip-rule="evenodd" fill="#D5C9B0" d="M60.2,96c0,0.2-0.2,0.2-0.2,0.4c1.2,0.5,2.4,1,3.9,1.2
		C63.3,96.6,61.2,96.2,60.2,96z"/>
	<path fill-rule="evenodd" clip-rule="evenodd" fill="#D5C9B0" d="M50.1,95.9c-1.4,0.1-2.7,0.4-3.4,1.2
		C47.9,96.8,49.7,97.1,50.1,95.9z"/>
	<path fill-rule="evenodd" clip-rule="evenodd" fill="#D5C9B0" d="M85.7,97.7c-2.3-0.1-5.9-0.5-8,0.1C80.2,98.1,83.5,98,85.7,97.7z"
		/>
	<path fill-rule="evenodd" clip-rule="evenodd" fill="#D5C9B0" d="M88.6,97.7c-0.4,0.1-1.1-0.2-1.2,0.1C87.6,98,88.5,98,88.6,97.7z"
		/>
	<path fill-rule="evenodd" clip-rule="evenodd" fill="#D5C9B0" d="M110.5,98.8c-0.6,0.8-2.3,1.1-1.9,2.5c1.3-0.2,1.5-1.5,2.1-2.4
		C110.8,98.8,110.7,98.8,110.5,98.8z"/>
	<path fill-rule="evenodd" clip-rule="evenodd" fill="#D5C9B0" d="M109.9,101.6c1.4-0.3,1.9-1.6,2.7-2.6
		C111.3,99.5,110.4,100.3,109.9,101.6z"/>
	<path fill-rule="evenodd" clip-rule="evenodd" fill="#D5C9B0" d="M113.9,99.3c-1.1,0.5-2.2,1-2.7,2.2c0.3,0.4,0.5-0.1,1-0.1
		c-0.1,0.4,0,0.6,0.4,0.6c0.1,0,0.3,0,0.4,0c0.2-1,1.2-1.1,1.6-2c-0.9,0-1.2,0.7-1.9,0.9C113,100.4,114.1,100,113.9,99.3z"/>
	<path fill-rule="evenodd" clip-rule="evenodd" fill="#D5C9B0" d="M115.9,100.2c-1,0.3-2.4,0.9-2.4,1.8c0.6,0.3,1.2,0.9,1.9,0.3
		c0.1,0.1,0,0.5,0.4,0.4c1.4-0.4,2.2-1.5,3-2.6c-1.5,0.1-1.7,1.6-3.1,1.9c0.1-0.5,0.7-0.6,0.9-1.1c-0.7-0.1-1.2,0.8-1.6,0.5
		C115,100.9,115.8,100.9,115.9,100.2z"/>
	<path fill-rule="evenodd" clip-rule="evenodd" fill="#D5C9B0" d="M51.9,97.8c-1.5,0.4-2.9,0.8-4,1.6C49.2,99.4,51.3,99,51.9,97.8z"
		/>
	<path fill-rule="evenodd" clip-rule="evenodd" fill="#D5C9B0" d="M61,98.5c0.4,0.8,2.1,1.1,2.9,1.1C63.5,98.8,62.1,98.2,61,98.5z"
		/>
	<path fill-rule="evenodd" clip-rule="evenodd" fill="#D5C9B0" d="M84.9,99.3c-2.1-0.1-4.4-0.4-5.6,0.5c4-0.4,7.9,0.2,11.1,0
		C89.1,99.3,86.9,99.3,84.9,99.3z"/>
	<path fill-rule="evenodd" clip-rule="evenodd" fill="#D5C9B0" d="M122.1,100.9c-1.6,0.5-3,1.4-3.8,2.8
		C119.7,103.4,120.9,101.8,122.1,100.9z"/>
	<path fill-rule="evenodd" clip-rule="evenodd" fill="#D5C9B0" d="M116.7,103.2c0.1,0,0.2,0.2,0.3,0.3c1-0.5,2.6-1.8,2.4-2.6
		C118.5,101.6,117.4,102.2,116.7,103.2z"/>
	<path fill-rule="evenodd" clip-rule="evenodd" fill="#D5C9B0" d="M84.4,100.6c-1.6,0-3.3-0.3-4.6,0.2c2.7,0.5,5.7-0.4,8.5,0.2
		C87.4,100.1,85.8,100.6,84.4,100.6z"/>
	<path fill-rule="evenodd" clip-rule="evenodd" fill="#D5C9B0" d="M122.8,107.1c0.8,0.1,0.9-0.5,1.1-1c1-1.1,2.6-1.7,3.6-2.8
		c-0.2,0-0.2-0.2-0.4-0.2C125.5,104.1,123.2,105.1,122.8,107.1z"/>
	<path fill-rule="evenodd" clip-rule="evenodd" fill="#D5C9B0" d="M80.8,102.6c1.4,0.1,3.7,0,5-0.3C84.6,101.7,82,102.1,80.8,102.6z
		"/>
	<path fill-rule="evenodd" clip-rule="evenodd" fill="#D5C9B0" d="M83.6,104.5c-0.9-0.2-2.3-0.5-3.2-0.3c0,0.2,0.1,0.3,0.1,0.4
		C81.2,104.8,83.2,105.3,83.6,104.5z"/>
	<path fill-rule="evenodd" clip-rule="evenodd" fill="#D5C9B0" d="M37.8,105c-1.8,1.9-4.6,3.3-5.5,5.6c2-1.9,3.9-4,6.3-5.5
		C38.5,105,38.2,105,37.8,105z"/>
	<path fill-rule="evenodd" clip-rule="evenodd" fill="#D5C9B0" d="M79.2,108.3c-0.5-0.5-2.8-0.6-3.4,0
		C76.6,108.5,78.6,108.8,79.2,108.3z"/>
	<path fill-rule="evenodd" clip-rule="evenodd" fill="#D5C9B0" d="M75.1,109.7c1.2,0.5,4.2,0.3,5.3,0.2c-1.3-0.6-3.9-0.6-5.3-0.6
		C75.1,109.5,75.1,109.6,75.1,109.7z"/>
	<path fill-rule="evenodd" clip-rule="evenodd" fill="#D5C9B0" d="M81.5,111.4c-1.9-0.9-4.6-0.5-6.9-0.7c0,0.2-0.2,0.2-0.2,0.4
		C76.2,111.6,79.9,111.4,81.5,111.4z"/>
	<path fill-rule="evenodd" clip-rule="evenodd" fill="#D5C9B0" d="M73.2,112.2c2.2,1,4.9,0.1,7.2,0.4c0.9,0.1,1.8,0.8,2.6,0.2
		c-2.3-1.1-6.9-0.6-9.7-1.1C73.2,112,73.2,112.1,73.2,112.2z"/>
	<path fill-rule="evenodd" clip-rule="evenodd" fill="#D5C9B0" d="M72.6,113.7c1.7,0.8,5,0.5,7.6,0.7c1.4,0.1,2.5,0.7,3.5,0.3
		c-2.8-1.1-7.5-0.9-11.1-1.4C72.6,113.4,72.6,113.6,72.6,113.7z"/>
	<path fill-rule="evenodd" clip-rule="evenodd" fill="#D5C9B0" d="M78.4,115c-1.7-0.1-3.3-0.2-4.7-0.3c-0.1,0-0.2,0.1-0.3,0.1
		c-0.1,0.2-0.2,0.2,0,0.4c3,0.7,6.8,0.1,10,1.1C82.6,115.1,80.3,115.2,78.4,115z"/>
	<path fill-rule="evenodd" clip-rule="evenodd" fill="#D5C9B0" d="M79,117.2c1.4,0.1,3,0.7,3.8,0c-2.2-0.6-6.4-0.8-8.8-1.2
		c0,0.1,0,0.3,0,0.4C75.1,117.5,77.2,117.1,79,117.2z"/>
	<path fill-rule="evenodd" clip-rule="evenodd" fill="#D5C9B0" d="M115.9,118.7c-0.2,0-0.2-0.2-0.4-0.2c-0.4,0.8-1.3,1-1.4,2.1
		C115,120.4,115.4,119.5,115.9,118.7z"/>
	<path fill-rule="evenodd" clip-rule="evenodd" fill="#D5C9B0" d="M81.8,118.1c-2.2-0.5-5.7-0.1-7.7-0.8c-0.1,0-0.2,0.1-0.3,0.1
		c0,0.1,0,0.3,0,0.4c1.7,1.1,4.6,0.4,7,0.8c1,0.2,1.7,0.8,2.6,0.5C83.4,118.4,82.4,118.3,81.8,118.1z"/>
	<path fill-rule="evenodd" clip-rule="evenodd" fill="#D5C9B0" d="M129.7,121.4c-0.2,0.3-1.1-0.2-1,0.5
		C129.3,122,130.1,121.7,129.7,121.4z"/>
	<path fill-rule="evenodd" clip-rule="evenodd" fill="#D5C9B0" d="M129,122.8c0.7,0.1,1.1-0.1,1.4-0.5
		C129.9,122.5,129.2,122.4,129,122.8z"/>
	<path fill-rule="evenodd" clip-rule="evenodd" fill="#D5C9B0" d="M125.2,130.6c1.2,0.2,2.2-1.7,3.6-0.8c0.7-0.5,1.8-0.6,2.7-0.8
		c0-0.3,0-0.5,0.2-0.7C129.4,128.9,126.4,128.8,125.2,130.6z"/>
	<path fill-rule="evenodd" clip-rule="evenodd" fill="#D5C9B0" d="M46.9,127.5c0-0.1-0.1-0.2-0.3-0.1c-1,1.1-0.9,3.3-1.8,4.4
		c-0.3-0.9,0.4-2.5-0.3-2.7c-0.8,1.3,0,3.2-0.1,4.9c0,0.9-0.8,2.1,0,2.7c0.4-0.3,0.3-1.1,0.9-1.3C44.5,132.6,46.3,130,46.9,127.5z"
		/>
	<path fill-rule="evenodd" clip-rule="evenodd" fill="#D5C9B0" d="M123.2,133.1c-1.1,0.7-2.5,0.9-3.3,1.8c1.8-0.9,4-1.3,5.7-2.4
		c-0.6-0.2-1.1,0.5-1.5,0.1c1.2-0.3,2.4-1,3.6-1.4c0.3-0.1,0.8,0.3,0.8-0.4c-2.7-0.1-4.1,1.2-5.9,2.1
		C122.7,133,123.2,132.8,123.2,133.1z"/>
	<path fill-rule="evenodd" clip-rule="evenodd" fill="#D5C9B0" d="M51.3,131.1c-0.6,2.2-2.2,4.9-1.6,7.4c0.5,0,1-0.2,1.4-0.4
		c0-0.8-0.7-0.9-0.9-1.5c0.3-2.1,1.3-3.4,1.6-5.5C51.6,131.1,51.5,131.1,51.3,131.1z"/>
	<path fill-rule="evenodd" clip-rule="evenodd" fill="#D5C9B0" d="M53.3,132.9c0-0.2,0-0.3-0.3-0.3c-0.2,0.2-0.6,0.4-0.8,0.8
		c-0.6,1.1-1.4,6.4,0.1,6.7c0.5-0.5-0.4-0.8-0.4-1.4C52.1,136.9,52.3,134.2,53.3,132.9z"/>
	<path fill-rule="evenodd" clip-rule="evenodd" fill="#D5C9B0" d="M57.8,139.7c-0.3-0.3-0.6-0.6-1.1-0.7c0.2-2.1,0.7-3.8,1.3-5.4
		c-1.8,0.7-1.3,3.8-2.1,5.5c-0.6,0-1.2-0.1-1.3-0.5c0.2-2.1,0.9-3.6,1.3-5.5c-0.1,0-0.3,0-0.4,0c-1.1,1.4-0.8,4.2-1.8,5.6
		c-0.7,0.2-0.7-0.7-1.2-0.3c-0.3,1.1,0.9,0.8,1.3,1.3c0,0.7-0.2,1.5,0.5,1.5c0.6-0.3-0.1-1.1,0.3-1.5c1.2-0.2,1.2,0.8,2,1
		c0.3-0.4,0.5-0.9,1.3-0.9c-0.2,0.6-0.2,1.1,0.4,1.2c0.5-1.2,0.7-3.5,0.9-4.6C57.9,136.8,58.2,138.7,57.8,139.7z"/>
	<path fill-rule="evenodd" clip-rule="evenodd" fill="#D5C9B0" d="M59.6,141.2c0.1,0.2,0.2,0.4,0.2,0.6c0.4,0.1,0.5-0.1,0.8-0.1
		C60.9,140.4,59.9,140.1,59.6,141.2z"/>
	<path fill-rule="evenodd" clip-rule="evenodd" fill="#D5C9B0" d="M62.7,141.8c-0.2,0.2-0.2,0.5-0.2,0.8c0.4,0.2,0.8,0.1,1-0.4
		C63.4,142,63.1,141.8,62.7,141.8z"/>
	<path fill-rule="evenodd" clip-rule="evenodd" fill="#D5C9B0" d="M67.3,142.3c-0.1,0.3,0,0.5,0.1,0.7c0.5,0,1.1,0,1.1-0.5
		C68.5,142.1,67.6,142.1,67.3,142.3z"/>
	<path fill-rule="evenodd" clip-rule="evenodd" fill="#D5C9B0" d="M152.9,105.3c-0.9-0.2-2.6-0.2-3.5-0.1c-2.2,0.1-4.4,1.6-6.2,1.7
		c-0.5-1.7-5.1-4.3-6.1-4.8c-1.1-0.7-2.6-1.7-4-2.3c-2.2-1-4.7-2.2-6.9-2.8c-0.8-0.2-4.1-1.3-5.1-1.6c-1.9-0.6-6.9-1.3-10.8-0.8
		c11.2,1,20.7,4.9,26.2,8.9c0.9,0.7,4.2,3.5,4.5,4.4c-1.2,0.5-6.5,2-7.7,2.4c-0.5,0-2.8,1.4-4,1.2c0.6-1.3,2-1.8,2.7-3
		c-1.5,0.8-3.6,2-3.5,3.5c-0.8-0.2-1.2,0.6-1.8,0.2c1.4-2,3.6-3,5.1-5c-2.7,0.9-3.8,3.4-6,4.8c-0.3,0.4-0.3,1.1-1.1,1
		c0.6-1.6,1.9-2.7,3.1-3.8c0.6-0.5,1.1-1.1,1.7-1.7c0.5-0.5,1.6-0.9,1.4-1.8c-2.5,1.5-3.8,4.2-6.5,5.6c0.4-3.2,4.1-4,5.8-6.3
		c-2.8,0.8-4.1,3.2-6.3,4.6c-0.8-1.2,1-2.1,1.9-2.9c0.4-0.4,0.9-0.9,1.4-1.3c0.5-0.4,1.4-0.6,1.1-1.2c-2.3,0.8-3.2,3.1-5.4,4
		c0-0.9-0.8-1.1-0.9-1.9c0.8-1.3,2.3-2,3.2-3.1c-1.7-0.3-2.5,2.5-4.2,2.3c0.3-1.4,2.5-1.9,3.4-3.1c-2.1,0-2.7,2.4-4.4,2.3
		c0.5-1.2,2.1-1.3,2.7-2.5c-1.8,0.5-2.8,1.8-4.3,2.5c2.8,1.8,5.2,4.6,5.1,8.6c-2.1,0.8-10.1,4.2-12,4.8c-3.3,1.2-6.7,2.8-10,3.7
		c-0.3,0.2-6.3,1.5-9.3,2.1c1-1.2,3.8-0.5,5.2-1.3c-0.8-0.7-2.3,0.5-3.4-0.1c1.2-0.7,3.4-0.2,4.4-1.2c-0.7-0.5-1.3,0.3-2,0.2
		c3.8-1.8,5-6,5.8-8c1.6-4.2,3-10.2,5-13.9c0.5,0,1.3,0.2,1.6-0.1c0-0.7-1.3-0.2-1.6-0.6c1.8-3.8,2.8-8.2,5.2-11.1
		c0.6-0.8,1.2-1.9,1.5-2.6c0.4-0.9,0.5-1.2,0.5-3.4c-1-2.2-1.1-2.6-3.1-4.7c-1.4-1.2-3-2.3-4.4-2.9c-8.5-3.6-25.2-4.8-25.6-4.4
		c-0.5,0-1.1,0-1.6,0c0.5-0.3,0.8-0.7,0.8-0.9c-0.4,0.3-0.9,0.6-1.3,0.9c-7.5,0.1-12.9,1-19,3c-1,0.3-1.9,0.9-2.8,1.5
		c-2.6,1.7-4.2,2.9-5.1,5.6c-0.6,1.8-0.4,3.5,0.7,4.7c1.1-0.8,0.5-1.6,0.4-2.3c-0.4-4,2-5.2,4.3-6.9c2.9-2.2,8.3-3,12-3.3
		c-1.6,0.7-2.6,2-3.7,3.2c-0.2-1.5,0.9-1.6,1.2-2.5c-2.6,1-12.4,2.5-11.7,8.5c0.2,1.5,1.2,2.2,1.9,3.2c3.6,2.9,11.5,3.7,14.5,4.2
		c1.4,0.2,10,0.7,14.1,0.7c2.5,0,5.6-0.2,8.3-0.5c3.9-0.4,7.4-0.7,10.3-1.9c0.5-0.2,2.5-0.8,3.1-1.1c2.1-1.1,2.7-1.6,3.6-3.5
		c0-0.9,0.2-1.5-0.1-2.2c-1.9,1.1-2.9,3.2-5.2,4c0.1-0.7,0.8-0.6,1.3-0.9c0.9-1.7,2.8-2.3,3.6-4.1c-1.3,0-1.7,1.6-2.8,1.4
		c0.4-0.9,1.7-1.3,1.4-2.4c-0.5-0.1-0.6-0.1-1.1-0.4c-0.9,0.4-1.3,1.8-2.4,1.5c-0.1-0.9,1.5-1.3,0.9-1.9c-0.9-0.2-1.2,2-2.4,1.4
		c0.2-1,1.2-1.1,1.3-2.3c-1.3,0.1-1.5,2.5-2.9,1.6c0.2-0.8,1.4-1.1,1.2-2c-1.3-0.1-1.5,2.5-2.6,1.3c0.3-0.9,1.8-1.2,1.4-2.3
		c-1.6,0.2-1.6,2.2-3,2.6c-0.3-1,1-1.3,1-2.4c-0.9-0.1-0.8,1-1.5,1.2c-2.1-0.8-4.7-1.2-7-1.8c2.1-0.2,5.1,0.4,7.2,1
		c-1.7-1.7-5.7-1.5-8.6-2.1c-0.1-0.3-0.2-0.6-0.4-0.7c-1.7-0.1-4.1-1.4-5.5-0.5c0.6,0.6,2.5,0.1,3.1,0.8c-0.8-0.2-1.6-0.2-2.6-0.2
		c0.2,1,2.1,0.3,2.7,0.9c-0.4,0.8-2.1,0.3-2.6-0.1c-1,0-3.2-0.1-3.9-0.8c-3.4-0.5-6.5,0-10,0c2.9-1.6,7.5-1.1,11.4-1
		c-1.5-0.5-4.8-0.9-7.3-0.7c-1.8,0.1-3.4,1.1-4.5,0.9c-0.4-0.1-1.2-0.4-1.2-1c3.9-0.6,9-0.4,9.5-0.4c4.6-0.1,5.4,0,10.2,0.4
		c5.6,1,14,2.7,16.9,4.2c2.4,1.8,4.4,2.8,5.8,5.7c0.3,0.5,0.5,1.8,0.3,2.4c-0.7,2-3.7,3.2-5.5,3.9c-7.4,3.1-31.3,4.2-46,0.8
		c-2-0.5-3.9-1.5-5.6-2.4c-0.3-0.8-1-1.2-2-1.3c-0.7,0.3,0.3,1.1-0.3,1.2c-4.3,0.2-8.6-0.1-11.2,2.3c-5.7,4.7-4.6,9-3.6,11.7
		c-6.9,4.1-13.7,8-16.8,16.4c0.1,0.2,0.7,0,0.5,0.4c-1.6,4.7,0.5,8.2,2.5,11.6c2.9,5.1,8.8,10.7,16.9,14.8
		c1.7,0.8,13.5,4.1,15.2,4.4c1.2,0.2,8.7,1.2,10.5,1.5c7.2,1,17.5,0.6,19.1,0.6c10.8-0.1,20.2-2.5,29.5-5.4c1.1-0.3,4.9-2,5.9-2.5
		c2.1-0.9,7.1-3.6,7.8-4.2c2.7-2.2,5.2-4.3,7.7-6.8c1.9-1.8,8.3-12.6,8-13.5c1.1-0.2,3.1-0.5,4.3-0.7c2.6-0.6,5-0.9,6.7-2.9
		C157,110.6,157,106.4,152.9,105.3z M60.7,81.4c-0.4-0.7,0.7-0.8,1-1.2C61.7,80.4,61.3,81.3,60.7,81.4z M60.5,76.6
		c0.5-0.6,1.7-1.2,2.6-0.8C62.6,76.4,61.5,76.5,60.5,76.6z M63.2,74.9c-0.8-0.1-1,0.3-1.8,0.2c0.5-0.5,1.1-0.9,2.1-1
		C63.4,74.5,63.3,74.7,63.2,74.9z M63.9,75.5c0.6-0.4,0-2.1,1.3-1.7c-0.3,1,0,1.4,0,2.3C64.7,76,64.3,75.8,63.9,75.5z M66.4,81.6
		c-0.2-0.5,0.1-0.7,0.3-1.1C67,80.7,67,81.8,66.4,81.6z M108.2,78.2c0.1,0.5-0.6,1.3-1.3,1.4C107.2,78.9,107.9,78.8,108.2,78.2z
		 M106.7,81.1c0.2,0,0.5,0.1,0.5-0.1c0.1,0,0.1,0.1,0.3,0.1l0,0.3c-0.3,0.1-0.9,0-1,0.4C106.2,81.7,106.7,81.3,106.7,81.1z
		 M106,82.2c-0.2,0.4-0.4,0.9-1,0.9C105.1,82.5,105.6,82.4,106,82.2z M68.3,76.4c0,0.3-0.2,0.5-0.6,0.5
		C67.7,76.5,67.9,76.4,68.3,76.4z M82.6,87.1c-0.1-0.1-0.3-0.2-0.5-0.2c0.1-1,0.9-1.2,1.8-1.3C83.9,86.6,82.7,86.3,82.6,87.1z
		 M84,87c0.3-0.7,1.1-1.3,1.9-1C85.5,86.6,85,87.1,84,87z M87.8,87c0-0.5,0.5-0.4,1-0.4C89,87.3,88,87.3,87.8,87z M88.9,85.5l-0.4,0
		c-0.1-0.4,0.3-0.3,0.3-0.5C89.2,85,89,85.1,88.9,85.5z M90.1,87.3c0-0.4,0.5-0.3,0.8-0.4C90.9,87.3,90.4,87.2,90.1,87.3z
		 M91.1,86.8c-0.1-0.5,0.2-0.7,0.6-0.7C91.6,86.5,91.4,86.7,91.1,86.8z M90.2,83.7c0.7-0.2,1-1,1.8-1.2
		C91.7,83.3,91.1,83.6,90.2,83.7z M92.5,87.1c0-0.7,1-0.9,1.4-0.6C93.8,87,93.2,87.1,92.5,87.1z M92.5,84.5c0.2-0.3,0.5-0.5,1-0.5
		C93.4,84.5,93,84.5,92.5,84.5z M92.6,83.1c0.3-0.9,1.2-1.2,2.4-1.3C94.2,82.5,93.3,82.3,92.6,83.1z M94.3,84.2
		c0.2-0.6,0.8-0.9,1.4-1c-0.1-0.4-0.2-0.2-0.5-0.2c0.3-0.4,0.9-0.4,1.4-0.6C95.8,82.9,95.8,84.9,94.3,84.2z M95.9,86.7
		c0.1-0.9,0.9-0.9,1.7-1C97.3,86.3,96.8,86.6,95.9,86.7z M97.3,82.9c0.4,0.2-0.1,0.7-0.4,0.7C96.8,83.1,97.2,83.2,97.3,82.9z
		 M97.2,84.7c0.1-0.6,0.7-0.6,1.1-0.9C99,84.2,98,85.2,97.2,84.7z M98.4,83.2c0.3-0.5,0.5-0.9,1.3-0.9C99.6,83,99,83.1,98.4,83.2z
		 M99.1,84.6c0.3-0.7,0.6-1.4,1.5-1.3C100.4,84,100,84.6,99.1,84.6z M101,85.4c-0.3,0-0.4-0.2-0.7-0.3c0.1-0.3,0.6-0.3,1-0.4
		C101.4,85.1,101.1,85.1,101,85.4z M101.8,85.5c0.3-0.8,0.6-1.7,1.7-1.7C103,84.5,102.9,85.5,101.8,85.5z M103.9,84.8
		c0-0.6,0.4-0.9,0.7-1.2C104.8,83.9,104.3,84.7,103.9,84.8z M105,81.5c0,0.5-0.3,0.6-0.4,0.9C104,82.2,104.3,81.2,105,81.5z
		 M104.4,82.5c-0.2,0.4-0.4,0.7-1,0.8C103.4,82.6,103.9,82.6,104.4,82.5z M103.2,81.5c0.1,0,0.1,0.1,0.3,0.1l0,0.3
		c-0.4-0.1-0.3,0.4-0.8,0.2C102.6,81.7,103.1,81.8,103.2,81.5z M102.1,78.6c0.2-0.2,0.7-0.1,0.8,0.2C103,79.3,101.9,79.1,102.1,78.6
		z M102.6,82.7c-0.2,0.6-0.5,1.1-1.3,1C101.6,83.3,102,82.8,102.6,82.7z M101.7,82c-0.1,0.6-0.6,0.6-1.2,0.6
		C100.6,82.1,101.1,81.6,101.7,82z M100.9,79.1c-2.3-0.2-4.9,0.1-7.4-0.6C95.7,78.4,98.7,78.2,100.9,79.1z M98.7,77.8
		c-0.7,0.3-2.4-0.1-2.4-0.4C96.8,77.4,98.2,77.5,98.7,77.8z M96.3,76.8c-1,0.4-2.3-0.2-3.4-0.1C93.3,76.4,95.6,76.6,96.3,76.8z
		 M91.2,77.3c1.4-0.1,2.4,0.2,3.5,0.4c-1.2,0.3-2.1,0-3.3,0.3C91.4,77.7,91,77.7,91.2,77.3z M90.1,77.5c0,0.6-0.4,0.3-0.7,0.1
		C89.4,77.3,89.9,77.6,90.1,77.5z M87.9,74.8c-1.5,0.5-3.4-0.4-5.3-0.6c-1.3-0.1-2.9,0.1-4.6-0.2C81.4,73.4,84.8,74,87.9,74.8z
		 M84.6,75.8c-0.8,0.2-2.2-0.3-2.8-0.8C82.9,75,83.5,75.7,84.6,75.8z M79.5,73.4c-1.5-0.2-2.7,0.1-4.2,0
		C76.3,73.1,78.7,72.6,79.5,73.4z M71.1,79.5c-1,0.3-2.7,1.7-1.2,2.7c0.6-0.2,0.3-0.8,0.3-1.5c0.6-0.5,1.5-0.5,1.7-1.4
		c1.4,0,3.7,0.3,4.9-0.2c-0.1-0.8-1.1-0.7-1.7-1c-0.3-0.2,0-1.1-0.6-1.1c0.2-0.4,0.8-0.4,1.4-0.4c0.2,0.3,0,0.2,0,0.5
		c2,0.4,4.2,0.3,6.4,0.4c1.3,0,2.2,0.8,3.4,0.7c-0.8-1-3.1-1.7-4.4-1.3c-1.5-0.8-4.7-1.4-7-1c-1,0.2-1.4,1.4-2.3,1
		c0.4-1.8,3.3-1,4.4-2.1c3.6,0,5.8,1.2,8.7,1.8c0.5,0-0.2-0.6,0.2-0.5c1,0.1,2,1,2.6,0c0.4,0.2,1,0.3,1.5,0.5
		c-0.3,0.6-1-0.1-1.6,0.1c0.3,1.5,1.9,1.8,3.2,2.4c-1.3,0.7-2.5-1-3.4-0.3c0.7,0.9,2.1,1,3.6,1.1c0.5,0,0-0.5,0.3-0.5
		c1.7,0.4,3.2,0.9,5.3,1c-0.3,1.3-2.2,0.8-3.3,1.2c-0.3-0.6-2.4-0.9-2.6,0.2c0.4,0.4,0.9-0.1,1.5,0.1c-1.9,0.9-5,2.7-7.6,3
		c-0.5,0-1-0.2-1.5-0.2c-2.4,0.1-5.2,1.4-7.6,0.1c-0.2,0.1-0.5,0.1-0.7,0.2c-2.5-1.4-5.9-1.2-6.8-4.1c0.1-0.7,0.8-0.8,0.9-1.5
		C69.7,79.7,70.6,79.4,71.1,79.5z M73.9,77.9c-0.8,0.2-0.5-1,0-0.9C73.8,77.4,73.8,77.6,73.9,77.9z M68.2,73.5
		c0.3-0.7,1.1-0.8,1.7-1.2C70.3,72.7,68.9,73.4,68.2,73.5z M145.9,107.4c-1.3,2.5-4,4.6-5.6,7.2c-0.6,0-1,0.4-1.8,0.2
		C140.7,112,143.1,109.5,145.9,107.4z M140.2,117.4c-0.7,0.3-1.4,0.6-2.5,0.6C138.3,117.5,139.2,117.4,140.2,117.4z M143.1,108.5
		c0.3,0,0.2,0.1,0.1,0.3c-1.8,2.3-3.9,4.1-5.7,6.4c-0.6,0-1.1,0.3-1.8,0.2C137.7,112.5,140.5,110.5,143.1,108.5z M142,108.4
		c-1.9,1.5-3.7,3.3-5.5,5.3c-0.9,1-1.4,1.9-2.9,2.1C135.9,112.8,138.4,110,142,108.4z M137.9,109.9l0.4,0c-0.7,1.4-2.1,2.1-3.1,3.1
		c-1,1-1.6,2.6-3.1,3.1c-0.1-0.5,0.8-1.5,1.4-2.1c0.7-0.7,1.6-1.3,1.8-2.1C136.4,111.5,137,110.5,137.9,109.9z M135.7,110.6
		c0.2,0.4-0.6,0.9-1,1.5c-0.5,0.6-0.9,1.3-1.4,1.6c0.1,0.4-0.2,0.3-0.2,0.7c-1.1,0.6-1.5,2.1-2.9,2.3
		C131.8,114.4,133.4,112.1,135.7,110.6z M133.4,110.7l0.4,0c-0.2,1.3-1.4,2.4-2.3,3.4c-0.8,1-1.5,2.6-3,2.9
		C129.7,114.4,132.1,113.1,133.4,110.7z M118.2,116.9c4.6-2.1,9-4.6,14.5-5.8c-0.8,1.1-1.8,1.9-2.7,3c-0.7,0.9-1.4,2.6-2.4,3.2
		c-0.7,0.4-2,0.5-3.2,0.8c-3.9,1.1-7.5,2.5-11.5,3.2c0.2-1.3,1.3-1.6,1.6-2.8c-0.9,0.1-1.4,0.8-1.8,1.4c-0.4,0.6-0.6,1.6-1.4,1.7
		c-0.2-1,1.1-1.5,1.5-2.4c-0.4-0.4-1.1,0.5-1.6-0.1C113.3,118.2,115.4,117.1,118.2,116.9z M117.4,126.7c-0.9-0.1-1.3,0.9-2.2,0.3
		c0.5-0.7,1.4-0.9,2-1.6c-0.9-0.3-1.8,1.2-2.6,1c0.4-0.9,1.4-1.1,2-1.8c-1-0.2-1.7,1.2-3,1.1c0.2-0.3,0.6-0.3,0.7-0.8
		c-0.3-0.1-0.5-0.4-1.3-0.3c1.6-2.1,5.5-2.2,8.4-3.2c0.8-0.3,1-0.8,2.1-0.7c-1.4,2.9-3.4,5.2-6.1,6.7
		C116.8,127.2,117.6,127.1,117.4,126.7z M113,129.3c-0.2,0.8-1.2,0.7-1.8,1C111.5,129.6,112.3,129.5,113,129.3z M111,126.1
		c0.7-0.6,1.5-0.9,2.6-1C113,125.7,112,125.9,111,126.1z M112.6,128c-0.1-0.3,0.6-1,1.3-0.9C113.8,127.8,113.1,127.8,112.6,128z
		 M114.4,121.9c1.5-0.6,3.3-0.9,5.2-1.2C117.9,121.2,116.5,121.9,114.4,121.9z M113,122.5c-0.5,0.4-1.4,0.4-2.1,0.6
		C111.4,122.7,112.3,122.7,113,122.5z M108.8,129.5c0.5-0.6,1.1-1.1,2.1-1.1C110.5,129.1,109.7,129.3,108.8,129.5z M110.1,130.7
		c-0.2,0.3-0.9,0.6-1.2,0.4C109,130.6,109.5,130.6,110.1,130.7z M107.1,127.4c0.4-0.6,1.2-0.7,2.1-0.9
		C108.7,127,107.8,127.2,107.1,127.4z M108.4,130.3c-0.1,0.3-0.6,0.3-1,0.4C107.5,130.3,108.1,130.5,108.4,130.3z M106.1,129
		c-0.7,0.7-1.5,1.3-2.5,1.7C104.2,130,105.2,128.4,106.1,129z M104.4,128.5c0.2-0.5,0.8-0.4,1.1-0.8
		C105.7,128.1,104.9,128.5,104.4,128.5z M103.4,125.6c-3.2,0.2-4.5,2.4-7.2,3.2c0.6-1,1.9-1.3,2.9-1.9c0.6-0.4,1.1-1.1,1.7-1.4
		c0.5-0.3,1-0.1,1.6-0.2c2.2-0.5,4.9-2.1,7.7-2.1C108.3,124.4,105,124.1,103.4,125.6z M92.1,140.3c0.1-1.1,1.7-1.9,2.2-3.2
		c0-0.2-0.2-0.1-0.4-0.2c0.7-1.3,1.7-1.7,2.2-3c-0.9-0.1-1.3,1.4-2.1,1.8c0.3-0.9,0.7-1.6,1.2-2.3c1.1,0.1,2,0,2.9-0.2
		c-0.6,0.6-1.5,1-2.1,1.5c1-0.4,1.9-1,2.6-1.7c0.1,0.1,0.1,0.2,0.3,0.3c-1.2,1.1-2.6,2.1-4.1,3C95,138,92.8,138.9,92.1,140.3z
		 M84.1,139.1c-1.5,0.2-3.1,0.7-4.4,0.6c-0.2,0-0.5-0.3-0.7-0.3c-0.5,0-0.8,0.4-1.2,0.4c-2.1,0-4.1-0.6-6.1-0.9
		c1.5-0.4,3.1,0.4,5.1,0.3c6-0.1,12.3-1,15.6-4c0.2,0,0.3,0.1,0.3,0.3C90.9,137.8,88,138.6,84.1,139.1z M89.5,140.3
		c0.1-0.3,0.3-0.4,0.4-0.7C90.3,139.8,90,140.5,89.5,140.3z M85.4,141.2c0-0.3,0.4-0.1,0.4-0.4C86.2,141.1,85.6,141.6,85.4,141.2z
		 M84.3,140.5c-0.3,0.4-1.1,0.9-1.5,0.8C83.2,140.9,83.7,140.6,84.3,140.5z M79.5,140.6l1.1,0c-0.3,0.3-0.9,0.4-0.9,1.1
		c-0.5-0.1-0.9,0-1.2,0.1C78.6,141.1,80,141.5,79.5,140.6z M77.3,140.6c-0.5,0.3-0.9,1.4-1.7,0.9C76,141.1,76.5,140.7,77.3,140.6z
		 M65.8,129.1c-0.3,0.9-0.7,1.6-1.4,2c-0.2-1.2,1.2-1.9,1.9-2.6C66.8,128.4,66,128.9,65.8,129.1z M66.6,130.2
		c-0.1,0.5-0.7,1.6-1.6,1.8C64.8,131.1,65.8,130.1,66.6,130.2z M64.1,129.8c-0.6-0.7,0.4-1.8,1.3-1.9
		C65.2,128.8,64.5,129.1,64.1,129.8z M65.9,133.7c-0.8-1.7,1.2-2.5,2.3-3.3c0.1,0.6-1.4,1.9-2.1,2.6c0,0.7,0.4,1.1,0.6,1.7
		c0.8-0.4,0.9-1.7,1.8-2c0.2,1.4-1.4,1.6-1.1,2.7c0.6,0.1,0.3-0.8,1-0.6c-0.5,0.6-0.3,0.8-0.1,1.5c-3.1-0.6-5.4-1.9-6.3-4.5
		C63.4,132.2,63.7,134.9,65.9,133.7z M67.7,132.4c0,0.4-0.1,0.6-0.6,0.5c0-0.2,0.2-0.3,0.2-0.5L67.7,132.4z M69.1,138
		c-2.2,0.2-5.2-1.2-6.3-3C64.7,136.2,66.5,137.5,69.1,138z M68.4,134.3c0.1-0.3,0.5-0.4,1-0.4C69.4,134.4,68.9,134.3,68.4,134.3z
		 M67.9,129.8c0.5-0.6,1-1.2,2-1.3C69.7,129.4,68.7,129.6,67.9,129.8z M67.6,128.7c0.4-0.2,0.6-0.5,1.1-0.6
		C68.4,128.4,68.2,128.8,67.6,128.7z M70.3,132.9c0.1,0.5-0.4,0.4-0.8,0.4C69.6,133.1,69.9,132.9,70.3,132.9z M70.1,132.3
		c0.4-0.4,0.6-1,1.5-0.9C71.4,132,71,132.4,70.1,132.3z M70.6,134.5c0.4,0.4-0.6,0.6-1.1,0.5C69.4,134.4,70.4,134.9,70.6,134.5z
		 M70.2,134.2c0.1-0.7,0.9-1,1.5-0.8C71.6,134.1,70.9,134.2,70.2,134.2z M72.4,134.3c0,0.5-0.5,0.5-1,0.5
		C71.6,134.5,71.9,134.3,72.4,134.3z M71.9,132.8c0-0.4,0.3-0.4,0.7-0.4C72.4,132.7,72.3,132.9,71.9,132.8z M72.1,135.3
		c-0.2,0.4-0.8,0.4-1.2,0.5C70.7,135.1,71.7,135.5,72.1,135.3z M80.5,126.6c0.7-1.3,1.7-2.3,2.8-3.1C83,124.6,81.7,126,80.5,126.6z
		 M85,125.9c-0.6,1.1-1.5,2-2.4,2.8C82.8,127.6,84.2,126.6,85,125.9z M79.5,132.4c0.4-0.9,1.3-1.4,2-2.1c0.3,0.1,0,0.6,0.5,0.4
		c-0.1,0.6-0.6-0.1-0.8,0.2C81.5,132,80.5,132.5,79.5,132.4z M74.9,135.7c0,0.4-0.6,0.3-1,0.4C74,135.6,74.5,135.7,74.9,135.7z
		 M73.7,134.7c0-0.5,0.3-0.7,0.8-0.6C74.4,134.4,74.2,134.7,73.7,134.7z M74.5,135.1c0.2-0.3,0.6-0.3,1.1-0.2
		C75.6,135.3,74.9,135.1,74.5,135.1z M75.2,134.3c0.1-0.5,0.6-0.6,1.1-0.8C76.3,134.2,75.9,134.3,75.2,134.3z M74.9,133.3
		c0.1-0.5,0.4-0.8,1-0.8C75.9,133.2,75.3,133.2,74.9,133.3z M75.3,131.1c0.6-0.5,0.9-1.4,2-1.4C76.7,130.2,76.1,130.7,75.3,131.1z
		 M77.5,132.4c-0.2,0.2-0.3,0.5-0.7,0.5C76.8,132.5,77,132.3,77.5,132.4z M77.8,135.4c-0.1,0.3-1.3,0.6-1.4,0.1
		C76.7,135.2,77.3,135.4,77.8,135.4z M77.2,134.8c0.2-0.5,1-0.4,1.5-0.6C78.7,134.8,78,134.8,77.2,134.8z M78.2,133.7
		c0.2-0.7,1-0.8,1.8-0.9C79.8,133.5,79,133.6,78.2,133.7z M77.7,130.3c0.1-0.6,0.7-0.5,1-0.9C78.9,129.8,78.2,130.4,77.7,130.3z
		 M80.7,133.8c0,0.5-0.4,0.6-1,0.5C79.7,133.9,80.2,133.8,80.7,133.8z M81.5,127.1c0.3-0.4,0.7-0.8,1-1.2
		C82.6,126.3,82,127,81.5,127.1z M79.8,121.9c-1.5,0-2.6-0.3-4.1-0.3C76.5,121.2,79.3,121.1,79.8,121.9z M79.2,120.2
		c0.7-0.6,2.4-0.3,3.4,0.1C81.3,120.7,80.5,120.2,79.2,120.2z M82,123.3c-0.5,1.3-2,2.8-2.9,4.2c-2-0.9-5-0.8-5.7-2.9
		C75.9,123.5,78.5,122.9,82,123.3z M73.5,129.1c0.6,0.2-0.2,0.7-0.6,0.7C72.9,129.3,73.4,129.4,73.5,129.1z M80.9,137.2
		c0.1-0.5,0.8-0.2,1.1-0.1C81.9,137.5,81.3,137.2,80.9,137.2z M90,133.8c0.2-0.5,0.9-0.7,1.1-1.2C91.4,133.1,90.4,133.5,90,133.8z
		 M98.7,129.9c-0.3,0.6-1.2,0.5-1.7,1c0.1,0.5,0.5,0.2,0.8,0.2c-0.4,1-1.7,1.1-2.4,1.8c-0.5-0.1,0-0.4-0.1-1
		c1.2-0.7,1.6-2.2,3.1-2.6C98.8,129.5,98.2,129.9,98.7,129.9z M94.8,130.1c-0.3-0.4,0.7-1.3,1.1-0.9
		C95.8,129.7,95.1,129.7,94.8,130.1z M96.7,132.7c1.3-0.9,2.8-1.6,4.2-2.4c0.3,0.6-0.9,1.2-1.6,1.6
		C98.6,132.3,97.6,132.7,96.7,132.7z M102.6,130.6c-0.6,0.8-1.6,1-2.4,1.7C100.4,131.6,101.5,130.7,102.6,130.6z M109.1,127.6
		c0.4-0.5,1.1-0.7,1.8-0.9C110.4,127.2,109.8,127.4,109.1,127.6z M110.6,120.4c0.4,0.2-0.5,1.5-1.1,1.6
		C109.6,121.1,110.3,120.9,110.6,120.4z M108.7,121.2c0.3,0.3-0.5,0.7-0.6,1.1C107.8,121.9,108.6,121.6,108.7,121.2z M107.9,120.8
		c-0.4,0.8-0.8,1.6-1.7,1.8C106.7,122,107.1,121.2,107.9,120.8z M105.7,122.2c-0.4,0.3-0.3,1-1,0.9
		C104.9,122.7,105.1,122.3,105.7,122.2z M103.9,122.5c0.1,0.3-0.3,1.3-0.9,1.3C103,123.1,103.8,123.1,103.9,122.5z M103,122.5
		c-0.3,0.7-0.8,1.1-1.2,1.7C101.6,123.6,102.4,122.8,103,122.5z M94.9,124c-0.2,0.2-0.6,0.3-1.1,0.2C94,123.9,94.4,123.9,94.9,124z
		 M96.5,124.3c2.2,0,3.2-1.3,5.2-1.6c-0.3,0.8-1,1.1-1,2.1c-2.6,1.1-4.8,2.6-7.1,4.1c-0.7,1.7-2.1,2.7-3.7,3.5
		c1-1.3,2.5-2.1,3.4-3.5c-3.2,1.4-4.4,5-7.7,6.2c1.1-1.8,2.9-2.8,4.2-4.3c-1.7,0.5-3.1,2.3-4.5,3.8c-0.4,0.4-1,1.2-1.7,0.7
		c1.1-1.7,2.8-2.8,4.1-4.3c-2,0.2-2.8,3-4.9,3.6c0-0.2,0.2-0.3,0.6-0.2c0.5-2,2.5-2.5,3.4-4.1c-2.4,0.7-2.9,3.5-5.6,4
		c0.6-1.7,3.1-2.7,4.1-4.5c-2.1,0.1-2.6,3-4.7,3.5c0.9-1.9,3-2.5,4-4.3c-1.1,0.1-1.3,1.3-2.4,1.4c1.3-2,2.9-3.7,4.6-5.4
		c0.9,0.1,0.9,0.9,2,0.8c-0.3-0.6-1-0.7-1.3-1.3C90.2,124.8,94.1,125.8,96.5,124.3z M94.9,119.3c0.2-0.3,1.1-0.1,1.2,0
		C96,119.7,95.1,119.5,94.9,119.3z M108,94.1c-0.4,0.2-1.1,0.1-1.2,0.6c0.1,0.3,0.2,0.5,0.7,0.4c-0.4,1.5-0.8,3.2-2.1,3.9
		c-0.2,0.4,0.4,0.1,0.2,0.6c-1.1,2.2-2.1,4.4-3,6.8c-1.4-0.7-2.8-0.5-4.4-0.9c1.3-0.8,3.2-0.9,4.8-1c-0.2-1.2-2.4-0.6-3.4-1.1
		c1-0.7,2.6-0.8,3.8-1.2c-0.4-0.9-2.2-0.5-2.9-1.1c1-0.6,2.2-0.5,3.5-0.4c-0.4-1.3-2.7-0.8-4-1.2c1-1.3,3-0.2,4.6-0.5
		c0.2-0.6-0.4-0.4-0.4-0.8c0.5-0.1,0.6-0.7,1.1-0.8c-0.1-0.5-0.9-0.4-1.2-0.7c0.7-0.4,2-0.2,2.3-1c-0.4-0.8-1.9-0.5-2.8-0.8
		c0.4-0.8,1.6-0.1,2.4-0.2c0.4-0.6-0.4-0.7-0.1-1.2c0.3-0.3,0.8,0.4,1-0.2c0-0.5-0.6-0.4-0.8-0.7c0.4-0.4,1.5-0.2,2.3-0.2
		C108.6,93.1,108,93.2,108,94.1z M104.3,95.7c-1.4,0.9-3.5,0.7-5.4,0.3C100.3,95.1,102.3,95.1,104.3,95.7z M97.8,94.3
		c1.1-0.9,3-0.5,4.6-0.2C101.4,95.1,99.2,94,97.8,94.3z M99.1,96.6c-1.4,1.2-4.9,0.3-6.6-0.4C94.6,96.3,97.1,96.3,99.1,96.6z
		 M104.2,97.4c-1.4,0.8-3.5,0.6-5.3,0.2C100.2,96.9,102.6,97,104.2,97.4z M102.5,93.6c0.2-0.6,2.4-0.8,2.7,0
		C104.4,93.7,103.4,93.6,102.5,93.6z M108.8,90.3c0.1-0.6-0.2-0.7-0.2-1.1c0.7-0.1,1-0.8,1.5-1.2c0.4,1.1-1,2.6-1.6,3.5
		c-0.9-0.7-1.7,0.3-3,0C106.3,90.7,107.9,90.9,108.8,90.3z M105.3,90.6c-0.7,0.4-1.5,0.6-2.6,0.6C103.3,90.7,104.3,90.6,105.3,90.6z
		 M104.6,91.9c-0.4,0.6-1.3,0.5-2.2,0.3C102.8,91.7,103.8,91.7,104.6,91.9z M97.9,93c1-0.6,2.7-0.7,4.1-0.4
		C101.1,93.4,98.9,93.2,97.9,93z M101.5,91.5c-0.5,0.2-0.8,0.4-1.5,0.3C100.2,91.4,100.8,91.5,101.5,91.5z M62.4,89.8
		c0.6,0.1,6.5,1.5,10.5,1.4c7.4,1.2,16.4,0.8,23.1,0.4c0.3,0.5,1.3,0.4,1.9,0.6c-0.7,0.4-1.6,0.6-2.5,0.7c0.5,0.4,1.3,0.4,2.2,0.5
		c-0.6,0.3-1.4,0.4-2.2,0.6c1.4,0.7,2.9,0.5,4.3,1c-2.5,1.5-6.5-0.3-8.9-0.3c0.6,1.1,3.4,0.3,4,1.4c-6.7-0.1-12.9-0.4-19-0.2
		c3.1,0.7,8,0.4,11.8,0.3c1.3,0,2.9-0.1,3.6,0.7c3.4,0.1,6.1,1,9,1.6c-3.2,1.7-7.3-0.8-10.4-0.7c0.6,0.2,1.4,0.2,1.5,0.9
		c2,0,3.6,0.4,5.4,0.6l0,0.7c1.4-0.4,2.7-0.2,4.1,0.3c-2.3,1.5-6.6-0.7-9.2-0.1c1.7,0.6,4.8-0.1,5.4,1.6c1.4-0.2,3-0.3,4.2,0.3
		c-2.6,1.7-6.4,0.6-9.8,0c1.1,1.2,4.4,0.4,5.2,1.8c1.1-0.3,2.1-0.1,3.1,0.3c-2,1.1-4.3,1.1-6.9,0.5c2.1,1,4.3,1.1,6.7,1.6
		c-2.2,1.7-5.9,0-8.4-0.1c2,0.9,4.5,1.3,7,1.8c-1.4,1.4-4.2,0.2-6.4,0c1.8,0.7,3.8,1.1,5.8,1.6c-1.5,1.6-4.7,0.6-6.5,0.3
		c1.7,1.3,4.9,1.1,7.5,1.5c-2.3,1.4-5.3,0.7-8-0.2c0.2,0.8,1.3,0.7,2,0.9c1.1,0.3,2.2,0.5,2.9,1.1c0.5,0.1,1.2-0.1,1.5,0.2
		c-1.5,1.1-3.9-0.3-5.8-0.4c1.6,1.1,4.3,1.6,6.4,1.7c-2,1.4-5.3-0.5-7.3-0.3c1.5,1,4.2,0.9,5.8,1.9c0.6-0.3,1.6-0.1,2.2-0.5
		c0-0.5-0.5-0.6-0.5-1.1c0.3,0,0.7,0,0.8-0.1c0.4-0.4-0.5-0.4-0.1-1c0.2-0.2,0.8,0,1-0.2c0-0.9-1.5-0.4-2-0.8
		c0.4-0.4,1.1-0.3,1.6-0.5c0.2-0.6,0-0.9,0.6-1.2c-0.2-0.6-1.4-0.2-2-0.4c0.5-1.2,2.5-0.1,3.2-1c-0.7-0.3-1.7-0.4-2.4-0.6
		c0.8-0.4,1.8-0.8,3-0.8c-0.1-0.8-1.6-0.3-2.1-0.8c0.8-0.7,2.1-0.7,3.4-0.8c-0.5,1.2-2.7,8.2-2.8,8.6c-0.2,1-0.9,1.8-1.2,2.7l-0.9,0
		c-0.2-0.2-0.1-0.6-0.1-1c-2,0.1-4.2-0.1-6.2-0.7c-0.3-0.1-0.7-0.4-0.8-0.4c0.5,0.1-0.7-0.4-0.7,0.1c0,0.5,3.2,1.2,3.9,1.4
		c1.5,0.4,3,0.5,3.7,1.4c-2.6,0.1-4.5-1-6.3-1.2c0.5,1.1,2.3,1.1,3.5,1.6c-1,0.4-2.6-0.9-3.5-0.3c0.4,1,2.5,0.5,3.5,1.1
		c-0.9,1.2-2.4,0.1-3.8,0c-0.3,0-0.2,0.7,0.1,0.7c-0.9,0.5-2.4,0.4-3,1.2c-2-0.2-3.7,0.1-5.3-0.3c-0.2-0.6,0.6-0.2,0.6-0.7
		c0.5,0.4,2,0.7,2.7,0.5c-0.8-0.5-2.1-0.3-2-1.4c-2.3-0.6-5.6-0.3-8-0.7c-0.8-0.1-1.5-0.8-2.2-0.4c0.3,0.7,0.5,1.4,1.4,1.5
		c-3.4,0.6-9.9-5.2-12-10.9c-1.6-5.4-3.5-9.2-4.9-14.8c-0.1-0.5-0.8-3.5-1.4-4.8c0.9,0.2,2.1,0.5,3.2,0.9c0.9,0.3,2.1,1.6,2.8,0.7
		c-1.9-1-4.4-2-6.6-2.3c-0.4-0.4-0.4-1.2-0.9-1.5C57.9,87.3,59.8,89.5,62.4,89.8z M61,106.6c-0.8,0.1-0.8-0.5-0.8-1.3
		C60.8,105.4,60.8,106.1,61,106.6z M59.5,106.3c-0.3-0.4-0.5-0.8-0.5-1.5C59.3,105.1,59.4,105.7,59.5,106.3z M57.8,104.7
		c0.7,0.4,0.7,1.5,1,2.3C57.8,107,57.8,105.3,57.8,104.7z M58.3,109.9c-0.4,0-0.3-0.6-0.4-1C58.2,109.1,58.3,109.4,58.3,109.9z
		 M55.2,90.6c-0.5-0.6-0.9-1.3-0.9-2.3C54.9,88.8,55.1,89.7,55.2,90.6z M52.6,88.6c1,0.1,0.5,1.5,1,2.1
		C52.7,91.1,52.3,89.3,52.6,88.6z M52.1,93.8c0.7,0.3,0.1,1,0.2,1.8C52,95.1,51.8,94.4,52.1,93.8z M52.6,95.7
		c0.6,0.2,0.6,1.3,1.5,0.9c0.6,2.3,4.8,3.7,2.7,6.5c-0.5,0.3-1-0.2-1.5,0.1c-0.5,0-0.2-0.7-0.7-0.7c-0.4,0-0.3,0.5-0.6,0.7
		c-0.5-0.2-0.5-0.8-0.9-1.1c-0.4,0-0.4,0.4-0.8,0.4c-3.6-0.6-5.6-2.6-8-4.4c-0.2-1.6,0.1-2.5,0.9-3.2c0.4-0.1,0.2,0.4,0.7,0.3
		c0.4-0.1,0.4-0.6,0.6-0.9c0.5,0,0.5,0.6,0.9,0.7c0.3-0.1,0.2-0.6,0.4-0.8c0.6,0.2,0.4,1.1,0.9,1.4c0.4-0.2,0.4-0.7,0.5-1.2
		c0.5,0.1,0.4,0.7,0.8,0.8c0.5,0.1,0.7-0.1,1.1-0.1c0,0.6,0.5,0.7,0.8,1.1C52.4,96.2,52.1,95.6,52.6,95.7z M56.4,106.3
		c-0.9-0.2-0.9-1.1-1-2.1C56.3,104.3,56.1,105.6,56.4,106.3z M54.2,103.9c0.5,0.3,0.8,1.6,0.7,1.9C54.3,105.5,54.3,104.6,54.2,103.9
		z M54.1,109.1c-0.6,0-0.4-0.7-0.5-1.1C54.1,108,54,108.6,54.1,109.1z M52.4,102.9c0.9,0.3,1.2,1.7,1.1,2.5
		C52.5,105.2,52.2,103.8,52.4,102.9z M52.7,108.6c-0.3-0.1-0.3-0.4-0.4-0.7C52.8,107.9,52.8,108.2,52.7,108.6z M50.9,102.7l0.4,0
		c0.2,0.7,0.4,1.3,0.5,2.1C51.3,104.3,51,103.6,50.9,102.7z M51.2,106c-0.4,0-0.4-0.3-0.4-0.7C51.1,105.4,51.3,105.5,51.2,106z
		 M50.6,104.4c-0.7-0.2-0.6-1.3-0.7-2.1l0.4,0C50.3,103,50.5,103.7,50.6,104.4z M45.1,100l0.4,0c0.1,1.6,0.9,3.4,0.8,4.8
		c-0.6,0-0.3-0.6-0.2-1C45.4,102.8,45.2,101.5,45.1,100z M45.1,104.1c-0.8-1.1-0.9-3-1-5.1c0.2,0,0.2,0.1,0.4,0.2
		C44.3,101,45.3,102.6,45.1,104.1z M46.4,100.6c0.2,0,0.3,0.2,0.5,0.2c-0.4,1.3,0.3,2.1,0.3,3.4C46.6,103.4,46.2,101.8,46.4,100.6z
		 M47.2,104.6c0.5,0,0.4,0.7,0.9,0.7c-0.1,0.2-0.9-0.1-1.2-0.2C46.8,104.7,47.2,104.9,47.2,104.6z M47.3,101.2l0.4,0
		c0.2,1.4,0.8,2.5,0.9,4C47.8,104.2,47.5,102.8,47.3,101.2z M48.5,101.8l0.4,0c0.3,0.7,0.5,1.6,0.6,2.5
		C48.8,103.8,48.9,102.6,48.5,101.8z M45.7,93.4l0-0.7C46.3,92.6,46.3,93.6,45.7,93.4z M46.5,88.8l0.5,0c0.3,0.5,0.2,1.8-0.7,1.5
		C46.3,89.8,46.2,89.1,46.5,88.8z M47.3,92.5c0.4,0,0.3,0.7-0.2,0.7C47.1,92.9,47.2,92.7,47.3,92.5z M48.2,90
		c-0.4-0.3-0.7-1.1-0.2-1.4l0.4,0C48.7,89,48.4,89.7,48.2,90z M48.5,91.9c0.4,0.1,0.6,1,0.2,1.4C48.1,93.2,48.4,92.2,48.5,91.9z
		 M51.6,93.5c-0.4,0-0.3-1-0.1-1.2C52.1,92.3,51.6,93.2,51.6,93.5z M50.9,86.5c0.5,0,0.8,0.1,0.8,0.6c0,0.4-0.4,0.5-0.8,0.5
		C50.7,87.4,50.7,86.7,50.9,86.5z M50.7,88.6c1.2-0.5,1.3,1.1,1,1.7C50.8,90.2,50.5,89.6,50.7,88.6z M50.4,93.6
		c-0.6,0-0.6-1.1-0.4-1.5C50.4,92.3,50.4,92.9,50.4,93.6z M49.8,89.9c-0.3-0.4-0.7-0.6-0.6-1.2c0.3,0.1,0.3-0.2,0.7-0.1
		C50,89,50.2,89.7,49.8,89.9z M49.9,86.8c0,0.4,0,0.8-0.2,0.9c-0.6,0.1-0.6-0.4-0.9-0.6c-0.5,0-0.6,0.4-1,0.5
		c-0.4,0.1-0.2-0.5-0.5-0.4c-1.3,0.9-2.6,1.2-4.4,1.7C44.1,87.1,47.2,86,49.9,86.8z M33.1,104.2c-0.2,0.5-0.7,0.6-1,1
		C31.7,104.6,32.4,104.1,33.1,104.2z M26.1,112.6c0.1-0.1,0.5-0.2,0.6-0.4c0.1-0.2-0.2-0.4-0.1-0.7c0.1-0.5,0.7-0.9,1.1-1.4
		c1.2-1.6,2-3.6,3.8-4.3c0,0.4-0.2,0.3,0,0.5c1.9-1.1,2.9-3,5.4-3.5c-1.5,1.5-3.6,2.5-4.8,4.3c1.6-0.4,2.6-2.2,4.1-3.2
		c1-0.6,2.1-0.6,3-1.4c-1.5-1-3.3-0.2-4.6,0.8c0.5-1.2,3.3-3.1,4.8-2.3c-0.3-1.4-1.3-3.3-0.9-5.9c0.1-0.1,0.3-0.1,0.5-0.1
		c0.5-3.7,2.8-5.5,6.3-5.9c-0.1,0.6,0,1,0.1,1.5c-1.3,0.8-2.5,1.7-4,2.3c-2.7,3.4-1.1,8.8,1.5,11.3c-1.4-0.2-2.1-2-3.1-3
		c0.3,2.6,3.3,3.7,4.9,5.5c-1.2,0.9-2.6,2.1-3.9,3.2c-1,0.9-2.1,1.8-3,2.9c-1.5,1.9-1.6,5.2-4,6.2c-0.2,1-0.3,2.1-1.2,2.4
		c-0.2-3.6,2.1-5.1,3.7-7.2c-1.2,0.2-1.9,2.2-3.1,2.9l0-0.7c-1.1,0.5-0.6,2.5-1.6,3.1c-0.4-3.8,3.4-5.6,5.2-7.9
		c-1.7,0.5-3.1,2.6-4.4,4c-0.4,0.1-0.3-0.2-0.7-0.2c-0.4,0.4-0.9,0.7-1,1.5c-0.1,0-0.1-0.1-0.1-0.1c0.8-2.8,3.1-3.9,4.7-5.8
		c-1.5,0.2-2.7,2.7-4.1,3.1c1.3-3.1,3.9-4.8,6.2-6.7c-1.2-0.5-1.5,1.2-2.6,1.3c-1.7,2-3.6,3.8-5.2,5.8c0.2-1.6,1.7-2.9,2.2-4.7
		c-1.5,0.5-1.7,2.3-3,2.9c2.2-4.1,6.2-6.3,9.8-8.8c-0.8-0.7-1.7,0.7-2.2,1.1c-1.5,0.8-2.6,2.1-3.9,3.1l-0.7,0
		c-1.1,0.6-1.9,2.3-2.8,2.6c0.4-1.7,1.8-2.4,2.6-3.7c-2.8,1.5-4.8,5.2-5.8,9.1C25.5,115.5,25.7,113.5,26.1,112.6z M43,97.1
		c-0.4-0.7-1.4-1.5-0.8-2.6c0.8,0.3,0.7,1.4,1.4,1.7c-0.3,2.5-0.1,4.5,0.3,6.9c-0.5,0.2-0.9-0.6-1.2-1c0-0.2,0.4,0,0.4-0.3
		C43,100.1,42.3,98.7,43,97.1z M42.2,100.5c-0.4-0.6-0.5-1.3-0.3-2.2C42.4,98.6,41.9,99.9,42.2,100.5z M39.3,127.6
		c-0.5,1.3-1.2,3.2-0.9,4.4c0.6-0.2,0.1-1.6,0.6-1.9c0.4,1.3,0.2,3,0.5,4.4c-2.5-0.5-2-5-1.3-7.2c0-0.3-0.4,0-0.3,0.3
		c-0.7-1.6,0.9-2.9,1.4-4.2c1.3,0.6,2.2,1.4,3.6,1.9c-0.6,1.7-1.8,3.4-2.4,5.2c-0.2,0.6,0,1.4-0.7,1.7c0-2.6,0.1-5.6,1.5-7.1
		C40.4,125.2,39.7,126.5,39.3,127.6z M36.5,127.9c0.1,0.5,0.5-0.4,0.5,0c0.2,0.9-0.1,2.4-0.5,3.1c-1.9-2.9,0.7-6.2,2.1-8.5
		C38.8,124.2,36.7,125.7,36.5,127.9z M37.3,132.8c-0.7-0.1-0.6-1.1-0.3-1.6C37.4,131.4,37.1,132.4,37.3,132.8z M36.1,126
		c-0.8-2,0.5-4.1,1.3-5.2c0.6,0.1,0.6,0.8,1,1.1C37.5,123.2,36.7,124.5,36.1,126z M35.5,129.8c0.1,0.5,0,1.3,0.2,1.8
		c-0.5-0.3-1-0.6-1.5-1c-0.3-2-0.4-4.1,0.8-5.4c0.8,1.5-0.2,3.6-0.5,4.6C34.7,130.1,35.1,129.6,35.5,129.8z M35.5,121.8
		c-0.3,1.5-0.7,2.9-1.4,4c-0.9-2.8,1.3-4.5,2.1-6.3c0.6-0.1,0.7,0.3,0.9,0.6C36.7,120.7,36.6,121.7,35.5,121.8z M36,117.7l0.4,0
		c0.1,1.9-1.4,2.8-2.3,4C33.9,119.5,35.4,119.1,36,117.7z M33.1,125.2c0.8,0.8,0.4,3-0.5,3.4C32.5,127.1,32.5,126.2,33.1,125.2z
		 M33.4,121.7c0.4,1.2-0.2,2.6-0.7,3.4C32.1,124.1,32.7,122.2,33.4,121.7z M31.6,124.2c0.9,0.5-0.1,2.8,0.4,3.8
		c-0.4-0.3-0.8-0.7-1-1.1C31.5,126,30.8,124.9,31.6,124.2z M31,124.4c-0.2-1.5,0.1-3.9,1.1-4.8C32.4,120.7,32.3,123.9,31,124.4z
		 M30.5,122.9c-0.4,0-0.3-0.8-0.1-1C30.9,122.1,30.3,122.4,30.5,122.9z M27.3,117.2c-0.2-0.8,0.4-0.8,0.3-1.6
		C28,115.6,27.9,117.3,27.3,117.2z M27,120.5c-0.3,0-0.5-0.2-0.5-0.6c0.6-0.4,0.6-1.3,0.9-2C27.9,118.3,27.3,119.9,27,120.5z
		 M26.2,118.8c0-2.5,0.6-4.9,1.7-6.6c0.2,0,0.2,0,0.3,0.1C27.3,114.3,27,116.9,26.2,118.8z M28.9,118.4c0.3,0.7,0,2.6-0.9,3.1
		C27.5,120.1,28.3,119.1,28.9,118.4z M28.5,115.7c-0.4-1.1,0.4-2.2,0.9-2.8C29.8,113.5,28.6,114.8,28.5,115.7z M30.3,114.2
		c0.3,1.3-1.1,3.1-1.9,4.1C28.1,116.6,29.5,115.4,30.3,114.2z M29.4,120c0.7,1,0.4,2.9-0.5,3.6C27.4,122.7,28.9,121,29.4,120z
		 M29.5,123.4c0.4,0.2,0.3,0.9,0.9,0.8l-0.1,1.5c-0.7-0.2-0.8-0.9-1.2-1.4C29.1,123.9,29.4,123.7,29.5,123.4z M30.4,121.2
		c-0.6-0.2-0.2-1.5-0.1-1.9c0.3,0,0.2,0.4,0.5,0.3C30.8,120.2,30.8,120.9,30.4,121.2z M72.7,146.7c0.2-0.5,0.6-0.8,1.1-0.9
		C73.8,146.5,73.4,146.7,72.7,146.7z M75.7,146.9c0.5-0.4,0.6-1.2,1.5-1.2C77,146.4,76.3,146.7,75.7,146.9z M77.4,147
		c0.1-0.7,1.1-0.6,1.5-1C79.1,146.5,78.2,147,77.4,147z M83.7,147c-0.5-0.4,0.5-0.5,0.6-0.8C84.6,146.5,83.8,146.8,83.7,147z
		 M100,145.2c0.2-0.5,0.7-0.6,1.1-0.8C100.9,144.8,100.8,145.3,100,145.2z M139.1,124.9c-2.2,1-2.7,3.8-4.9,4.7
		c-2.4,2.8-5.8,4.4-8.7,6.7c-0.3,0-0.4,0.2-0.8,0.1c-0.4,0.3-0.8,0.6-1.1,1c-1-0.2-1.4,0.3-1.8,0.7c-1.7,0.1-3.7,1-4.8,2.1
		c-0.5,0.1-0.3-0.5-0.7-0.6c-0.9,0.2-1.4,1-2.2,1.3c-0.2,0,0-0.4-0.3-0.4c-1.4,0.4-2.5,0.3-3.6,1.5c-0.5,0.1-0.1-0.6-0.5-0.6
		c-1.2,0.4-1.7,1.5-2.9,1.8c0-0.4,0.4-0.3,0.3-0.8c-1.4-0.2-2.8,0.3-3.7,1.3c-0.4-0.2-0.7-0.5-1.1-0.7c-2,0.3-3,1.8-4.7,2.4
		c0.3-1.1,1.6-1.1,1.9-2.2c-1,0.1-2.2,1.1-3.1,1.8c-0.2-0.2-0.1-0.7-0.5-0.7c-0.9,0.6-1.2,1.8-2.5,1.9c0.4-0.8,1.2-1.2,1.7-1.8
		c-1.4-0.6-2,0.9-2.9,1.4c-0.6-0.6,0.3-0.7,0.5-1.3c-1.2-0.4-1.9,1.5-3.2,1c-1,0.6-1.8,1.3-2.9,1.6c0.8-1,2.1-1.6,3.1-2.5
		c-1-0.3-2.4,1-3.2,1c-0.4-0.6,0.5-0.7,0.7-1.1c-1.6-0.2-2.9,1.2-4.5,1.5c0.1-0.6,0.8-0.5,0.9-1.1c-0.8-0.6-2,0.8-2.9,1.1
		c-0.5-0.3-0.6-0.5-0.4-1.1c-1.2-0.1-1.4,0.8-2.5,0.7c-0.6,0,0.2-0.2,0-0.7c-1.6-0.2-2.3,1.4-3.6,0.7c0-0.4,0.6-0.6,0.3-0.9
		c-1.3,0.3-2.2,1.1-3.2,1.8c-0.3-0.3,0.6-1.1,0.2-1.6c-0.7-0.2-0.8,0.4-1.4,0.5c-0.6,0.1-1.4-0.4-1.9-0.3c-0.9,0.1-1.3,1.1-2.2,0.7
		c0-0.5,0.8-0.3,0.8-0.8c-0.6-0.6-1.1,0.1-1.8,0.2c0.1-0.3,0.5-0.2,0.4-0.7c-1.3-0.6-1.9,1.3-3.2,0.8c0.2-0.7,1.5-0.2,1.5-1
		c-1.2-0.4-2.1,0.7-3.4,0.7c0.1-0.6,1-0.2,1.1-0.8c-0.4-0.6-1.6,0.2-2.3,0.2c0.1-0.3,0-0.5-0.2-0.6c-0.9,0-1.4,0.4-2.2,0.6
		c-0.1-0.8,0.9-0.5,1.1-0.9c-0.3-0.5-1.7,0.2-1.9-0.8c-0.6,0-1.1,0.1-1.5,0.3c-0.4-0.7-1.2-0.6-2-0.4c-0.1-0.5,0.3-0.6,0-0.8
		c-0.8-0.2-1,0.8-1.6,0.3c-0.6,0,0.2-0.5-0.2-0.7c-0.5-0.1-0.7,0.1-1,0.2c-2-1-4.4-0.6-5.6-2.3c-0.6,0.2-1,0-1.5-0.2
		c0.1-0.4-0.1-0.5-0.1-0.8c-0.7-0.4-1.5,0-2.2,0.1c-0.3-0.2-0.1-0.9-0.5-1.1c-0.6-0.2-0.4,0.4-0.8,0.4c-0.4-0.4-1.2-0.6-1.3-1.3
		c-2.1-0.9-4.2-2.5-6-3.9c-0.6-0.5-1.2-1.3-1.8-2c-1.2-1.3-2-2.3-3.1-3.6c-1.8-3.7-4.9-7.1-3.4-13c0.7-0.4,0.8-1.5,1.4-2.1
		c0.4,1-0.7,2.4-0.5,3.6c0,0.4,0.5,0.6,0.6,1.2c0.2,0.6-0.1,1.4,0.1,1.9c0.1,0.6,0.8,0.9,0.5,2.1c0.5,0.4,1,0.7,0.9,1.7
		c0.1,0.3,0.5,0.4,0.8,0.6c2.5,4.3,5.5,8.2,9.9,10.8c0.1,0.3,0.4,0.5,0.5,0.8c0.9,0,1.3,0.5,1.7,1c1.5,0.8,3.3,1.7,5.1,2.4
		c1.8,0.7,3.5,1.8,5.2,1.7c-2.3-1.5-6.5-2.5-8.9-4.4c-0.3-1.8-0.4-3.9,0.6-5.5c0.6,1.7-0.3,4.9,1.3,5.8c0.6-0.2-0.1-0.9-0.1-1.4
		c0.4-3.5,1.8-5.8,3-8.3c-2.1,0.9-2.1,4.2-3.2,6.1c-0.5-2.2-0.1-5.6,1.3-6.6c0.6,0,0.7,0.3,1.2,0c0.2-0.7-0.6-0.4-0.8-0.8
		c-1,0.2-2.6-0.7-3.6-1.5c-1.5-1.2-3.3-4.1-3.3-5.3c0-0.6,0.7-2.4,1.1-3.2c1.4-3.1,4.6-5.9,6.9-7.6c1.4,0.4,2.6,1.1,3.6,1.9
		c0.4,0.1,0.5-0.1,0.8-0.1c2.1,1.3,4.6,1.9,7.1,2.6c3.5,0.9,7.1,2.6,7.9,5.5c0.1,0.3,0,1.2,2.2,3.2c1,0.7,2.3,1.1,3.3,1.8
		c-0.8,0.7-1.9-1.1-3-0.5c1,1.1,2.9,1.3,4.4,1.9c-0.1,0.6-1.1,0.4-1.5,0.8c-0.1-1.2-1.9-0.8-2.8-1.3c-0.1,0.7,1.5,1,2.4,1.3
		c-3.2,1.7-7.6,2.2-9.2,5.7c-1.6,0-3.4-0.9-4.5-0.4c0.4,1.3,3,0.5,4,1.1c-0.7,2.1,1,3.9,2,4c0.1,0.5-0.4,0.5-0.4,0.8
		c0.4,1,6.2,6,9.2,7.1c6.3,2.4,15,3.2,22.5-1.8c-0.6-0.9,0.5-1.5,0.9-2.1c0.3,0.1-0.1,1,0.5,0.8c0.9-1.2,1.9-2.2,2.7-3.4
		c-1.3,0.4-1.6,1.8-2.8,2.3c1.2-2.5,3.9-3.5,5.8-5.2c0.2,0,0.2,0.1,0.4,0.2c0.6-0.2,1.1-1.2,1.9-0.7c-0.3,0.4-1,0.4-1.4,0.6
		c-0.2,0.4,0.7,0.4,0.2,0.6c-1.5,1.2-3.1,2.4-4.6,3.6c0.1,0.3,0.3,0.6,0.7,0.6c0.8-0.7,1.2-1.7,2.1-2.2c0.7,0.3,1.2,0.1,1.6-0.2
		c0-0.6-0.2-1,0.3-1.2c0.4,0.1-0.2,0.3,0,0.7c0.8,0.1,1.1-0.5,1.5-0.9c1.9-0.3,9.4-2.6,12.8-5.2c3.6-0.6,5.4-3.3,7.9-5.1
		c-0.8-0.1-0.9,0.6-1.7,0.6c1.2-3.2,3.8-5,7.5-5.4c-0.1,0.5-0.7,0.2-0.8,0.6c1.6,0.6,3.3-1.1,5.3-1c-1.4,1-3.3,1.4-5,2.1
		c2.4,0.5,4-1.9,6.3-1.5c-1.4,1.1-3.6,1.5-5.4,2.2c1.8,0.3,3.1-1,5.1-0.9c-1,0.7-2.3,1.1-3.3,1.8c0.9,0,2.5-0.5,3.7-0.7
		c-1.6,1.7-5.1,1.3-7.2,2.6c2.1-0.2,4.6-1.1,7.1-1.4c-2,1.4-5.5,1.2-7.4,2.7c0,0.2,0.2,0.2,0.3,0.4c0.9-0.6,3-1.8,4-0.9
		c0.9-0.5,1.8-1.1,3.3-1.1c-1.5,1-4,1.7-6.2,2.3c-0.5,0.2-1.6-0.1-1.7,0.7c1.1,0.3,2-1.2,3.5-0.5c1.2-0.8,2.9-1.1,4.8-1.2
		c-2.3,1.9-6.7,1.5-9.1,3.3c1,0.3,2.5-1.3,3.5-0.5c2.5-0.7,4.8-1.6,6.9-2.7c-0.2-0.4-0.6,0.2-1.1,0.1c0.1-0.3,0.4-0.2,0.2-0.5
		l-1.4-0.1c1.3-0.6,2.5-1.3,4.3-1.5C139.6,124,139.2,124.3,139.1,124.9z M136.3,123.3c0.9-0.8,2.5-0.9,3.6-1.6
		c-1.2-0.3-2.2,0.9-3.7,0.4c1.4-1.1,3.7-1.1,5.2-2.1C141.9,122.2,138.8,123.2,136.3,123.3z M141.5,119.7c-1.5,0.1-2.6,0.7-4.2,0.8
		c0.9-0.9,2.6-0.8,3.5-1.8c-1.6,0.1-3.4,1-5.3,1.1c1.9-1,4.3-1.4,6.6-1.9C142.6,118.4,141.6,119.1,141.5,119.7z M154.8,112.6
		c-1.8,1.3-4,1.4-6.3,2.1c0.1-0.9,1-0.8,1.1-1.6c-1.6-0.2-1.8,2.2-3.9,1.9c1.1-1.7,2.8-2.7,4.2-4c-1.2-0.9-1.8,1.3-2.9,1.5
		c-0.9,0.9-1.4,2.4-3.1,2.5c1.2-2.3,3.5-3.4,4.8-5.5c-2.5,0.6-3.6,3.9-5.9,5.2c1.2-3.1,4.9-4.9,7.1-7.5c-1.1-0.2-1.8,0.8-2.5,1.4
		c-0.7,0.6-1.5,1.3-2.1,2c-1.3,1.4-2.2,3.4-4.2,3.9c1.5-1.9,4.5-6.6,7.1-7.6c1.4-0.5,4.3-0.4,5.7,0.4c1,0.5,0.9,1.9,1.7,2.9
		C155.4,111,154.8,111.5,154.8,112.6z"/>
	<path fill-rule="evenodd" clip-rule="evenodd" fill="#D5C9B0" d="M47.7,136.8c-0.3-1.1-0.6-2.5-0.5-3.8c0.1-1.5,1.2-2.9,1.1-3.8
		c-1.7,1.6-2.2,5.2-2.2,8.1c0.3,0.3,0.5,0,0.9,0c-0.1,0.6,0.1,0.8,0.4,1c0.5,0,0.4-0.6,1-0.5c0-2.9,1.1-5.8,2.2-7.9
		C48.6,131,48.5,134.3,47.7,136.8z"/>
	<path fill-rule="evenodd" clip-rule="evenodd" fill="#D5C9B0" d="M74.5,16.3c0.7-0.1,0.2-0.5,0.4-1c0.9-1.8,2-3.4,3.2-5
		c-1.5,0.9-2.4,2.7-3,4.2C74.9,15.1,74.4,15.8,74.5,16.3z"/>
	<path fill-rule="evenodd" clip-rule="evenodd" fill="#D5C9B0" d="M77,15.7c0.6-2.2,1.9-3.9,3.5-5.4c0-0.1-0.1-0.2-0.2-0.2
		c-1.1,0.6-1.8,1.9-2.4,2.8C77.6,13.6,76.1,15.3,77,15.7z"/>
	<path fill-rule="evenodd" clip-rule="evenodd" fill="#D5C9B0" d="M73.4,17.1c0.1-0.5-0.5-0.2-0.4-0.7c0.3-1.5,1.2-2.7,2.1-3.8
		c0-0.1-0.1-0.2-0.2-0.2c-1.1,1.2-2,2.6-2.3,4.4C72.9,16.8,72.9,17.2,73.4,17.1z"/>
	<path fill-rule="evenodd" clip-rule="evenodd" fill="#D5C9B0" d="M72.1,17c-0.6-1.7,0.6-2.7,0.9-4c-0.7,0.2-1,1.2-1.3,2
		C71.6,15.6,71,17.2,72.1,17z"/>
	<path fill-rule="evenodd" clip-rule="evenodd" fill="#D5C9B0" d="M80.5,13.6c-0.4,0.5-1.1,1.2-0.6,1.9c0.1,0,0.2,0,0.3-0.1
		c0-2,1.6-2.8,2.5-4.2C81.6,11.8,81.1,12.7,80.5,13.6z"/>
	<path fill-rule="evenodd" clip-rule="evenodd" fill="#D5C9B0" d="M70.9,16.9c-0.6-1.5,0.8-2.1,0.5-3c-0.1,0-0.2,0-0.3,0.1
		C70.9,14.7,69.4,16.6,70.9,16.9z"/>
	<path fill-rule="evenodd" clip-rule="evenodd" fill="#D5C9B0" d="M80.6,15.6c0.1-0.1,0.1-0.3,0-0.5c-0.8,1-1.4,2.2-2,3.4
		c1.1-0.1,1-1.8,1.7-2.4c0.3,0,0.2,0.4,0.5,0.2c0.5-1.7,2.2-2.6,3.3-3.9C82.5,13.1,81.7,14.5,80.6,15.6z"/>
	<path fill-rule="evenodd" clip-rule="evenodd" fill="#D5C9B0" d="M82,15.9c-0.1-0.3,0.1-0.4,0-0.7c-1,1.2-1,3.1-2.2,4.2
		c0.2,0.4-0.3,0.5,0,0.7c1.1-0.6,0.7-2.4,2-2.9c0.5-1.3,1.5-2.3,2.4-3.2C82.8,14.2,82.8,15.3,82,15.9z"/>
	<path fill-rule="evenodd" clip-rule="evenodd" fill="#D5C9B0" d="M65.4,21.1c0.2-0.9,0.5-1.6,0.6-2.6c-1,0.8-0.7,2.5-1.1,3.7
		C65.6,22.6,65.8,21.6,65.4,21.1z"/>
	<path fill-rule="evenodd" clip-rule="evenodd" fill="#D5C9B0" d="M67.4,18.6c-0.4,1.4-0.9,2.6-1.4,3.9c0.9-1,1.6-2.3,1.7-3.9
		C67.6,18.5,67.5,18.5,67.4,18.6z"/>
	<path fill-rule="evenodd" clip-rule="evenodd" fill="#D5C9B0" d="M62,21.4c-0.2,0.2,0,0.6,0.1,0.8c0.2,0,0.3,0,0.4,0
		c0-0.4,0.4-1.9-0.5-2.1c-0.4,0.4-1.3,0.9-0.8,1.8C61.8,22,61.6,21.5,62,21.4z"/>
	<path fill-rule="evenodd" clip-rule="evenodd" fill="#D5C9B0" d="M57.6,21.6c-0.5-0.1-0.9,0.3-1.2,0.6c-0.7,0.8-1.6,3.2-0.7,4.3
		C55.4,24.4,56.2,22.7,57.6,21.6z"/>
	<path fill-rule="evenodd" clip-rule="evenodd" fill="#D5C9B0" d="M68.7,19.6c-0.5,1.1-0.9,2.1-1.3,3.3
		C68.2,22.5,69.1,20.5,68.7,19.6z"/>
	<path fill-rule="evenodd" clip-rule="evenodd" fill="#D5C9B0" d="M58.1,24.4c0.4-0.1,0.8-0.1,0.7-0.5c0-0.3-0.4,0-0.4-0.3
		c0.1-0.7,0.7-1.4,0.6-2C58.6,22.4,57.9,23.4,58.1,24.4z"/>
	<path fill-rule="evenodd" clip-rule="evenodd" fill="#D5C9B0" d="M69.1,22.7c0.4-1,1-1.9,1.1-3c-0.1,0-0.2,0-0.3,0.1
		c-0.5,1.5-1.2,2.9-1.9,4.3C68.7,24.1,68.9,23.2,69.1,22.7z"/>
	<path fill-rule="evenodd" clip-rule="evenodd" fill="#D5C9B0" d="M71,22.7c0.4-0.9,1-2,1-3c0-0.1-0.1-0.1-0.2-0.2
		c0,0.1-0.1,0.1-0.3,0.1c0,1.7-1,3.3-1.7,4.8c-0.3,0.1-0.7,0.1-0.5,0.5C70.3,24.8,70.6,23.5,71,22.7z"/>
	<path fill-rule="evenodd" clip-rule="evenodd" fill="#D5C9B0" d="M57.1,26.4c-0.9-1.6,0-3.4,1.2-4.4c-0.1,0-0.2-0.1-0.3,0
		C56.9,22.6,55.5,25.3,57.1,26.4z"/>
	<path fill-rule="evenodd" clip-rule="evenodd" fill="#D5C9B0" d="M85.5,17.5c-0.6,0.1-0.6,0.7-0.7,1.1C85.4,18.6,85.4,18,85.5,17.5
		z"/>
	<path fill-rule="evenodd" clip-rule="evenodd" fill="#D5C9B0" d="M73.2,21.9c0.1-0.8,0.8-1.2,0.8-2.1c-0.1,0-0.2-0.1-0.3,0
		c-0.7,1.3-1.3,3-2,4.2c-0.2,0.4-0.9,0.6-0.6,1.1C72.3,24.5,72.1,22.8,73.2,21.9z"/>
	<path fill-rule="evenodd" clip-rule="evenodd" fill="#D5C9B0" d="M54.7,27.8c0.1-0.4-0.2-0.3-0.3-0.8c-0.3-1.1,0.6-2.2,0.7-3.2
		c-1.2,0.7-1.1,2.3-1.1,3.8C54.2,27.8,54.5,28.1,54.7,27.8z"/>
	<path fill-rule="evenodd" clip-rule="evenodd" fill="#D5C9B0" d="M74.5,21c-0.8,1.7-2,3.2-2.7,4.9c1.3-1.4,2.3-3,2.9-4.9
		C74.7,21,74.6,21,74.5,21z"/>
	<path fill-rule="evenodd" clip-rule="evenodd" fill="#D5C9B0" d="M85,19.3c-1.1,1.2-2,2.5-2.7,3.9c-0.4,0.7-0.9,1.6-0.8,2.5
		c0.5-0.3,0.3-0.9,0.5-1.3c0.7-1.7,2.2-3.4,3.1-4.8C85.1,19.5,85.1,19.3,85,19.3z"/>
	<path fill-rule="evenodd" clip-rule="evenodd" fill="#D5C9B0" d="M53.5,28.6c0-0.3-0.5-0.1-0.6-0.4c-0.2-1.1,0.2-1.8,0.6-2.4
		c0-0.1-0.1-0.2-0.2-0.2c-0.5,0.8-1.2,2.3-0.4,3.2C53.3,28.8,53.3,28.7,53.5,28.6z"/>
	<path fill-rule="evenodd" clip-rule="evenodd" fill="#D5C9B0" d="M74.9,23c-0.8,1.3-1.9,2.3-2.4,3.8c1.4-0.8,1.6-2.4,2.6-3.5
		C75,23.1,75,23,74.9,23z"/>
	<path fill-rule="evenodd" clip-rule="evenodd" fill="#D5C9B0" d="M82.4,27.1c0.6,0.1,0.5-0.7,0.6-1c0.5-1.3,1.6-2.4,2.1-3.6
		C83.8,23.6,82.9,25.2,82.4,27.1z"/>
	<path fill-rule="evenodd" clip-rule="evenodd" fill="#D5C9B0" d="M74,26.8c0.5-0.3,1.3-1.4,0.9-1.8C74.6,25.6,73.7,26.1,74,26.8z"
		/>
	<path fill-rule="evenodd" clip-rule="evenodd" fill="#D5C9B0" d="M66.8,27.5c-1.4,2-3.1,3.7-3.8,6.1c0.6,0.2,1.1-0.3,1.1-0.8
		c-0.2,0-0.4,0.4-0.5,0.1c0.7-2.1,2.4-3.5,3.4-5.3C67,27.5,66.9,27.5,66.8,27.5z"/>
	<path fill-rule="evenodd" clip-rule="evenodd" fill="#D5C9B0" d="M83.4,26.8c-0.3,0.4-1.3,2.2-0.1,2.3c-0.6-1.8,1.5-2.7,1.8-3.9
		C84.6,25.5,83.9,26.1,83.4,26.8z"/>
	<path fill-rule="evenodd" clip-rule="evenodd" fill="#D5C9B0" d="M67.5,28.6c0-0.1-0.1-0.2-0.2-0.2C66.6,29.2,66,30,65.5,31
		c-0.3,0.6-1.1,1.6-0.4,2.2C65.5,31.4,66.4,29.9,67.5,28.6z"/>
	<path fill-rule="evenodd" clip-rule="evenodd" fill="#D5C9B0" d="M74.5,28.3c0.6,0.3,0.9-0.9,0.7-1.2C75,27.6,74.4,27.7,74.5,28.3z
		"/>
	<path fill-rule="evenodd" clip-rule="evenodd" fill="#D5C9B0" d="M103.5,23.4c-0.5-0.7-1.4-0.1-1.9,0.2c-0.9,0.6-1.7,1.7-2.1,2.4
		C100.6,25,101.6,23.5,103.5,23.4z"/>
	<path fill-rule="evenodd" clip-rule="evenodd" fill="#D5C9B0" d="M69.1,29.5c-0.7,0.8-1.2,1.7-2,2.5c0.1-0.9,0.9-1.4,1-2.3
		c-1,0.8-1.5,1.9-1.8,3.1c0.7-0.3,0.7-0.2,1.4-0.1C67.5,31.2,69.2,30.6,69.1,29.5z"/>
	<path fill-rule="evenodd" clip-rule="evenodd" fill="#D5C9B0" d="M75.8,28.5c-0.3,0.3-1,0.7-0.5,1.3C75.8,29.7,76.1,28.6,75.8,28.5
		z"/>
	<path fill-rule="evenodd" clip-rule="evenodd" fill="#D5C9B0" d="M83.5,30.7c0.2,0.1,0.4,0,0.7,0c-0.5-1.7,1.1-2.4,1.6-3.7
		C84.2,27.7,83.8,29.2,83.5,30.7z"/>
	<path fill-rule="evenodd" clip-rule="evenodd" fill="#D5C9B0" d="M51.5,35c0.4-0.1,0.8-0.2,0.8-0.5c0-0.3-0.5,0.2-0.5-0.1
		c0-0.5,0.3-0.8,0.4-1.3c-0.6,0.4-0.8,1-1,1.7C51.3,34.7,51.4,34.8,51.5,35z"/>
	<path fill-rule="evenodd" clip-rule="evenodd" fill="#D5C9B0" d="M90.8,32.6c0.9-1.1,1.8-2.3,3.1-3.2c0.3-0.2,0.8-0.2,0.9-0.7
		c-1.1,0.1-1.3,0.7-2.1,1.1c0.1-2.4,3.8-2.2,4.9-3.9c-0.2-0.1-0.5,0-0.8,0c-1.4,1.2-4,1.7-4.6,3.5c0,0.4,0.2,0.5,0.2,0.8
		c-0.9,0.9-1.9,1.7-2.2,3.1C90.9,33.5,90.7,33,90.8,32.6z"/>
	<path fill-rule="evenodd" clip-rule="evenodd" fill="#D5C9B0" d="M53.1,33.6c-0.2,0.6-0.6,1.5-0.2,2.3c0.1,0,0.3,0,0.4-0.1
		c-0.1-0.7-0.1-1.5,0.1-2.2C53.2,33.6,53.2,33.5,53.1,33.6z"/>
	<path fill-rule="evenodd" clip-rule="evenodd" fill="#D5C9B0" d="M102.3,26.7c-0.6,0.7-1.4,1.3-1.5,2c1.2-1.4,2.6-2.6,4-3.8
		C103.7,25.2,102.9,26,102.3,26.7z"/>
	<path fill-rule="evenodd" clip-rule="evenodd" fill="#D5C9B0" d="M54.7,36c-0.8-1.1,0.6-2,0.2-2.6C54.4,33.9,53.2,36.4,54.7,36z"/>
	<path fill-rule="evenodd" clip-rule="evenodd" fill="#D5C9B0" d="M68.8,33.2c0.1,0.1,0.4,0.1,0.6,0c-0.1-1.1,0.7-1.5,0.9-2.4
		C69.4,31.4,69,32.2,68.8,33.2z"/>
	<path fill-rule="evenodd" clip-rule="evenodd" fill="#D5C9B0" d="M56.2,33.8c-0.4,0.4-0.7,2.3,0.3,2.4c0.3-0.5-0.8-1.5-0.1-2.1
		C56.5,33.9,56.4,33.9,56.2,33.8z"/>
	<path fill-rule="evenodd" clip-rule="evenodd" fill="#D5C9B0" d="M75,32.3c0.5-0.2,0.9-1.3,0.6-1.5C75.5,31.3,74.7,31.7,75,32.3z"
		/>
	<path fill-rule="evenodd" clip-rule="evenodd" fill="#D5C9B0" d="M61.6,35.5c-0.3-0.7,0.3-1.2,0-1.5c-0.2,0.4-0.4,0.9-0.6,1.3
		c-0.2,0-0.3,0-0.4-0.1c0-0.6,0.2-0.9,0.3-1.5c-0.8,0.3-0.9,1.8-0.4,2.2C60.8,35.7,61.3,35.7,61.6,35.5z"/>
	<path fill-rule="evenodd" clip-rule="evenodd" fill="#D5C9B0" d="M58.2,35.4c-0.3-0.1-0.5-0.2-0.5-0.7c-0.4,0.2-0.6,1.1-0.2,1.3
		c0.4,0,0.4-0.4,0.7-0.4c0,0.5,0.3,0.7,0.4,1.1c0.2,0.1,0.5,0.1,0.6,0.2c-0.1,0.4,0.1,0.4,0.3,0.7c0.4,0,0.3-0.3,0.7-0.3
		c-0.7-0.3-0.4-1.4-0.6-2c-0.2,0.3-0.3,0.6-0.3,1c-0.1-0.3-0.4-0.1-0.5-0.3c-0.2-0.7,0.1-1,0-1.5c0-0.1-0.1-0.1-0.2-0.1
		C58.5,34.6,58.4,35.1,58.2,35.4z"/>
	<path fill-rule="evenodd" clip-rule="evenodd" fill="#D5C9B0" d="M85.4,29.9c-0.6,0.7-1.2,1.3-1.2,2.3c0.1,0.2,0.4,0.2,0.6,0.3
		c-0.1,0.3-0.3,0.5-0.1,0.9c0.8-0.2,0.7-1,0.9-1.6c-0.3-0.2-0.3,0.2-0.7,0.2C84.3,31,85.9,30.5,85.4,29.9z"/>
	<path fill-rule="evenodd" clip-rule="evenodd" fill="#D5C9B0" d="M69.8,36.4c0.4,0,0.6-0.1,0.6-0.4c-0.1-0.1-0.3-0.2-0.4-0.4
		c0.2-0.6,0.5-1.1,0.8-1.7c-0.3-0.2-0.4,0.4-0.8,0.4c0-0.3-0.2-0.2-0.2-0.5c0.1-0.4,1-1,0.6-1.3c-0.4,0.7-1.3,1-1.1,2.1
		c0.2,0.3,0.5-0.2,0.6,0C69.8,35,69.5,35.8,69.8,36.4z"/>
	<path fill-rule="evenodd" clip-rule="evenodd" fill="#D5C9B0" d="M100.2,31.8c0.2,0,0.3-0.1,0.5-0.1c0-0.4-0.4-0.2-0.4-0.5
		c0.9-1.7,2.4-3,3.9-4.2c-0.2,0-0.3,0.1-0.5,0.1C102.2,28.4,100.1,29.7,100.2,31.8z"/>
	<path fill-rule="evenodd" clip-rule="evenodd" fill="#D5C9B0" d="M101.3,32.6c0.2,0.1,0.3,0.3,0.5,0.2c-0.3-1.6,1.5-3,2.6-4.2
		C102.6,29.3,101.9,30.9,101.3,32.6z"/>
	<path fill-rule="evenodd" clip-rule="evenodd" fill="#D5C9B0" d="M98.3,30c0,0.2-0.3,0.2-0.1,0.5C98.6,30.7,98.5,30.1,98.3,30z"/>
	<path fill-rule="evenodd" clip-rule="evenodd" fill="#D5C9B0" d="M89.7,35.8c0.6-1.5,1.9-2.6,2.9-3.8c-1.6,1.1-2.9,2.4-3.2,4.5
		C89.8,36.4,89.8,36.1,89.7,35.8z"/>
	<path fill-rule="evenodd" clip-rule="evenodd" fill="#D5C9B0" d="M70.1,38c0.2,0.1,0.5,0.2,0.8,0.1c0-0.5-0.2-0.5-0.3-0.8
		c0.1-0.4,0.5-0.7,0.6-1.2C70.4,36.4,70.1,37.1,70.1,38z"/>
	<path fill-rule="evenodd" clip-rule="evenodd" fill="#D5C9B0" d="M102.8,33.7c0.2,0.1,0.6,0,0.7-0.1c-0.7-1.2,0.9-2.1,1.3-3.1
		C103.5,31.1,103,32.3,102.8,33.7z"/>
	<path fill-rule="evenodd" clip-rule="evenodd" fill="#D5C9B0" d="M85.3,34.9c-0.7,0.5-0.6,3.6,0.4,3.6c-0.2-1.1-0.7-2.6-0.1-3.5
		C85.5,34.9,85.5,34.8,85.3,34.9z"/>
	<path fill-rule="evenodd" clip-rule="evenodd" fill="#D5C9B0" d="M107.4,32.1c-0.4,0.9-1.8,1.4-1.6,2.4c1-0.7,2-1.5,2.2-2.8
		c-0.4-0.3-1.2,0.1-1.7,0.2c0-0.4-0.2-0.4-0.4-0.4c-0.4,0.4-0.9,1.1-0.7,1.6C105.9,33.2,106.6,31.7,107.4,32.1z"/>
	<path fill-rule="evenodd" clip-rule="evenodd" fill="#D5C9B0" d="M89.6,40.8c0.1-1.1,0.6-2.1,1-3c-0.5,0-0.5,0.7-0.8,0.4
		c0.1-1.6,1.1-2.5,1.8-3.7c-1.3,0.9-2.1,2.3-2.1,4.1c0.6,0.9-0.6,2.3,0,3.4C90,41.9,89.5,41.2,89.6,40.8z"/>
	<path fill-rule="evenodd" clip-rule="evenodd" fill="#D5C9B0" d="M80.4,37.3c-1.2,0.6-2.4,1.2-3.7,1.7c0-0.3,0.1-0.6-0.3-0.6
		c-0.5,0-0.1,0.7-0.5,0.8c0-0.5-0.5-0.2-0.7-0.1c-0.1-0.3,0.4-0.5,0.1-0.7c-0.6,0-0.3,0.6-0.9,0.7c-0.2,0-0.3-0.1-0.6,0
		c-0.2-0.4-0.2-0.7-0.4-0.8c-0.3-0.1-1.2,1-1.6,0.3c-0.1-0.3,0.2-0.3,0.1-0.6c-0.4,0-0.4,0.3-0.6,0.4c0.7,1.3-0.4,1.8,0.1,3.3
		c0.6,0,0.9-0.3,1-0.7c-0.2-0.2-0.6,0-0.7-0.4c0.1-0.4,0.2-0.9,0.4-1.3c0.4,0.1,0.8-0.4,0.9-0.1c0.1,1.1-0.6,1.5-0.4,2.6
		c0.9-0.2,0.3-1.5,0.9-1.9c0.2,0,0.6-0.2,0.6,0c-0.4,1.4-0.3,3.2-0.6,4.7c0,0.3,0.5,0,0.5,0.3c-0.2,0.8-0.4,1.7-0.6,2.6
		c-0.1,0.5-0.4,1.4,0.3,1.5c-0.1-1.8,0.2-3.9,1.4-5.1c-0.1-0.8,0.4-1.1,0.5-1.7c-0.1-0.1-0.5,0.1-0.4-0.2c0.2-1,0.2-2.4,1.3-2.5
		C75.9,41,76.2,43,75.2,44c-0.3,1.4-1.3,3.2-1.3,4.8c0,0.4-0.1,1.3,0.5,1.4c-0.1-1-0.3-2,0-3c0.1-0.4,1-2.9,1.3-3
		c0.2,0,0.5,0.7,0.8,0.3c-0.6-2.1-0.1-4.7,1.7-5.7C79.2,39.1,80.2,38.2,80.4,37.3z M74,44.7c-0.4-0.5,0.3-1.5,0.4-2.2
		C74.8,43.3,74.2,44.1,74,44.7z M74.4,41c0.1-0.3,0.1-0.7,0.2-1c0.2-0.1,0.2,0.1,0.3,0.1C75,40.6,74.8,40.9,74.4,41z"/>
	<path fill-rule="evenodd" clip-rule="evenodd" fill="#D5C9B0" d="M80.5,37.1c0.4,0.3,1.1-0.1,0.8-0.7
		C80.7,36.4,80.6,36.7,80.5,37.1z"/>
	<path fill-rule="evenodd" clip-rule="evenodd" fill="#D5C9B0" d="M81.7,38.3c0.1,0.4,0.4,0.5,0.8,0.5c0.2-0.3,0.1-0.6-0.1-0.8
		C82,38,81.9,38.2,81.7,38.3z"/>
	<path fill-rule="evenodd" clip-rule="evenodd" fill="#D5C9B0" d="M106.7,35.4c-0.4,0.1-0.7,0.6-0.5,0.9c0.9-0.7,1.8-1.6,2.6-2.4
		C107.8,33.9,107.3,34.9,106.7,35.4z"/>
	<path fill-rule="evenodd" clip-rule="evenodd" fill="#D5C9B0" d="M79.1,40.5c0.1,0,0.1,0.2,0.2,0.3c0.4,0,0.3-0.3,0.7-0.3
		c-0.3-0.3-0.3-0.8-0.4-1.1C79.1,39.5,79,39.9,79.1,40.5z"/>
	<path fill-rule="evenodd" clip-rule="evenodd" fill="#D5C9B0" d="M77.7,39.8c-0.3,0.8-0.7,2-0.3,3c0.2,0,0.3-0.1,0.5-0.1
		C77.4,41.9,78.1,40.4,77.7,39.8z"/>
	<path fill-rule="evenodd" clip-rule="evenodd" fill="#D5C9B0" d="M102.4,37.3c-1.5,1.4-2.6,3.3-3,5.5c0,0.3,0.3,0.6-0.2,0.7
		c-0.4-2.2,0.8-4,1.6-5.7c-0.5,0-0.4,0.3-0.9,0.3c0.1-0.2,0.1-0.3-0.1-0.3c-1.3,1.2-2.6,3.3-1.7,5.5c0.2,0.2,0.4,0,0.6-0.1
		c0,0.6,0.5,0.6,0.7,0.8c0.2,0.5,0,1.5,0.6,1.3c-1.1-3.1,0.9-6,2.7-8C102.6,37.4,102.6,37.3,102.4,37.3z M98.8,43.1
		c-1.6-0.8,0.1-4.2,1.2-4.9C99.5,39.9,98.8,41.3,98.8,43.1z"/>
	<path fill-rule="evenodd" clip-rule="evenodd" fill="#D5C9B0" d="M107,36.6c-1,0.5-2.3,0.7-3.2,1.2c-1.4,0.7-2.2,3.3-2.7,4.6
		c-0.2,0.7-0.5,1.5-0.6,2.3c-0.1,0.7-0.3,1.9,0.3,2.5c-0.4-3.7,1.3-6.6,2.9-9.1C104.7,37.9,106.4,37.4,107,36.6z"/>
	<path fill-rule="evenodd" clip-rule="evenodd" fill="#D5C9B0" d="M83.3,44.5c0.5-0.8,0.3-2,1-2.7c0-0.1,0-0.3-0.1-0.3
		C83.7,42.3,82.7,43.7,83.3,44.5z"/>
	<path fill-rule="evenodd" clip-rule="evenodd" fill="#D5C9B0" d="M84.2,44.5c0.7,0,0.5-0.5,0.4-1.1c0.3-0.5,0.6-1,0.8-1.7
		C84.7,42.1,84,43.6,84.2,44.5z"/>
	<path fill-rule="evenodd" clip-rule="evenodd" fill="#D5C9B0" d="M104.2,38.8c-1,1.3-1.4,3.1-1.7,4.9c-0.2,0.3-0.9,1.3,0,1.3
		c0.2-2,1.2-4.2,1.9-6.1C104.4,38.8,104.3,38.7,104.2,38.8z"/>
	<path fill-rule="evenodd" clip-rule="evenodd" fill="#D5C9B0" d="M107.6,38.5c-0.2,0.5-0.6,1.3-0.9,2.1c-0.2,0.5-0.9,2,0.4,1.6
		c-0.7-1.5,0.8-2.6,1.1-3.9C107.8,38.2,107.8,38.4,107.6,38.5z"/>
	<path fill-rule="evenodd" clip-rule="evenodd" fill="#D5C9B0" d="M105.7,38.7c-0.9,1.1-1.5,2.4-1.6,4.1c0.3,0.1,0.4-0.1,0.7-0.2
		c-0.4-1.2,0.5-2.7,1.2-3.7C105.9,38.8,105.9,38.6,105.7,38.7z"/>
	<path fill-rule="evenodd" clip-rule="evenodd" fill="#D5C9B0" d="M118,40.8c0.5-0.6,1.8-1.2,1.8-1.9c0-0.8-0.9-1.3-1.2-2.2
		c-0.2,0-0.5,0.1-0.6,0.2c0.6,0.6,0.7,1.7,1.3,2.2c-1.2,1.1-2.3,2.3-3.1,3.8C117.3,43,117.3,41.7,118,40.8z"/>
	<path fill-rule="evenodd" clip-rule="evenodd" fill="#D5C9B0" d="M76.8,44c-0.6,1.7-1.6,4.1-1.9,6.1c0,0.3-0.3,1.4,0.4,1.3
		c-0.3-2.7,1.2-4.9,1.7-7.4C77,44,76.9,44,76.8,44z"/>
	<path fill-rule="evenodd" clip-rule="evenodd" fill="#D5C9B0" d="M86,45.7c-0.8-0.9-0.2-2.3,0.5-3.1C85.5,42.6,84.4,45.7,86,45.7z"
		/>
	<path fill-rule="evenodd" clip-rule="evenodd" fill="#D5C9B0" d="M93.7,51.9c0.2-1.5,0.9-3.4,0.2-5.2c-0.4-1.1-1.8-1.4-2.2-2.4
		c-1.2,0-1.2-1.2-1.5-2c-0.3,0.6-0.4,1.3,0,2c0.4,0.2,0.8,0.3,1.2,0.5c0.4,0.9,1.2,0.9,1.7,1.7C94.2,48.3,93.2,50.5,93.7,51.9z"/>
	<path fill-rule="evenodd" clip-rule="evenodd" fill="#D5C9B0" d="M108.4,42.2c0.2,0.1,0.7,0,0.8-0.1c0-0.4-0.5-0.2-0.5-0.6
		c0-0.8,1.3-1.6,1-2.1C108.9,40.1,108.1,40.7,108.4,42.2z"/>
	<path fill-rule="evenodd" clip-rule="evenodd" fill="#D5C9B0" d="M86.7,46.9c0.3-0.1,1,0,0.9-0.3c-0.2-0.3-0.7-0.1-0.8-0.5
		c-0.2-0.8,0.8-1.5,0.5-1.8C86.4,44.6,86,46,86.7,46.9z"/>
	<path fill-rule="evenodd" clip-rule="evenodd" fill="#D5C9B0" d="M77.5,46c-0.1,0-0.2,0-0.3,0c-0.4,1.8-1.6,4.1-1.1,5.9
		C76.3,49.8,77,48,77.5,46z"/>
	<path fill-rule="evenodd" clip-rule="evenodd" fill="#D5C9B0" d="M111.4,42.7c-0.2-0.2-0.9,0.2-0.9-0.1c-0.3-0.8,0.7-1.2,0.4-1.7
		c-0.8,0.4-1.2,1.3-0.7,2.4C110.5,43.3,111.4,43.2,111.4,42.7z"/>
	<path fill-rule="evenodd" clip-rule="evenodd" fill="#D5C9B0" d="M88.8,47.6c0-0.7-0.2-1.3,0-2C87.9,45.5,87.9,47.7,88.8,47.6z"/>
	<path fill-rule="evenodd" clip-rule="evenodd" fill="#D5C9B0" d="M113.7,42.9c0.1,0.1,0.2,0.3,0.4,0.3c0.7-0.2,1.4-0.3,1.5-1
		c-0.5-0.2-1.1,0.2-1.5-0.3c-0.5,0.3-1.1,1.1-1.8,1c-0.1-0.6,0.4-0.7,0.4-1.2c-0.9-0.2-1,0.9-0.9,1.8
		C112.7,43.9,113,43.1,113.7,42.9z"/>
	<path fill-rule="evenodd" clip-rule="evenodd" fill="#D5C9B0" d="M90.9,48.8c-0.4-0.4-0.8-1-1.1-1.6C89,47.8,90.2,49.6,90.9,48.8z"
		/>
	<path fill-rule="evenodd" clip-rule="evenodd" fill="#D5C9B0" d="M77.4,52.8c-0.3-0.7-0.1-1.9-0.4-2.7C77,50.8,76.3,52.8,77.4,52.8
		z"/>
	<path fill-rule="evenodd" clip-rule="evenodd" fill="#D5C9B0" d="M92.2,51c0.3-0.4,0.2-1.1,0.3-1.7C91.8,49.5,91.3,50.7,92.2,51z"
		/>
	<path fill-rule="evenodd" clip-rule="evenodd" fill="#D5C9B0" d="M79.6,52.9c-0.2-0.1-1,0.4-1.3,0.1c-0.3-0.5,0.3-1.1-0.2-1.1
		C76.9,53,79.2,54.4,79.6,52.9z"/>
	<path fill-rule="evenodd" clip-rule="evenodd" fill="#D5C9B0" d="M96.4,49.7c0.2,0.4,0.2,0.7,0.2,1.1c0.8-0.3,0.9-1.2,1.1-1.9
		c-0.3-0.1-0.3,0-0.7,0.1C97.3,49.6,96.5,49.4,96.4,49.7z"/>
	<path fill-rule="evenodd" clip-rule="evenodd" fill="#D5C9B0" d="M95.5,50.4c-0.1,0-0.2,0-0.3,0c0.4,1.1,0,2.3,0.4,3.3
		C96.5,53.3,96,51.2,95.5,50.4z"/>
	<path fill-rule="evenodd" clip-rule="evenodd" fill="#D5C9B0" d="M102.5,49.9c-0.3-0.3-0.6,0-0.9,0.1c0.5,1.3-0.5,1.5-0.6,2.3
		C102.1,52.6,102.4,50.9,102.5,49.9z"/>
	<path fill-rule="evenodd" clip-rule="evenodd" fill="#D5C9B0" d="M94.4,51.8c0-0.1-0.1-0.1-0.2-0.1c0.1,1.6,0.4,4-0.1,5.5
		c0.6-0.4,0.7-1.4,0.7-2.3C94.8,54,94.7,52.8,94.4,51.8z"/>
	<path fill-rule="evenodd" clip-rule="evenodd" fill="#D5C9B0" d="M92.8,53.6c0-0.3,0.3-0.5,0.3-0.9c-0.7,0.4-1.1,0.9-1,1.8
		c0.5,0.1,0.4-0.4,0.7-0.2c0.1,1.1-0.2,2.3-0.2,3.4c-0.1,1.2-0.2,2.1,0,2.8C92.8,58.4,93.5,55.8,92.8,53.6z"/>
	<path fill-rule="evenodd" clip-rule="evenodd" fill="#D5C9B0" d="M81.5,55.8c0-0.1-0.1-0.1-0.2-0.1C81.2,57.2,81,58.6,81,60
		C81.5,59,81.7,57.2,81.5,55.8z"/>
	<path fill-rule="evenodd" clip-rule="evenodd" fill="#D5C9B0" d="M81.9,61.2c0.5-0.7,0.4-1.7,1.4-2.1c-0.1-1.3,0-2.5,0.1-3.8
		c-0.1,0-0.3,0-0.4,0.1c0,0.1-0.1,0.2,0,0.3c-0.2,1.4-0.2,3.1-0.7,4.3C82,60.5,81.4,60.8,81.9,61.2z"/>
	<path fill-rule="evenodd" clip-rule="evenodd" fill="#D5C9B0" d="M91.8,54.8c0-0.1-0.1-0.1-0.2-0.1c-0.2,0.3-0.1,0.8-0.2,1.2
		c-0.5,0.1-0.4,0-0.8,0.1c-0.4,0.5-0.3,1-0.4,1.8c-0.2,1.3-0.7,2.7-0.6,3.8c0.9-1.5,0.3-4,1.6-5.2c0,1.6-0.2,3.1-0.4,4.6
		c0.4-0.5,0.5-1.2,0.6-1.8C91.7,57.9,91.8,56.3,91.8,54.8z"/>
	<path fill-rule="evenodd" clip-rule="evenodd" fill="#D5C9B0" d="M101,53.8c-0.6,0.3-0.5-0.4-1-0.3c-0.2,0.2-0.1,1,0.1,1.2
		C100.7,54.6,101.1,54.4,101,53.8z"/>
	<path fill-rule="evenodd" clip-rule="evenodd" fill="#D5C9B0" d="M98.9,55.8c-0.2,0,0-0.7-0.4-0.5c-0.2,0.4-0.2,0.9,0.2,1.2
		c0.7-0.2,1.3-0.8,1.1-1.4C99.2,55.1,99.4,55.7,98.9,55.8z"/>
	<path fill-rule="evenodd" clip-rule="evenodd" fill="#D5C9B0" d="M83.9,58.8c-1,1.1-1.5,2.6-2.4,3.8c0.7-0.2,1-1,1.3-1.6
		c0.4-0.7,0.8-1.3,1.2-1.9C84,59,84,58.8,83.9,58.8z"/>
	<path fill-rule="evenodd" clip-rule="evenodd" fill="#D5C9B0" d="M88.6,59.6c0.1,1-0.3,1.6-0.2,2.7c0.7-1.1,0.3-2.9,1.1-3.9
		c-0.7-0.1-1.2,0.6-1.3,1.1C88.1,59.7,88.6,59.3,88.6,59.6z"/>
	<path fill-rule="evenodd" clip-rule="evenodd" fill="#D5C9B0" d="M96.5,57.4c-0.8,0.1-0.4,1.4,0,1.7c0.5-0.1,0.9-0.3,0.9-0.9
		c-0.3-0.1-0.6,0.3-0.7,0.1C96.5,58,96.8,57.6,96.5,57.4z"/>
	<path fill-rule="evenodd" clip-rule="evenodd" fill="#D5C9B0" d="M87.2,62.7c0.3-0.9,0.4-2.3,0.6-2.8c-1.1,0.3-1.7,1.1-2.1,2
		c0.6-0.2,0.8-0.7,1.4-0.9C87.4,61.7,86.3,62.4,87.2,62.7z"/>
	<path fill-rule="evenodd" clip-rule="evenodd" fill="#D5C9B0" d="M83.8,61c-0.8,1.2-1.8,2.3-2.3,3.6c0.5-0.3,0.6-1,1.2-1.3
		c-0.2,0.4-0.3,0.9-0.5,1.3c-0.5,0.8-1.5,1.5-1,2.3c0.5-1.6,1.8-2.7,2.7-4c-0.5,0-0.3,0.5-0.7,0.4C83.1,62.5,84.1,61.5,83.8,61z"/>
	<path fill-rule="evenodd" clip-rule="evenodd" fill="#D5C9B0" d="M95.1,61.4c0.5-0.3,0.8-0.8,0.8-1.4
		C95.2,60.2,95.2,60.8,95.1,61.4z"/>
	<path fill-rule="evenodd" clip-rule="evenodd" fill="#D5C9B0" d="M93.8,61.3c-0.3,0.4,0.1,0.9,0.3,1.3
		C94.8,62.4,94.3,61.3,93.8,61.3z"/>
	<path fill-rule="evenodd" clip-rule="evenodd" fill="#D5C9B0" d="M92.9,61.6c-0.1,0-0.3,0-0.4,0.1c-0.3,1-0.9,1.7-1.2,2.7
		C92.3,63.7,92.5,62.6,92.9,61.6z"/>
	<path fill-rule="evenodd" clip-rule="evenodd" fill="#D5C9B0" d="M85.3,65.7c0.6-0.4,0.6-1.2,1.4-1.5c0,0.2,0.1,0.3,0.1,0.5
		c1-0.2,1.6-1.1,1.6-1.7c-0.7,0.1-0.7,1.2-1.5,1c-0.1-0.4,0.4-0.4,0.3-0.8C86.1,63.7,85.1,64.6,85.3,65.7z"/>
	<path fill-rule="evenodd" clip-rule="evenodd" fill="#D5C9B0" d="M90,64.5c0.5-0.6,0.9-1.2,1.2-1.9C90.7,62.7,89.6,63.9,90,64.5z"
		/>
	<path fill-rule="evenodd" clip-rule="evenodd" fill="#D5C9B0" d="M88.6,64.2c0.7-0.2,1.1-0.7,1.2-1.3
		C89.4,63.4,88.4,63.4,88.6,64.2z"/>
	<path fill-rule="evenodd" clip-rule="evenodd" fill="#D5C9B0" d="M85.3,64c-1,0-1.2,1.3-1.7,1.9c-0.2,0-0.1-0.2-0.3-0.1
		c-0.4,1-1.9,1.2-2.5,2.1c1.1,0.1,1.6-1.4,2.7-1.4C84,65.6,84.7,64.8,85.3,64z"/>
	<path fill-rule="evenodd" clip-rule="evenodd" fill="#D5C9B0" d="M78.6,14.3c1.1-1.5,2.9-2.9,3.7-4.3c-1.5,1.6-3.4,2.9-4.2,5
		C78.5,15.2,78.9,14.8,78.6,14.3z"/>
	<path fill-rule="evenodd" clip-rule="evenodd" fill="#D5C9B0" d="M61.8,31c-0.5,0.6-0.7,1.3-0.5,2.4c0.2,0.1,0.5,0,0.5,0.3
		c1.2-2.2,2.8-4.2,4.1-6.4c-1.7,1.2-2.2,3.4-3.5,4.9c-0.3-1.1,1.3-2,1.1-2.9c-0.5,0.6-0.8,1.4-1.4,2C62,31.1,62,30.9,61.8,31z
		 M62.2,32.8c-0.2,0.1-0.4,0-0.5,0c-0.1-0.3,0.1-0.3,0-0.5C61.8,32.5,62.1,32.5,62.2,32.8z"/>
	<path fill-rule="evenodd" clip-rule="evenodd" fill="#D5C9B0" d="M103.1,24.6c-2.3,1.2-3.7,3.4-4.6,5.3
		C99.7,27.9,101.3,26.1,103.1,24.6z"/>
	<path fill-rule="evenodd" clip-rule="evenodd" fill="#D5C9B0" d="M83,17.3c0-0.3,0.3-0.5,0.1-0.9c-1,0.8-1.1,2.3-1.8,3.3
		c-0.2,0.2-0.6,0.3-0.5,0.8c1.2-0.6,1.2-1.9,2-2.8c0,0.5,0.6,0.2,0.7,0.5c-1.2,1.8-2.2,3.9-3.3,5.8c0.2,0,0.3-0.1,0.5-0.1
		c0.6-2.3,2.6-4.3,3.5-6.6c-0.3,0.1-0.5,0.3-0.7,0c0-0.7,0.8-0.9,0.9-1.6C83.9,16.2,83.4,16.7,83,17.3z"/>
	<path fill-rule="evenodd" clip-rule="evenodd" fill="#D5C9B0" d="M81.7,55.6c0.2,0,0.3,0.2,0.5,0.1c1-1.5-1.5-1.3-1.8-2.6
		c-0.5,0-0.4,0.4-0.6,0.6c-0.4-0.2-0.6-0.1-0.8,0.2c1.8,0.7,0.5,3.7,1,4.8c0.3-1.4,0.6-2.9,0.1-4.6C80.8,54.5,81.9,54.5,81.7,55.6z"
		/>
</g>
</svg>
